<?xml version="1.0" encoding="utf-8"?>
<!-- Generator: Adobe Illustrator 27.1.0, SVG Export Plug-In . SVG Version: 6.00 Build 0)  -->
<svg version="1.1" id="Capa_1" xmlns="http://www.w3.org/2000/svg" xmlns:xlink="http://www.w3.org/1999/xlink" x="0px" y="0px"
	 viewBox="0 0 715 289.6" style="enable-background:new 0 0 715 289.6;" xml:space="preserve">
<style type="text/css">
	.st0{fill:#29ABE2;}
	.st1{fill:#333333;}
	.st2{fill:#1A1A1A;}
	.st3{fill:#008EBC;}
	.st4{fill:#007FAB;}
	.st5{fill:#999999;}
	.st6{fill:#B3B3B3;}
	.st7{fill:#CCCCCC;}
	.st8{fill:#F2F2F2;}
	.st9{fill:#29B1FF;}
	.st10{fill:#FFFFFF;}
	.st11{fill:#E6E6E6;}
	.st12{fill:#00A99D;}
	.st13{fill:#00D0BC;}
	.st14{fill:none;}
	.st15{fill:#2996C2;}
</style>
<path class="st0" d="M403.2,73.2l-75.7,2v-30l75.7-3c8.6-0.3,15.6,6.4,15.6,15l0,0C418.8,65.8,411.8,72.9,403.2,73.2z"/>
<path class="st1" d="M326.9,74.4c0.6,0.5,1.3,0.8,2.3,0.7c4.7-0.1,8.5-7,8.5-15.3c0-1.7-0.2-3.3-0.5-4.8
	C328.5,56.1,327.1,65.9,326.9,74.4L326.9,74.4z"/>
<path class="st2" d="M329.1,45.1c-4.7,0.2-4.4,6.9-4.4,15.2c0,6.6-0.2,12.2,2.2,14.1c0.2-8.5,1.7-18.3,10.3-19.4
	C336,49.1,332.9,44.9,329.1,45.1L329.1,45.1z"/>
<path class="st3" d="M32.1,56.7L32.1,56.7c36.6-4.5,44.4,19.1,46.9,27.6l2.3,7.8l-38.3,2L32.1,56.7L32.1,56.7z"/>
<path class="st3" d="M420.7,36.1c9-1.8,17.4-1,25.3,1.1C428.8,13.6,396.6-8,334.2,2.9l0,0L352,62c14.3-0.1,28.3-1.2,42-4.8
	C404,54.5,407.9,39.6,420.7,36.1z"/>
<path class="st4" d="M446,37.2c-8-2-16.3-2.9-25.3-1.1c-12.8,3.5-16.8,18.4-26.6,21.1c-13.8,3.6-27.8,4.8-42,4.8l13.9,46.1
	l105.5-10.5l-7-22.2C461.5,66.4,456.5,51.4,446,37.2L446,37.2z"/>
<path class="st0" d="M420.2,214.3l-94.1-3.2v-42.6l94.1,1.4c12.4,0.2,22.5,10.4,22.5,22.8l0,0C442.7,205,432.6,214.7,420.2,214.3
	L420.2,214.3z"/>
<path class="st2" d="M333,173.9c-1.9-3.4-4.4-5.4-7.1-5.5c-5.9-0.1-5.6,9.4-5.6,21.2s-0.3,21.2,5.6,21.4c1,0,1.9-0.2,2.8-0.7
	C326.2,198.1,328.1,185.4,333,173.9L333,173.9z"/>
<path class="st1" d="M336.6,190c0-6.4-1.4-12.1-3.6-16.1c-4.8,11.6-6.8,24.2-4.3,36.5C333.2,208,336.6,199.8,336.6,190L336.6,190z"
	/>
<path class="st5" d="M62.5,88.8C42,83.1,22,87.4,2.3,88.6v35.6l11.8,4.5c8-5,15.1-12.8,22-20.2C43.7,100,54,96.7,62.5,88.8z"/>
<path class="st6" d="M15.7,9.8c0-0.4,0.1-0.8,0.2-1.1c-0.2-0.3-0.4-0.7-0.7-1C12.8,4,2.3,11,2.3,30.4v58.2c2.8-0.2,5.7-0.4,8.5-0.7
	C21.6,65.7,8.7,35.4,15.7,9.8L15.7,9.8z"/>
<path class="st5" d="M81,162.5l23.1,0.9c4.2-1.8,8.7-8.6,13-13.2c-20.1,0-40.4-0.1-60.8-0.1L81,162.5L81,162.5z"/>
<path class="st6" d="M62.5,88.8C54.1,96.7,43.7,100,36,108.5c-6.8,7.4-14,15.2-22,20.2l42.3,21.4c20.4,0,40.6,0,60.8,0.1
	c1.4-1.6,2.9-2.9,4.2-3.8c1.4-0.8,9.8-7.9,11.2-9.5c24.5-22.8,50.1-43,79.1-58.9c-56.1,2.8-113.2,1.9-170.6,8
	C48.2,86.1,55.4,86.8,62.5,88.8L62.5,88.8z"/>
<path class="st7" d="M226.5,70.7L45.2,78c0,0-6.4-34-29.3-69.4c-0.1,0.3-0.2,0.7-0.2,1.1c-7,25.7,5.9,55.9-4.9,78.2
	c10-0.9,20.1-2.1,30.3-2c57.4-6.1,114.5-5.2,170.6-8c3.9-2.2,8-4.2,12.1-6.2C224.7,71.2,225.6,70.9,226.5,70.7L226.5,70.7z"/>
<path class="st8" d="M418.5,62.9l-192,7.8c-0.9,0.2-1.9,0.5-2.8,1.1c-4.1,2-8.1,4.1-12.1,6.2c3.7-0.2,7.4-0.4,11-0.6
	c98.1-5.6,192.1-6.3,283.2-4.3c37,1.4,74.5-8.2,109.6,6.8c3.5,1.4,6.9,2.9,10.2,4.4c3-2.7,6.1-5.2,9.4-7.4
	C582.3,58.4,511,61.9,418.5,62.9L418.5,62.9z"/>
<path class="st7" d="M104.1,163.4l140.8-3.6c7.6-3.1,15.3-5.9,23.2-8.6c0.7-0.2,1.4-0.4,2.1-0.6c-50.2-0.2-101.2-0.3-153.1-0.4
	C112.8,154.8,108.3,161.6,104.1,163.4L104.1,163.4z"/>
<path class="st9" d="M635.2,76.8c-3.3,2.2-6.4,4.7-9.4,7.4c22.5,9.9,42.9,20.9,63.3,36.6c2.6,2.6,6.2,3.8,9.7,5.7
	c0-1.6-0.2-3.2-0.3-4.8C681.7,99.9,660.8,85.8,635.2,76.8L635.2,76.8z"/>
<path class="st10" d="M714.3,147.1c-4.8-9.5-10.1-17.9-15.9-25.5c1.4,14-1.4,28.2-8.2,40.3c6.8,0.9,13.5,1.8,20.3,2.5
	C714.5,161.5,716,156.9,714.3,147.1L714.3,147.1z"/>
<path class="st7" d="M690.2,161.9c-2.3,4.1-5.1,7.9-8.3,11.4c5.7-0.4,11-1.3,15.6-3.1c5.6-2.1,10-3.5,13-5.8
	C703.7,163.7,697,162.8,690.2,161.9L690.2,161.9z"/>
<path class="st3" d="M28.2,177.6L28.2,177.6c44.3,6.6,52.2-27.6,54.8-40l2.3-11.4L39,123.3L28.2,177.6L28.2,177.6z"/>
<path class="st2" d="M5.4,89.2c-0.4-0.4-0.9-0.7-1.6-0.7c-3.7-0.2-2.6,8-3,17.7c-0.4,9.8-2.2,17.4,1.5,17.6c0.2,0,0.5,0,0.7-0.1
	C0,112.2,1.1,99.9,5.4,89.2L5.4,89.2z"/>
<path class="st0" d="M698.8,126.5c-3.5-1.9-7.1-3.1-9.7-5.7c-20.3-15.7-40.8-26.7-63.3-36.6c-0.6,0.6-1.2,1.1-1.8,1.7
	c-1.8,1.7-3.5,3.5-5.1,5.4c-2.7,2.8-5.1,5.9-7.3,9.2c-1.8,2.6-3.5,5.3-5.3,7.9c-1.3,2-2.6,4-4,6c-0.9,1.3-1.9,2.6-2.8,3.9
	c-1,1.3-2,2.6-3.1,3.8c-3.3,4-7.1,7-11.2,9.3c-1.2,0.7-2.5,1.3-3.8,1.9c-1,0.4-2,0.8-3.1,1.2c-0.7,0.3-1.5,0.5-2.2,0.7
	c-1.4,0.4-2.7,0.7-4.1,1c-0.5,0.1-0.9,0.2-1.4,0.3c-3.5,0.6-13.8,0.8-17.3,1v14.9c12.4,0.1,31.6,0.5,43.9,0.6
	c31.6-0.1,62.5,4.8,93.2,8.9C696.3,151.3,699.2,138.9,698.8,126.5L698.8,126.5z"/>
<path class="st1" d="M5.4,89.2c-4.3,10.8-5.4,23-2.5,34.6c3.1-0.8,3.9-8.5,4.3-17.7C7.6,98,7.6,91.3,5.4,89.2L5.4,89.2z"/>
<path class="st11" d="M634.4,126.5c5.5,3.9,11,7.8,16.5,11.8c4.2-1.2,13.7-4.5,21.5-11.2c-6.1-3.7-12.3-6.7-18.6-9.3
	C645.8,123.9,637.2,125.9,634.4,126.5L634.4,126.5z"/>
<path class="st11" d="M682.5,113c0.2-0.9,0.4-1.9,0.4-3c0.1-2.2-0.3-4-0.7-5.3c-4.6-3.7-9.2-7.4-13.8-11c-0.3,2.1-1,4.9-2.2,8.1
	C672,104.8,677.9,108.5,682.5,113L682.5,113z"/>
<path class="st8" d="M676.3,123.4c2.2-2.4,5.1-5.8,6.2-10.4c-4.6-4.4-10.5-8.2-16.3-11.2c-1,2.6-2.5,5.4-4.6,8.2
	c-2.3,3.1-5,5.7-7.7,7.7c6.3,2.7,12.5,5.6,18.6,9.3C673.8,125.9,675.1,124.7,676.3,123.4L676.3,123.4z"/>
<path class="st11" d="M391.2,137.9L391.2,137.9c5,0,9.9,0,14.9,0.1c2.5,0,5,0,7.5,0.1c15,0.1,30.3,0.4,45.7,0.6
	c9.9,0.1,37.5,0.3,47.5,0.3v-34.8c0-5,4.1-9.1,9.1-9.1l28-0.2c5,0,9.1,4.1,9.1,9.1v33.6c3.6-0.2,13.9-0.4,17.3-1
	c0.5-0.1,0.9-0.2,1.4-0.3c1.4-0.3,2.8-0.6,4.1-1c0.8-0.2,1.5-0.5,2.2-0.7c1-0.4,2.1-0.8,3.1-1.2c1.3-0.6,2.6-1.2,3.8-1.9
	c4.1-2.3,8-5.3,11.2-9.3c1.1-1.2,2.1-2.5,3.1-3.8s1.9-2.6,2.8-3.9c1.4-2,2.7-4,4-6c1.8-2.7,3.5-5.4,5.3-7.9c2.2-3.2,4.6-6.3,7.3-9.2
	c1.6-1.9,3.3-3.7,5.1-5.4c0.6-0.6,1.2-1.1,1.8-1.7c-3.4-1.5-6.8-2.9-10.2-4.4c-35.2-14.9-72.6-5.4-109.6-6.8
	c-91.1-2-185.1-1.3-283.2,4.3c-3.7,0.2-7.3,0.4-11,0.6c-29,15.9-54.7,36.1-79.1,58.9c-1.4,1.6-9.8,8.8-11.2,9.5
	c-1.4,0.9-2.8,2.2-4.2,3.8c51.9,0.1,102.9,0.2,153.1,0.4c13.8-4.1,27-8.7,41.2-9.5C337.4,138.6,364,137.9,391.2,137.9L391.2,137.9z"
	/>
<g>
	<path class="st12" d="M83.8,106.4c0.5,0.2,1,0.3,1.6,0.3c2.4,0,4.4-2.4,4.4-5.2c0,0,0-0.1,0-0.1C88.3,103.3,86.1,104.9,83.8,106.4
		L83.8,106.4z"/>
	<path class="st12" d="M125.1,106.4c0.6,0.2,1.2,0.4,1.8,0.4c2.8,0,5.1-2.7,5.1-6c0,0,0-0.1,0-0.1
		C130.3,102.9,127.8,104.7,125.1,106.4z"/>
	<path class="st12" d="M166.5,106.4c0.6,0.3,1.3,0.4,2.1,0.4c3.2,0,5.8-3,5.8-6.7c0-0.1,0-0.1,0-0.1
		C172.3,102.4,169.5,104.5,166.5,106.4L166.5,106.4z"/>
	<path class="st12" d="M207.8,106.4c0.7,0.3,1.5,0.5,2.3,0.5c3.6-0.1,6.5-3.4,6.5-7.4c0-0.1,0-0.1,0-0.2
		C214.4,102,211.2,104.3,207.8,106.4L207.8,106.4z"/>
	<path class="st12" d="M249.1,106.4c0.8,0.3,1.7,0.5,2.6,0.5c4-0.1,7.2-3.7,7.2-8.2c0-0.1,0-0.1,0-0.2
		C256.4,101.6,252.9,104.1,249.1,106.4L249.1,106.4z"/>
	<path class="st12" d="M290.5,106.4c0.9,0.4,1.8,0.6,2.8,0.6c4.4-0.1,7.9-4.1,7.9-8.9c0-0.1,0-0.1,0-0.2
		C298.4,101.1,294.6,103.9,290.5,106.4z"/>
	<path class="st12" d="M331.8,106.4c1,0.4,2,0.6,3.1,0.6c4.7-0.1,8.6-4.4,8.6-9.7c0-0.1,0-0.1,0-0.2
		C340.5,100.7,336.3,103.6,331.8,106.4L331.8,106.4z"/>
	<path class="st12" d="M373.1,106.4c1,0.4,2.1,0.7,3.3,0.7c5.1-0.1,9.3-4.7,9.3-10.4c0-0.1,0-0.2,0-0.2
		C382.5,100.2,378,103.4,373.1,106.4z"/>
	<path class="st12" d="M414.5,106.3c1.1,0.5,2.3,0.7,3.5,0.7c5.5-0.1,10-5.1,10-11.1c0-0.1,0-0.2,0-0.2
		C424.5,99.8,419.7,103.2,414.5,106.3L414.5,106.3z"/>
	<path class="st12" d="M455.8,106.3c1.2,0.5,2.5,0.8,3.8,0.8c5.9-0.1,10.6-5.4,10.6-11.9c0-0.1,0-0.2,0-0.2
		C466.5,99.3,461.4,103,455.8,106.3L455.8,106.3z"/>
</g>
<g>
	<path class="st13" d="M89.8,101.4c-0.1-2.8-2-5-4.4-5c-2.4,0.1-4.4,2.4-4.4,5.2c0,2.2,1.2,4,2.8,4.7
		C86.1,104.9,88.3,103.3,89.8,101.4z"/>
	<path class="st13" d="M132.1,100.7c-0.1-3.2-2.3-5.7-5.1-5.7c-2.8,0.1-5.1,2.7-5.1,6c0,2.5,1.4,4.6,3.3,5.4
		C127.8,104.7,130.3,102.9,132.1,100.7z"/>
	<path class="st13" d="M174.3,100c-0.1-3.6-2.6-6.4-5.8-6.4c-3.2,0.1-5.8,3.1-5.8,6.7c0,2.8,1.6,5.2,3.7,6.1
		C169.5,104.5,172.3,102.4,174.3,100L174.3,100z"/>
	<path class="st13" d="M216.6,99.3c-0.1-4-2.9-7.1-6.5-7.1c-3.6,0.1-6.5,3.4-6.5,7.4c0,3.1,1.7,5.7,4.2,6.8
		C211.2,104.3,214.3,102,216.6,99.3L216.6,99.3z"/>
	<path class="st13" d="M258.9,98.6c-0.1-4.4-3.3-7.8-7.2-7.8c-4,0.1-7.2,3.7-7.2,8.2c0,3.4,1.9,6.3,4.6,7.4
		C252.9,104.1,256.4,101.5,258.9,98.6L258.9,98.6z"/>
	<path class="st13" d="M301.1,97.8c-0.1-4.8-3.6-8.6-7.9-8.5c-4.3,0.1-7.9,4.1-7.9,8.9c0,3.7,2.1,6.9,5,8.1
		C294.6,103.8,298.4,101.1,301.1,97.8L301.1,97.8z"/>
	<path class="st13" d="M343.4,97.1c-0.1-5.2-3.9-9.3-8.5-9.2c-4.7,0.1-8.5,4.4-8.5,9.7c0,4.1,2.3,7.5,5.5,8.8
		C336.3,103.6,340.4,100.7,343.4,97.1L343.4,97.1z"/>
	<path class="st13" d="M385.7,96.4c-0.1-5.6-4.2-10-9.2-9.9c-5.1,0.1-9.2,4.7-9.2,10.4c0,4.4,2.5,8,5.9,9.5
		C378,103.4,382.5,100.2,385.7,96.4z"/>
	<path class="st13" d="M428,95.7c-0.1-6-4.5-10.7-9.9-10.6c-5.5,0.1-9.9,5.1-9.9,11.1c0,4.7,2.6,8.6,6.4,10.1
		C419.7,103.2,424.5,99.8,428,95.7z"/>
	<path class="st13" d="M470.2,95c-0.1-6.4-4.8-11.4-10.6-11.3c-5.9,0.1-10.6,5.4-10.6,11.9c0,5,2.8,9.2,6.8,10.8
		C461.4,103,466.6,99.3,470.2,95L470.2,95z"/>
</g>
<path class="st14" d="M581.3,133.3c-1,0.4-2,0.8-3.1,1.2C579.3,134.1,580.3,133.8,581.3,133.3z"/>
<path class="st14" d="M585.2,131.5c4.1-2.3,8-5.3,11.2-9.3c1.1-1.2,2.1-2.5,3.1-3.8c-1,1.3-2,2.6-3.1,3.8
	C593.1,126.2,589.3,129.2,585.2,131.5z"/>
<path class="st14" d="M606.3,108.4c-1.3,2-2.6,4-4,6C603.7,112.5,605,110.4,606.3,108.4z"/>
<path class="st14" d="M611.6,100.5c-1.8,2.6-3.5,5.3-5.3,7.9C608.1,105.8,609.8,103.1,611.6,100.5z"/>
<path class="st14" d="M618.9,91.3c-2.7,2.8-5.1,5.9-7.3,9.2C613.8,97.2,616.2,94.1,618.9,91.3c1.6-1.9,3.3-3.7,5.1-5.4
	C622.2,87.6,620.5,89.4,618.9,91.3z"/>
<path class="st14" d="M585.2,131.5c-1.2,0.7-2.5,1.3-3.8,1.9C582.6,132.8,583.9,132.2,585.2,131.5z"/>
<path class="st14" d="M602.3,114.4c-0.9,1.3-1.9,2.6-2.8,3.9C600.4,117.1,601.4,115.8,602.3,114.4z"/>
<path class="st0" d="M506.9,138.9c-10.1,0-37.6-0.2-47.5-0.3c-15.4-0.2-30.7-0.5-45.7-0.6c-2.5,0-5,0-7.5-0.1c-5,0-10-0.1-14.9-0.1
	h0c-27.2,0-53.8,0.7-79.9,3.1c-14.2,0.8-27.5,5.4-41.2,9.5l0,0c74.9,0.3,165.4,0.8,236.7,1.4L506.9,138.9L506.9,138.9z"/>
<path class="st0" d="M459.4,138.6c-15.4-0.2-30.7-0.5-45.7-0.6C428.7,138.1,443.9,138.4,459.4,138.6z"/>
<path class="st0" d="M578.2,134.5c-0.7,0.3-1.5,0.5-2.2,0.7C576.8,135,577.5,134.8,578.2,134.5z"/>
<path class="st0" d="M576,135.2c-1.4,0.4-2.7,0.7-4.1,1C573.3,136,574.7,135.6,576,135.2z"/>
<path class="st0" d="M311.4,141c26.1-2.4,52.6-3.1,79.9-3.1C364,137.9,337.4,138.6,311.4,141c-14.2,0.8-27.5,5.4-41.2,9.5l0,0
	C283.9,146.5,297.2,141.8,311.4,141z"/>
<path class="st0" d="M553.1,137.6c3.6-0.2,13.9-0.4,17.3-1C567,137.2,556.7,137.4,553.1,137.6L553.1,137.6z"/>
<path class="st0" d="M391.3,137.9c5,0,9.9,0,14.9,0.1C401.2,137.9,396.2,137.9,391.3,137.9z"/>
<path class="st0" d="M459.4,138.6c9.9,0.1,37.5,0.3,47.5,0.3l0,0C496.8,138.9,469.3,138.7,459.4,138.6z"/>
<path class="st15" d="M270.2,150.5c-0.7,0.2-1.4,0.4-2.1,0.6c-7.9,2.8-15.6,5.6-23.2,8.6l262,8.1v-15.9
	C435.6,151.3,345,150.8,270.2,150.5L270.2,150.5z"/>
<path class="st15" d="M553.1,152.4V170l100.8,3.3c8.6,0.1,18.7,0.7,27.9,0c3.2-3.5,6-7.3,8.3-11.4c-30.7-4.1-61.5-8.9-93.2-8.9
	C584.7,152.9,565.6,152.6,553.1,152.4L553.1,152.4z"/>
<path class="st7" d="M547.8,137.7c1.8,0,3.5,0,5.3-0.1v-33.6c0-5-4.1-9.1-9.1-9.1l-28,0.2c-5,0-9.1,4.1-9.1,9.1v34.8
	C528.2,139,525.7,138.6,547.8,137.7L547.8,137.7z"/>
<path class="st15" d="M506.9,138.9v13c23.7,0.2,22.9,0.2,46.2,0.5v-14.9c-1.8,0.1-3.5,0.1-5.3,0.1
	C525.7,138.6,528.2,139,506.9,138.9L506.9,138.9z"/>
<path class="st13" d="M547.8,137.7c-22.2,0.9-19.6,1.4-40.9,1.3l0,0C528.2,139,525.7,138.6,547.8,137.7c1.8,0,3.5,0,5.3-0.1l0,0
	C551.4,137.6,549.6,137.7,547.8,137.7z"/>
<path class="st4" d="M506.9,151.9v15.9l46.2,2.1v-17.6C529.8,152.2,530.6,152.2,506.9,151.9z"/>
<path class="st4" d="M395,174.5c8.3-16.4,20.5-35.5,37.7-44.9c-4.5-0.2-9.3-0.2-14.1-0.2c-22.7,0.3-40.9,3.4-53,6.1l-42.6,145.8
	c3.8-2.4,7.4-5,10.9-8C366.2,246.2,377.1,209.4,395,174.5L395,174.5z"/>
<path class="st3" d="M432.8,129.6c-17.3,9.3-29.4,28.4-37.7,44.9c-17.9,34.9-28.9,71.8-61.1,98.9c-3.5,3-7.1,5.6-10.9,8l-1.9,6.6
	l0,0c104.6,15.5,137.2-83,148.3-119.1l10.2-33.4C468.4,133,452.2,130.4,432.8,129.6L432.8,129.6z"/>
</svg>
