<?xml version="1.0" encoding="UTF-8"?>
<svg id="Capa_1" data-name="Capa 1" xmlns="http://www.w3.org/2000/svg" viewBox="0 0 714.98 289.58">
  <defs>
    <style>
      .cls-1 {
        fill: #fff;
      }

      .cls-2 {
        fill: #2996c2;
      }

      .cls-3 {
        fill: #29b1ff;
      }

      .cls-4 {
        fill: #333;
      }

      .cls-5 {
        fill: #e6e6e6;
      }

      .cls-6 {
        fill: #008ebc;
      }

      .cls-7 {
        fill: none;
      }

      .cls-8 {
        fill: #999;
      }

      .cls-9 {
        fill: #ccc;
      }

      .cls-10 {
        fill: #b3b3b3;
      }

      .cls-11 {
        fill: #007fab;
      }

      .cls-12 {
        fill: #1a1a1a;
      }

      .cls-13 {
        fill: #00d0bc;
      }

      .cls-14 {
        fill: #00a99d;
      }

      .cls-15 {
        fill: #29abe2;
      }

      .cls-16 {
        fill: #f2f2f2;
      }
    </style>
  </defs>
  <path class="cls-15" d="m403.2,73.16l-75.72,2.02v-30.02l75.72-3.04c8.57-.34,15.57,6.37,15.57,15h0c0,8.63-7,15.81-15.57,16.04Z"/>
  <path class="cls-4" d="m326.85,74.41c.58.49,1.32.75,2.26.73,4.7-.13,8.52-6.98,8.52-15.3,0-1.69-.17-3.31-.46-4.82-8.64,1.04-10.11,10.89-10.33,19.39Z"/>
  <path class="cls-12" d="m329.12,45.1c-4.68.19-4.42,6.89-4.42,15.17,0,6.61-.16,12.21,2.16,14.14.22-8.5,1.68-18.35,10.33-19.39-1.14-5.91-4.32-10.07-8.06-9.92Z"/>
  <path class="cls-6" d="m32.14,56.65h0c36.6-4.52,44.39,19.08,46.92,27.62l2.32,7.83-38.31,2.03-10.93-37.49Z"/>
  <path class="cls-6" d="m420.71,36.09c9.04-1.79,17.36-.97,25.33,1.08-17.28-23.58-49.48-45.2-111.81-34.23h0s17.79,59.1,17.79,59.1c14.26-.1,28.3-1.25,42.04-4.85,9.9-2.67,13.85-17.59,26.65-21.1Z"/>
  <path class="cls-11" d="m446.04,37.17c-7.97-2.05-16.3-2.87-25.33-1.08-12.8,3.51-16.75,18.43-26.65,21.1-13.75,3.61-27.79,4.76-42.04,4.85l13.87,46.08,105.5-10.47-7-22.2c-2.86-9.08-7.92-24.07-18.34-38.28Z"/>
  <path class="cls-15" d="m420.17,214.26l-94.12-3.23v-42.61l94.12,1.43c12.38.19,22.51,10.38,22.51,22.77h0c0,12.38-10.13,22.08-22.51,21.65Z"/>
  <path class="cls-12" d="m332.95,173.87c-1.9-3.36-4.39-5.42-7.11-5.46-5.9-.09-5.58,9.43-5.58,21.17s-.32,21.24,5.58,21.44c.98.03,1.93-.2,2.83-.66-2.46-12.26-.53-24.91,4.28-36.48Z"/>
  <path class="cls-4" d="m336.59,189.98c0-6.39-1.41-12.15-3.65-16.11-4.81,11.57-6.75,24.22-4.28,36.48,4.56-2.32,7.93-10.51,7.93-20.38Z"/>
  <path class="cls-8" d="m62.55,88.85c-20.5-5.73-40.57-1.49-60.24-.23v35.61l11.75,4.46c7.96-4.98,15.13-12.79,21.95-20.17,7.69-8.52,18.04-11.78,26.54-19.67Z"/>
  <path class="cls-10" d="m15.69,9.78c0-.41.07-.77.17-1.11-.22-.34-.44-.68-.66-1.03-2.37-3.6-12.89,3.38-12.89,22.76v58.22c2.83-.18,5.66-.43,8.51-.69,10.75-22.25-2.16-52.5,4.87-78.16Z"/>
  <path class="cls-8" d="m80.96,162.51l23.12.86c4.18-1.82,8.72-8.56,13.03-13.24-20.12-.03-40.38-.05-60.76-.06l24.62,12.44Z"/>
  <path class="cls-10" d="m62.55,88.85c-8.49,7.89-18.84,11.15-26.54,19.67-6.82,7.37-13.99,15.18-21.95,20.17l42.29,21.38c20.38.01,40.64.04,60.76.06,1.45-1.57,2.86-2.92,4.23-3.76,1.39-.79,9.79-7.94,11.2-9.54,24.48-22.81,50.14-43.01,79.14-58.87-56.1,2.78-113.18,1.92-170.6,8,7.11.11,14.27.88,21.48,2.9Z"/>
  <path class="cls-9" d="m226.5,70.67l-181.3,7.38S38.8,44,15.87,8.67c-.11.34-.17.7-.17,1.11-7.03,25.66,5.88,55.91-4.87,78.16,9.98-.93,20.06-2.14,30.25-1.98,57.43-6.08,114.51-5.22,170.6-8,3.95-2.16,7.97-4.25,12.05-6.25.92-.53,1.85-.83,2.77-1.05Z"/>
  <path class="cls-16" d="m418.46,62.86l-191.97,7.81c-.92.21-1.85.52-2.77,1.05-4.08,2-8.09,4.08-12.05,6.25,3.68-.18,7.35-.37,11.01-.59,98.06-5.58,192.06-6.33,283.2-4.28,37,1.36,74.47-8.19,109.63,6.75,3.47,1.45,6.88,2.91,10.25,4.4,2.97-2.69,6.11-5.15,9.4-7.39-52.82-18.47-124.2-14.99-216.7-13.99Z"/>
  <path class="cls-9" d="m104.08,163.38l140.81-3.62c7.56-3.05,15.28-5.87,23.19-8.62.7-.2,1.39-.41,2.09-.61-50.18-.19-101.2-.31-153.06-.39-4.3,4.68-8.85,11.42-13.03,13.24Z"/>
  <path class="cls-3" d="m635.16,76.84c-3.28,2.24-6.43,4.7-9.4,7.39,22.45,9.9,42.94,20.91,63.29,36.58,2.64,2.64,6.24,3.83,9.74,5.7-.05-1.61-.15-3.21-.32-4.82-16.75-21.83-37.68-35.88-63.3-44.84Z"/>
  <path class="cls-1" d="m714.33,147.15c-4.79-9.48-10.08-17.93-15.86-25.47,1.43,14.01-1.39,28.22-8.25,40.26,6.77.9,13.53,1.76,20.28,2.53,3.97-3,5.47-7.53,3.83-17.33Z"/>
  <path class="cls-9" d="m690.21,161.95c-2.32,4.06-5.09,7.88-8.32,11.36,5.66-.42,11.03-1.3,15.61-3.05,5.56-2.12,9.99-3.51,12.99-5.78-6.75-.77-13.51-1.63-20.28-2.53Z"/>
  <path class="cls-11" d="m395.05,174.47c8.31-16.42,20.45-35.53,37.71-44.85-4.54-.17-9.26-.24-14.15-.18-22.73.3-40.88,3.36-52.97,6.08l-42.58,145.78c3.78-2.38,7.43-5.02,10.91-7.97,32.19-27.08,43.18-63.96,61.07-98.87Z"/>
  <path class="cls-6" d="m432.76,129.62c-17.26,9.32-29.41,28.42-37.71,44.85-17.89,34.91-28.88,71.79-61.07,98.87-3.49,2.95-7.13,5.59-10.91,7.97l-1.94,6.63h0c104.57,15.51,137.21-83,148.3-119.14l10.24-33.38c-11.29-2.39-27.43-5.05-46.91-5.8Z"/>
  <path class="cls-6" d="m28.18,177.58h0c44.3,6.64,52.25-27.6,54.77-39.99l2.31-11.37-46.24-2.87-10.85,54.23Z"/>
  <path class="cls-12" d="m5.41,89.17c-.43-.42-.95-.68-1.56-.7-3.67-.15-2.62,7.96-3.05,17.72-.43,9.75-2.17,17.42,1.49,17.63.23.01.45,0,.66-.06-2.91-11.57-1.86-23.84,2.47-34.59Z"/>
  <path class="cls-15" d="m698.78,126.5c-3.5-1.87-7.1-3.06-9.74-5.7-20.35-15.66-40.84-26.68-63.29-36.58-.6.55-1.2,1.11-1.79,1.67-1.77,1.7-3.46,3.5-5.07,5.41-2.69,2.83-5.07,5.93-7.32,9.17-1.8,2.59-3.53,5.26-5.27,7.95-1.31,2.01-2.63,4.03-4.01,6.02-.92,1.33-1.86,2.64-2.84,3.93-.98,1.29-2,2.56-3.06,3.8-3.3,3.99-7.11,7.02-11.25,9.3-1.24.68-2.52,1.3-3.82,1.85-1.01.43-2.04.82-3.09,1.18-.74.26-1.49.5-2.24.72-1.36.4-2.74.74-4.14,1.04-.47.1-.93.19-1.4.28-3.45.65-13.78.83-17.34,1v14.88c12.44.14,31.61.47,43.94.63,31.6-.05,62.49,4.8,93.15,8.89,6.08-10.66,8.98-23.03,8.57-35.44Z"/>
  <path class="cls-4" d="m5.41,89.17C1.08,99.92.03,112.19,2.94,123.76c3.13-.75,3.93-8.51,4.33-17.67.36-8.14.29-14.81-1.87-16.92Z"/>
  <path class="cls-5" d="m634.4,126.48c5.48,3.9,10.99,7.82,16.53,11.75,4.16-1.23,13.69-4.47,21.54-11.18-6.06-3.74-12.32-6.66-18.61-9.32-8.02,6.15-16.66,8.17-19.45,8.75Z"/>
  <path class="cls-5" d="m682.46,112.97c.22-.95.37-1.94.4-2.99.07-2.21-.35-4.04-.74-5.27-4.61-3.69-9.2-7.37-13.78-11.03-.33,2.1-.95,4.93-2.22,8.08,5.88,2.99,11.77,6.76,16.34,11.2Z"/>
  <path class="cls-16" d="m676.27,123.36c2.18-2.44,5.13-5.83,6.19-10.39-4.57-4.44-10.45-8.21-16.34-11.2-1.04,2.59-2.51,5.4-4.61,8.23-2.31,3.11-4.95,5.65-7.65,7.73,6.29,2.66,12.55,5.59,18.61,9.32,1.32-1.13,2.61-2.35,3.8-3.69Z"/>
  <path class="cls-5" d="m391.23,137.89h.02c4.95,0,9.92.01,14.91.05,2.49.02,5,.04,7.5.06,15.03.14,30.26.4,45.7.6,9.93.13,37.45.3,47.55.34v-34.77c0-5.03,4.08-9.11,9.11-9.11l27.99-.24c5.03,0,9.11,4.08,9.11,9.11v33.62c3.56-.17,13.89-.35,17.34-1,.47-.09.94-.18,1.4-.28,1.4-.3,2.78-.64,4.14-1.04.75-.22,1.5-.46,2.24-.72,1.04-.36,2.07-.75,3.09-1.18,1.3-.55,2.57-1.17,3.82-1.85,4.14-2.28,7.95-5.31,11.25-9.3,1.07-1.24,2.08-2.51,3.06-3.8.98-1.29,1.92-2.6,2.84-3.93,1.38-1.99,2.7-4,4.01-6.02,1.75-2.68,3.47-5.36,5.27-7.95,2.25-3.24,4.63-6.34,7.32-9.17,1.61-1.91,3.31-3.7,5.07-5.41.59-.57,1.19-1.13,1.79-1.67-3.37-1.49-6.78-2.95-10.25-4.4-35.15-14.94-72.62-5.39-109.63-6.75-91.14-2.04-185.14-1.3-283.2,4.28-3.67.22-7.34.41-11.01.59-28.99,15.86-54.65,36.06-79.14,58.87-1.41,1.6-9.81,8.75-11.2,9.54-1.37.85-2.79,2.19-4.23,3.76,51.87.07,102.88.2,153.06.39,13.76-4.06,27.03-8.73,41.21-9.51,26.06-2.4,52.65-3.1,79.85-3.13Z"/>
  <g>
    <path class="cls-14" d="m83.8,106.42c.49.21,1.02.34,1.58.33,2.44-.03,4.43-2.37,4.43-5.22,0-.04,0-.07,0-.11-1.53,1.91-3.67,3.52-6,5Z"/>
    <path class="cls-14" d="m125.13,106.41c.57.24,1.18.39,1.82.38,2.83-.04,5.12-2.71,5.12-5.96,0-.04-.01-.08-.01-.13-1.77,2.18-4.25,4.02-6.93,5.71Z"/>
    <path class="cls-14" d="m166.47,106.4c.64.27,1.34.44,2.07.43,3.21-.04,5.81-3.04,5.81-6.7,0-.05-.01-.09-.01-.14-2.01,2.45-4.82,4.51-7.87,6.41Z"/>
    <path class="cls-14" d="m207.8,106.39c.72.3,1.5.48,2.32.47,3.59-.05,6.5-3.38,6.5-7.43,0-.05-.01-.1-.01-.16-2.25,2.72-5.39,5.01-8.8,7.12Z"/>
    <path class="cls-14" d="m249.14,106.39c.8.33,1.66.53,2.56.52,3.97-.05,7.19-3.71,7.19-8.17,0-.06-.01-.11-.02-.17-2.49,2.99-5.96,5.51-9.74,7.83Z"/>
    <path class="cls-14" d="m290.47,106.38c.87.36,1.82.58,2.81.57,4.35-.06,7.88-4.05,7.88-8.91,0-.06-.02-.12-.02-.19-2.72,3.26-6.53,6.01-10.67,8.53Z"/>
    <path class="cls-14" d="m331.8,106.37c.95.39,1.97.63,3.06.61,4.73-.06,8.57-4.38,8.57-9.65,0-.07-.02-.14-.02-.2-2.96,3.53-7.1,6.5-11.6,9.24Z"/>
    <path class="cls-14" d="m373.14,106.36c1.03.43,2.13.68,3.3.66,5.11-.07,9.26-4.72,9.26-10.39,0-.08-.02-.15-.02-.22-3.2,3.8-7.68,7-12.54,9.95Z"/>
    <path class="cls-14" d="m414.47,106.35c1.1.46,2.29.72,3.55.71,5.49-.07,9.95-5.05,9.95-11.13,0-.08-.02-.16-.02-.24-3.44,4.07-8.25,7.5-13.47,10.65Z"/>
    <path class="cls-14" d="m455.81,106.34c1.18.49,2.45.77,3.79.76,5.87-.07,10.64-5.39,10.64-11.86,0-.09-.02-.17-.02-.25-3.68,4.34-8.82,8-14.41,11.36Z"/>
  </g>
  <g>
    <path class="cls-13" d="m89.8,101.42c-.05-2.8-2.01-5.01-4.42-4.96-2.44.05-4.41,2.38-4.41,5.22,0,2.19,1.18,4.03,2.83,4.74,2.33-1.48,4.47-3.09,6-5Z"/>
    <path class="cls-13" d="m132.06,100.71c-.06-3.19-2.32-5.72-5.11-5.67-2.82.05-5.1,2.72-5.1,5.96,0,2.5,1.36,4.6,3.28,5.42,2.69-1.69,5.16-3.53,6.93-5.71Z"/>
    <path class="cls-13" d="m174.33,99.99c-.07-3.59-2.63-6.43-5.8-6.37-3.2.06-5.79,3.05-5.79,6.7,0,2.81,1.55,5.17,3.72,6.09,3.05-1.9,5.86-3.96,7.87-6.41Z"/>
    <path class="cls-13" d="m216.6,99.27c-.08-3.98-2.95-7.14-6.49-7.08-3.58.06-6.48,3.39-6.48,7.43,0,3.12,1.73,5.74,4.16,6.77,3.41-2.11,6.55-4.4,8.8-7.12Z"/>
    <path class="cls-13" d="m258.87,98.56c-.08-4.38-3.26-7.85-7.17-7.79-3.96.07-7.17,3.72-7.17,8.17,0,3.43,1.91,6.31,4.6,7.44,3.78-2.32,7.25-4.84,9.74-7.83Z"/>
    <path class="cls-13" d="m301.14,97.84c-.09-4.77-3.57-8.56-7.86-8.49-4.34.07-7.86,4.06-7.86,8.91,0,3.74,2.1,6.89,5.05,8.11,4.14-2.53,7.95-5.27,10.67-8.53Z"/>
    <path class="cls-13" d="m343.41,97.13c-.1-5.17-3.88-9.27-8.55-9.2-4.72.07-8.55,4.39-8.55,9.65,0,4.05,2.28,7.46,5.49,8.79,4.5-2.74,8.64-5.71,11.6-9.24Z"/>
    <path class="cls-13" d="m385.68,96.41c-.11-5.57-4.2-9.98-9.24-9.9-5.1.08-9.23,4.73-9.23,10.39,0,4.36,2.47,8.03,5.93,9.46,4.86-2.95,9.34-6.15,12.54-9.95Z"/>
    <path class="cls-13" d="m427.95,95.69c-.12-5.96-4.51-10.69-9.93-10.61-5.48.08-9.92,5.06-9.92,11.12,0,4.67,2.65,8.6,6.38,10.14,5.23-3.15,10.03-6.58,13.47-10.65Z"/>
    <path class="cls-13" d="m470.22,94.98c-.12-6.36-4.82-11.4-10.61-11.32-5.86.09-10.61,5.4-10.61,11.86,0,4.98,2.84,9.18,6.82,10.81,5.59-3.36,10.73-7.02,14.41-11.36Z"/>
  </g>
  <path class="cls-7" d="m581.33,133.33c-1.01.43-2.04.82-3.09,1.18,1.04-.36,2.07-.75,3.09-1.18Z"/>
  <path class="cls-7" d="m585.15,131.48c4.14-2.28,7.95-5.31,11.25-9.3,1.07-1.24,2.08-2.51,3.06-3.8-.98,1.29-2,2.56-3.06,3.8-3.3,3.99-7.11,7.02-11.25,9.3Z"/>
  <path class="cls-7" d="m606.31,108.43c-1.31,2.01-2.63,4.03-4.01,6.02,1.38-1.99,2.7-4,4.01-6.02Z"/>
  <path class="cls-7" d="m611.58,100.49c-1.8,2.59-3.53,5.26-5.27,7.95,1.75-2.68,3.47-5.36,5.27-7.95Z"/>
  <path class="cls-7" d="m618.9,91.32c-2.69,2.83-5.07,5.93-7.32,9.17,2.25-3.24,4.63-6.34,7.32-9.17,1.61-1.91,3.31-3.7,5.07-5.41-1.77,1.7-3.46,3.5-5.07,5.41Z"/>
  <path class="cls-7" d="m585.15,131.48c-1.24.68-2.52,1.3-3.82,1.85,1.3-.55,2.57-1.17,3.82-1.85Z"/>
  <path class="cls-7" d="m602.3,114.45c-.92,1.33-1.86,2.64-2.84,3.93.98-1.29,1.92-2.6,2.84-3.93Z"/>
  <path class="cls-15" d="m506.92,138.94c-10.11-.04-37.62-.21-47.55-.34-15.44-.2-30.66-.46-45.7-.6-2.51-.02-5.01-.04-7.5-.06-4.99-.03-9.96-.05-14.91-.05h-.02c-27.21.03-53.79.73-79.85,3.13-14.18.78-27.45,5.45-41.21,9.51h0c74.86.28,165.41.77,236.74,1.43v-13.01Z"/>
  <path class="cls-15" d="m459.36,138.6c-15.44-.2-30.66-.46-45.7-.6,15.03.14,30.26.4,45.7.6Z"/>
  <path class="cls-15" d="m578.24,134.51c-.74.26-1.49.5-2.24.72.75-.22,1.5-.46,2.24-.72Z"/>
  <path class="cls-15" d="m576.01,135.23c-1.36.4-2.74.74-4.14,1.04,1.4-.3,2.78-.64,4.14-1.04Z"/>
  <path class="cls-15" d="m311.38,141.01c26.06-2.4,52.65-3.1,79.85-3.13-27.21.03-53.79.73-79.85,3.13-14.18.78-27.45,5.45-41.21,9.51h0c13.76-4.06,27.03-8.73,41.21-9.51Z"/>
  <path class="cls-15" d="m553.13,137.55c3.56-.17,13.89-.35,17.34-1-3.45.65-13.78.83-17.34,1h0Z"/>
  <path class="cls-15" d="m391.26,137.89c4.95,0,9.92.01,14.91.05-4.99-.03-9.96-.05-14.91-.05Z"/>
  <path class="cls-15" d="m459.36,138.6c9.93.13,37.45.3,47.55.34h0c-10.11-.04-37.62-.21-47.55-.34Z"/>
  <path class="cls-2" d="m270.17,150.52c-.69.2-1.39.41-2.08.61-7.92,2.75-15.63,5.57-23.19,8.62l262.02,8.15v-15.95c-71.33-.65-161.88-1.14-236.74-1.43Z"/>
  <path class="cls-2" d="m553.13,152.43v17.56l100.83,3.29c8.64.13,18.67.7,27.93.02,3.23-3.48,6.01-7.3,8.32-11.36-30.66-4.08-61.54-8.93-93.15-8.89-12.33-.16-31.5-.49-43.94-.63Z"/>
  <path class="cls-9" d="m547.84,137.67c1.76,0,3.53-.04,5.29-.12v-33.62c0-5.03-4.08-9.11-9.11-9.11l-27.99.24c-5.03,0-9.11,4.08-9.11,9.11v34.77c21.32.09,18.76-.35,40.93-1.27Z"/>
  <path class="cls-2" d="m506.92,138.94v13.01c23.69.22,22.9.22,46.21.48v-14.88c-1.76.08-3.52.12-5.29.12-22.17.92-19.6,1.36-40.93,1.27Z"/>
  <path class="cls-13" d="m547.84,137.67c-22.17.92-19.6,1.36-40.93,1.27h0c21.32.09,18.76-.35,40.93-1.27,1.76,0,3.53-.04,5.29-.12h0c-1.76.08-3.52.12-5.29.12Z"/>
  <path class="cls-11" d="m506.92,151.95v15.95l46.21,2.09v-17.56c-23.31-.27-22.52-.27-46.21-.48Z"/>
</svg>