<?xml version="1.0" encoding="UTF-8"?>
<svg id="Capa_1" data-name="Capa 1" xmlns="http://www.w3.org/2000/svg" viewBox="0 0 1341.59 269.75">
  <defs>
    <style>
      .cls-1 {
        fill: #f36f40;
      }

      .cls-2 {
        fill: #fff;
      }

      .cls-3 {
        fill: #f8a13b;
      }

      .cls-4 {
        fill: #bf002f;
      }

      .cls-5 {
        fill: #4d4d4d;
      }

      .cls-6 {
        fill: #f15a24;
      }

      .cls-7 {
        fill: #f7921e;
      }

      .cls-8 {
        fill: #333;
      }

      .cls-9 {
        fill: #e6e6e6;
      }

      .cls-10 {
        fill: #f7931e;
      }

      .cls-11 {
        fill: #fbb03b;
      }

      .cls-12 {
        fill: #f2f2f2;
      }

      .cls-13 {
        fill: #f86620;
      }
    </style>
  </defs>
  <path class="cls-4" d="m216.17,269.75c-57.74,0-112.02-14.03-152.85-39.5C22.49,204.77,0,170.9,0,134.87S22.49,64.98,63.31,39.5C104.14,14.03,158.43,0,216.17,0h909.26c57.74,0,112.02,14.03,152.85,39.5,40.83,25.47,63.31,59.34,63.31,95.37s-22.49,69.9-63.31,95.37c-40.83,25.47-95.11,39.5-152.85,39.5H216.17Z"/>
  <path class="cls-5" d="m253.03,70.96c-1.33-.36-2.74-.55-4.24-.55-4.33,0-7.96,1.44-10.88,4.31-2.92,2.87-4.38,6.37-4.38,10.5s1.46,7.63,4.38,10.5c1.98,1.94,4.28,3.21,6.91,3.84,9.77-6.71,13.55-18.32,8.21-28.61Z"/>
  <path class="cls-8" d="m259.52,74.72c-1.89-1.86-4.06-3.1-6.49-3.76,5.33,10.29,1.56,21.89-8.21,28.61,1.25.3,2.57.47,3.97.47,4.23,0,7.81-1.44,10.73-4.31,2.92-2.87,4.38-6.37,4.38-10.5s-1.46-7.63-4.38-10.5Z"/>
  <path class="cls-12" d="m285.67,182.54v-108.82h26.15v108.82h-26.15Z"/>
  <path class="cls-12" d="m335.69,182.54v-108.82h26.15v108.82h-26.15Z"/>
  <path class="cls-12" d="m527.78,76.75v26.3h-34.01v79.5h-28.72v-79.5h-34.01v-26.3h96.73Z"/>
  <path class="cls-12" d="m595.49,106.22c8.46,0,15.11,2.62,19.95,7.86,4.84,5.24,7.25,12.24,7.25,21.01v47.46h-26.3v-44.58c0-2.62-.86-4.71-2.57-6.27-1.71-1.56-3.98-2.34-6.8-2.34-5.54,0-10.38,2.57-14.51,7.71v45.49h-26.15v-105.79h26.15v40.35c5.74-7.25,13.4-10.88,22.97-10.88Z"/>
  <path class="cls-12" d="m671.35,154.73c3.22,6.25,9.67,9.37,19.34,9.37,6.95,0,13.7-1.91,20.25-5.74l8.16,17.83c-8.67,5.74-18.94,8.61-30.83,8.61-14.21,0-25.37-3.58-33.48-10.73-8.11-7.15-12.17-16.72-12.17-28.72s3.6-20.75,10.81-28.11c7.2-7.35,16.9-11.03,29.09-11.03,13.8,0,24.18,4.36,31.13,13.07,6.95,8.72,9.62,20.53,8.01,35.44h-50.33Zm-1.66-16.17h26.15c-.81-8.46-5.04-12.7-12.7-12.7s-11.94,4.23-13.45,12.7Z"/>
  <g>
    <path class="cls-9" d="m850.68,103.8c-3.5.68-7.12.96-10.82.98,1.3.24,2.64.51,4.12.51,2.23.74,5.01.38,6.7-1.5Z"/>
    <path class="cls-9" d="m875.8,162.91c1.21-.91,2.43-1.82,3.68-2.73,2.58-2.06,7.01-3.05,10.97-2.31,1.3-2.64,2.24-5.41,2.82-8.31-3.35.14-6.82,1.13-9.79,2.62-3.83,2.13-6.38,6.06-7.68,10.73Z"/>
    <path class="cls-9" d="m856.68,168.4c-3.01,2.51-1.24,5.27,1.02,8.53,5.11-4.01,9.01-7.13,13.98-10.57-5.52-1.89-10.03-2.48-15,2.04Z"/>
    <path class="cls-9" d="m875.06,167.37c.17-1.26.42-2.49.75-3.68-1.16.88-2.31,1.75-3.45,2.62.9.31,1.8.66,2.7,1.06Z"/>
    <path class="cls-9" d="m856,177.12c-1.32.93-2.67,1.85-4.05,2.76l5.36-.84c-.44-.66-.88-1.3-1.31-1.92Z"/>
    <path class="cls-9" d="m876.3,169.07c-.9-.4-1.8-.75-2.7-1.06-4.97,3.81-9.74,7.58-14.86,11.18.43.62.88,1.26,1.31,1.92l2.62-.41c5.04-.79,9.55-2.25,13.55-4.37-.26-2.45-.24-4.91.07-7.26Z"/>
    <path class="cls-9" d="m835.07,204.49l-1.46-9.38c-1.16,3.78-2.17,7.16,1.46,9.38Z"/>
    <path class="cls-9" d="m891.94,134.24c-1.69-10.85-6.63-19.16-14.82-24.91-1.88-1.32-3.84-2.44-5.86-3.36-5.45.92-11.29.37-16.76-1.24-1.25.37-2.53.65-3.82.9-1.69,1.88-4.47,2.24-6.7,1.5-1.47,0-2.81-.27-4.12-.51-1.71,0-3.43-.04-5.16-.12-.56.14-1.13.34-1.72.64-3.37,1.92-6.97,1.53-10.46.16l-31.9,4.98,17.06,109.29,27.62-9.19-1.16-7.45c-3.63-2.22-2.63-5.59-1.46-9.38l-2.15-13.78,21.43-3.34c1.38-.91,2.72-1.83,4.05-2.76-2.26-3.26-4.03-6.02-1.02-8.53,4.98-4.52,10.36-4.54,15.88-2.65,1.14-.87,2.28-1.75,3.45-2.62,1.3-4.66,3.85-8.6,7.68-10.73,2.98-1.49,6.44-2.48,9.79-2.62.89-4.45.96-9.2.17-14.27Zm-30.67,14.19c-2.14,2.63-5.16,4.25-9.03,4.85l-25.54,3.99-3.84-24.63,25.54-3.99c3.87-.6,7.24.04,10.09,1.94,2.85,1.9,4.57,4.74,5.16,8.53.56,3.59-.23,6.7-2.37,9.32Z"/>
    <path class="cls-9" d="m888.97,163.64c1.38-1.84,2.55-3.76,3.53-5.74-3.97-.75-8.4.25-10.97,2.31-1.25.91-2.47,1.82-3.68,2.73-.33,1.19-.58,2.42-.75,3.68,2.02.89,4.05,1.97,6.08,3.13,2.13-1.78,4.06-3.81,5.79-6.1Z"/>
    <path class="cls-9" d="m876.89,174.57c2.21-1.17,4.26-2.55,6.15-4.13-2.03-1.16-4.06-2.24-6.08-3.13-.31,2.36-.33,4.81-.07,7.26Z"/>
    <path class="cls-9" d="m832.82,105.45c.59-.3,1.16-.5,1.72-.64-1.65-.08-3.31-.19-4.97-.33l-7.22,1.13c3.5,1.37,7.1,1.76,10.46-.16Z"/>
    <path class="cls-9" d="m871.26,103.34c-3.68-1.68-7.59-2.73-11.75-3.12-1.63.76-3.3,1.38-5.01,1.88,5.47,1.61,11.31,2.16,16.76,1.24Z"/>
    <path class="cls-9" d="m858.22,99.07c-3.53-.33-7.23-.2-11.11.4l-18.67,2.91c10.43.88,20.82.86,29.78-3.32Z"/>
    <rect class="cls-11" x="914.71" y="88.46" width="26.15" height="108.82" transform="translate(-10.93 144.77) rotate(-8.87)"/>
    <path class="cls-9" d="m1014.72,109.42l1.37,8.8c-7.13-6.43-15.42-8.91-24.87-7.43-9.85,1.54-17.39,6.36-22.6,14.46-5.21,8.11-6.9,17.99-5.08,29.63,1.82,11.65,6.43,20.54,13.87,26.67,7.44,6.14,16.08,8.43,25.93,6.89s16.6-6.37,21.42-14.67l2.03,10.29,26.62,3.72-12.86-82.4-25.84,4.03Zm6.97,44.64c-2.7,6.24-7.14,9.84-13.3,10.8-4.68.73-8.67-.18-11.97-2.72-3.3-2.55-5.35-6.36-6.15-11.44s0-9.35,2.36-12.83c2.36-3.49,5.88-5.58,10.56-6.31,6.07-.95,11.39,1.13,15.96,6.22l2.54,16.27Z"/>
    <path class="cls-11" d="m1112.33,91.89c8.36-1.3,15.34.26,20.92,4.69,5.59,4.43,9.06,10.98,10.41,19.64l7.32,46.89-25.98,4.05-6.87-44.05c-.4-2.59-1.57-4.52-3.51-5.8-1.93-1.28-4.29-1.7-7.08-1.27-5.48.85-9.86,4.14-13.15,9.85l10.22,67.92-26.58-3.17-13.88-88.95,25.83-4.03,1.33,8.51c4.56-8.05,11.56-12.82,21.02-14.29Z"/>
    <path class="cls-9" d="m1231.06,86.2c-8.22-7.53-19.14-10.24-32.78-8.11-12.04,1.88-21.06,7.01-27.04,15.38-5.99,8.38-8.1,18.2-6.35,29.44,1.85,11.86,7.34,20.69,16.45,26.5,9.12,5.82,20.69,7.63,34.73,5.44,11.74-1.83,21.45-6.25,29.13-13.26l17.22-29.57c-5.89,4.8-24.02,23.32-38.01,26.67s-21.17-8.51-25.31-14.19l45.33-4.52c-.71-14.98-5.17-26.24-13.38-33.78Zm-40.48,25.82c.19-8.59,3.96-13.46,11.33-14.61s12.39,2.35,14.49,10.58l-25.83,4.03Z"/>
  </g>
  <polygon class="cls-12" points="246.41 108.49 235.64 115.27 235.64 182.54 261.79 182.54 261.79 108.49 246.41 108.49"/>
  <g>
    <polygon class="cls-12" points="128.95 182.54 142.7 182.54 142.7 173.88 128.95 182.54"/>
    <polygon class="cls-12" points="190.17 108.03 216.15 78.11 216.15 76.75 182.14 76.75 142.7 123.45 142.7 76.75 113.98 76.75 113.98 156.07 190.17 108.03"/>
    <polygon class="cls-12" points="169.05 157.26 185.62 182.54 217.05 182.54 217.05 181.18 192.08 142.74 169.05 157.26"/>
  </g>
  <g>
    <path class="cls-7" d="m242.96,71.75c-.55-.79-7.02,2.1-13.5,7.2-4.31,3.4-9.28,8.47-8.25,9.72.97,1.17,7.09-1.6,7.31-1.17.29.57-10.34,5.34-9.94,6.2.37.78,9.27-3.23,12.38-.33,1.29,1.21,1.06,3.13.94,4.19-.56,4.71-7.33,6.34-6.75,7.87.35.93,3.12,1.39,5.44.67,5.14-1.59,6.45-8.45,7.5-8.21,1.08.25-1.62,7.22,1.12,9.05,3.29,2.2,12.08-4.2,15-6.37,4.9-3.63,7.91-7.12,7.54-7.59-.41-.53-4.52,3.74-8.4,2.53-2.35-.74-2.09-2.69-5.5-4.62-3.06-1.73-4.46-.84-5.75-2.5-.91-1.18-.34-1.81-1.05-6.47-.52-3.44-.93-3.73-.7-5.15.51-3.15,2.96-4.5,2.61-5Z"/>
    <g>
      <path class="cls-3" d="m243.51,71.37c-.06-.01-.12.02-.15.08-.04.01.12.4.03.62.07.16.13.27.17.43l.06-.17s.04-.11.06-.23c.01-.11.03-.19,0-.32-.03-.14-.09-.29-.17-.41Z"/>
      <path class="cls-3" d="m242.14,73.15c-.06.33-.03.76.32.79-.09-.41.06-.38-.04-.86.13-.21.36-.26.43-.15-.01-.12.31-.26.24-.52-.41.13-.69.41-.79.88-.11.02-.13-.1-.16-.15Z"/>
      <path class="cls-3" d="m249.16,92.34s-.06-.08-.09-.12c.02.04.05.08.09.12Z"/>
      <path class="cls-3" d="m261.04,93.24c.04-.08.02-.13,0-.14-.01.07-.03.15,0,.14Z"/>
      <path class="cls-3" d="m259.25,94.86s.08-.06.12-.09c-.06.02-.11.05-.12.09Z"/>
      <path class="cls-3" d="m249.16,92.34l.21.33c.09-.06-.09-.19-.21-.33Z"/>
      <path class="cls-3" d="m241.34,76.26c0-.07,0-.14-.03-.21l-.02.18.05.02Z"/>
      <path class="cls-3" d="m243.21,90.05s-.09-.03-.14-.05c-.05.02-.11.04-.17.07.1,0,.21,0,.31-.02Z"/>
      <path class="cls-3" d="m240.64,85.18c0,.11.28.13.4.17-.12-.06-.18-.14-.21-.23-.05,0-.12.02-.19.07Z"/>
      <path class="cls-3" d="m240.02,77.13l-.02-.16s.02.11.02.16Z"/>
      <path class="cls-3" d="m246.61,91.13s-.01.08,0,.11c.01-.03.01-.07,0-.11Z"/>
      <path class="cls-3" d="m236.89,72.46s.02.03.02.04c.01-.04.01-.06-.02-.04Z"/>
      <path class="cls-3" d="m242.9,71.79l-.05-.02s-.06.08-.09.13c.03-.05.07-.08.14-.1Z"/>
      <path class="cls-3" d="m255.66,97.68s.01,0,.02,0c.07-.1.02-.05-.02,0Z"/>
      <path class="cls-3" d="m228.35,105.28c.45.24-.71.33-.04.6-.05-.1.58-.47.04-.6Z"/>
      <path class="cls-3" d="m241.27,76.36l-.04.18c.03-.08.03-.14.04-.18Z"/>
      <path class="cls-3" d="m228.31,105.88h0s.07.03.07.03c-.03-.01-.05-.02-.07-.03Z"/>
      <path class="cls-3" d="m247.08,103.88s.1.04.15.05c-.02-.02-.06-.04-.15-.05Z"/>
      <path class="cls-3" d="m253.89,99.8l-.18.09c.08-.03.13-.06.18-.09Z"/>
      <path class="cls-3" d="m243.62,105.98c-.1.01-.15,0-.27.07.02,0,.03.01.05.02.04-.05.09-.09.22-.09Z"/>
      <path class="cls-3" d="m239.96,106.41s.02.05.03.07c.03,0,.07.01.1.02l-.13-.09Z"/>
      <path class="cls-3" d="m225.94,80.38c.13,0,.23.02.32.05-.18-.1.26-.59-.32-.05Z"/>
      <path class="cls-3" d="m241.18,76.22c.06.04.09.08.08.14l.02-.13s-.07-.04-.11-.02Z"/>
      <path class="cls-3" d="m244.21,108.13c-.24.08-.49.13-.74.2.21-.04.49-.1.74-.2Z"/>
      <path class="cls-3" d="m221.04,94.55l-.15.07c.06,0,.12-.03.15-.07Z"/>
      <path class="cls-3" d="m241.1,108.79c-.16-.1-.33-.16-.5-.2-.04.02-.08.03-.11.06.21.06.4.09.61.14Z"/>
      <path class="cls-3" d="m226.26,80.43h0s0,0,0,0Z"/>
      <path class="cls-3" d="m229.44,76.96c-.54.4-.03.48-.02.73-.57.57-.46.01-.79.03-.34.39-.42.9-.72,1.12-.06-.03-.13,0-.11-.11-.22.56-1.2,1.03-1.41,1.71-.06,0-.09,0-.12-.01.2.07.33.2.41.32-.22.2-.26.54-.5.44.14-.12.09-.2.1-.31l-.16.29c-.44-.07.24-.38.06-.57-.38.49-.71,1.19-1.11,1.44-.31-.18.72-.84.06-.63l.62-.4c-.77-.02.35-.27-.41-.35-.78.59-.67.86-1.43,1.47-.02.29.25.15.23.43-.71,1.21-1.37.18-1.73,1.24,0,.35.25.7-.39,1.11l-.14-.44c-.32.36-.3.56-.3.74,0,.09,0,.18-.06.28-.06.11-.14.2-.42.5.06-.38.41-.79.29-.7-.16.09-.24.16-.3.24-.07.1-.09.2-.09.29,0,.17.04.32-.14.63-.14.01-.28.03-.42.05-.38.74-.5,1.48-.32,2.11.08.32.31.65.62.83.29.2.64.26.99.31-.13.08-.45.12-.17.29.51.05,1.08,0,1.66-.09.46-.08.92-.17,1.39-.26.74-.14,1.47-.25,2.13-.35l.39-.43c.11-.03.24.06.14.15.51-.04-.03-.19.17-.37.26-.1.4.06.26.19.18-.12.43-.26.62-.36.06-.03.08-.04.1-.06-.04-.08-.03-.52-.02-.67,0-.08.02-.16.05-.23-.02-.02.06-.07.02-.04-.05.01-.05-.01-.11-.04-.1-.04-.19-.09-.26-.16-.1-.07-.09-.13-.25-.25l-.08-.08h0s0,0,0,0c0,.01-.04.06-.08.1-.39.36-.99.68-1.46.77l.11-.16c-.69.25-.43.92-1.16,1.01l.09-.11c-1.47.64-2.91,1.7-4.21,1.92,0,.48-1.51.64-1.29,1.21-.48.12-.68.14-.92.19-.12.03-.25.07-.44.16-.1.06-.2.1-.35.2-.08.06-.15.1-.25.19-.12.15-.2.13-.41.56-.04.12-.07.14-.1.34-.03.21-.02.45.04.65.09.37.44.72.73.85.16.06.34.1.5.11.1,0,.17-.03.26-.05.3-.09.45-.24.7-.3l.06.3c.21-.14.39-.29.56-.44l.4.29.38-.17c-.16.02-.37-.05-.37-.15.59-.29,1.53-.16,1.59,0l1.35-.58c0,.13-.23.22-.4.34.68-.47.21.28.83-.14-.11-.05.01-.19.02-.25.38.11,1.14-.03,1.7-.18l-.08.22c1.01-.09,2.12-.32,3.09-.15-.33-.15-.22-.51.1-.49l.06.34c.23-.16-.29-.18.16-.35.37.14.14.42-.07.47.14,0,.3,0,.44.01-.01.1-.12.12-.17.23.1-.06.25.06.36.19.12.12.2.24.38.15l-.05.09c.46.4.66.64.79,1.37.28-.01.25.29.47.56-.05.32-.16.66-.27,1.04-.1.31-.21.63-.32.96-.05.51.17.22.23.5-.24-.06-.58.57-.55.16-.43.75-.56.95-1.32,1.93.17,0,.32-.08.32.04-.14.19-.46.26-.52.14l.03-.06c-.41.6-1.21.94-1.99,1.25l-.29.12c-.1.04-.17.07-.36.17-.32.17-.62.36-.91.55-.56.4-.9.85-.94,1.22l.02-.08c-.19.48-.24,1.02.06,1.54,0,.01,0,.03,0,.03.19.36-.02.16-.17.05-.07-.06-.13-.1-.14.04,0,0,0,.04,0,.08.33.38.63.64,1,.83.34.2.7.35,1.06.49.71.26,1.73.37,2.22.21.49.37,1.4.31,2.3.02.92-.28,1.77-.77,2.47-.94l-.16-.11c.21-.33.41-.15.65-.26-.11-.09-.4.08-.28-.12.57-.46,1.1-.95,1.61-1.46.25-.26.49-.52.73-.79l.34-.39s.11-.12.14-.14c.24-.17.28.02.23.28-.02.08.13-.65.3-1.29.08-.32.17-.61.23-.75.05-.15.17-.11.07.37-.15.34-.3.71-.43,1.09.32-.61.25-.24.22-.05-.04.26-.08.36.09.62-.08-.04-.18-.02-.17-.06-.06.06-.09,0-.1.14,0,.18.01.37.05.56.08.37.23.67.33.66.03.35-.16.11-.22.34-.06.54.65,1.15.6,1.51,0,.07-.15-.11-.21-.19.12.14.34.54.59.82.26.28.49.43.44.2.35.41.84.66,1.28.77.44.13.84.15,1.2.26.47-.26,1.49.07,1.55-.39.03.48,1.45.05,1.81-.33-.11.18.44,0,.33.23.52-.19.94-.47.77-.64,1.14.11,1.59-1.22,2.38-.86,1.24-.96,2.37-1.84,3.48-2.69.21.41-1.26.86-.96,1.23,1.02-.86,1.43-1.6,2.55-2.25.31-.14-.04.27-.09.4.97-.9,2.07-1.43,2.86-2.32.02.04-.05.15-.12.25.18-.15.47-.27.32-.42l-.14.18c-.47-.02.34-1.05.27-1.2.06.7.99-.6.97.37.09-.12.18-.32.07-.4.2-.11.31-.09.23.17.57-.61.2-.59.77-1.07.06.08-.03.2-.01.34.16-.39.32-.78.85-1.14.01.07.12.08-.02.2.79-.75,1-1.62,1.96-2.34.07.55.38-.2.7,0l.35-.57-.31.08c.39-.43.49-.98.88-1.35l-.13.46c.2-.34.4-.58.57-1.18-.15.35-.31.48-.47.66.08-.32-.04-.37-.1-.41-.08-.07-.06-.03.09-.49,0,.05.02.05.02-.05,0-.04,0-.12-.07-.22-.09-.1-.2-.14-.3-.14-.32.02-.53.12-.73.09h0c-.19.24-.36.5-.75.64-.15-.05-.15-.39-.25-.43-.06.41-1.03.73-1.16,1.18.06-.12-.03-.3-.08-.31l-.07.33c-.26.05-.31.03-.34-.13-.68.28.42.33-.46.52.05-.05,0-.07.12-.16-.82.27-1.51.79-2.32.78-.27-.33.64-.21.33-.47-.51.14-1.04.3-1.58.33-.54.04-1.13-.06-1.53-.36.04.05.1.08.15.12-.19.21-.34.04-.48-.17-.14-.23-.24-.5-.52-.63.12.07.33-.07.26-.06-.41-.55-1.07-1.19-2.1-1.96h.21c-.27-.43-.95-.92-1.37-1.26-.21.02-.46-.15-.4.11-.48-.77-1.27-1.05-2.03-1.2-.76-.16-1.51-.19-2.11-.65.16.03.41-.03.28-.06-.4-.05-.77-.08-1.09-.16,0,.24.07.18.25.42-.17.1-.52.1-.78-.04.53.08.13-.33.07-.53-.01.08-.11.1-.13.17-.1-.32-.17-.24-.3-.18-.12.07-.31.13-.46-.28l.12-.04c-.23-.18-.53-.35-.6-.68.2-.2.23.25.44.16-.19-.3-.74-.69-.5-1.16.09.2.12.48.23.64.23-.47.17-.51.19-.85v.03s.09-.82.09-.82l-.07.21c-.73-.56-.2-1.23-.75-2,.51.74.26.11.57.13.06-.22.12-.55.22-.47-.29-.36.12-.67-.32-1.17.09-.04-.05-.41.21-.36-.15-.49-.15.14-.28.12-.44-.71.11-1.89-.57-2.89-.37-.9-.79-.95-.96-1.85.17-.28.35.25.35.24.13-.43.17-.75.15-1.2.07.1.15.03.29-.07.08-.32-.29-.32,0-.7.07.11.2.26.26.44.02-.39,0-.82.12-1.23.2-.02.11.34.16.51.1-.44.43-1.1.3-1.37-.09.07-.17.13-.25.2.08-.16.24.05.21.18-.04.44-.36.45-.47.42l.09-.3c-.67,0-.5,1.15-.65,1.7l-.33-.36c.05.24.1.48.18.71-.13.11-.38.17-.38-.16-.3.42.06.42-.21.8-.04.04-.06.02-.07-.02.03.16.06.32.11.47-.09-.09-.3.09-.23-.21-.23.94.49,1.31.22,1.67l-.04-.06c.37,1.05.32.04.84.78l-.63.69.32.05c0,.11.03.34-.1.32.28.38.12-.09.35.11-.18.58.36,1.48-.1,1.67.26.16.1-.54.35.01-.5.23.18.66,0,1.19-.28-.12-.19-.61-.38-.09.49.25,0,.97.11,1.38.37,0,.2.9.38,1.62-.06-.02-.1.32-.04.82.05.51.37,1.09.58,1.4l-.06.02c.35-.11.87.49,1.44.62-.11.19-.24.25-.58.16.17.1.35.19.53.26.17-.06.35-.06.67-.02l-.2.23c.68.17,1.34-.04,2.02.36.13-.23-.41-.87.47-.78-.01.14-.06.37-.28.36.07,0,.28-.03.4.08l-.39.11c.3.21.24-.13.5,0-.07.18.14.21.05.34-.07,0-.2-.17-.32-.13.28.14.59.39.63.58.02-.11.11-.24.33-.17.54.25.07.3.33.55.19-.06.44.26.6.01.15.09.1.22.12.33.33.04,1.15.79,1.08.34l-.05-.07s.03.01.05.02h0s0,0,0,0c.49.21.85.61,1.15,1.05.3.44.55.92.96,1.3l-.08.06c.5.44,1.2,1.02,1.74.99.18.07.38.33.26.42.54.08.6,0,1.33.25-.55.11.17.18-.56.06.67.18.88.34,1.6.02-.24.28.57.27.88.1-.17-.02-.34-.05-.51-.09.36-.09.67-.15.98-.21l-.08.37c.76,0,1.3-.4,1.76-.77.46-.37.86-.71,1.46-.67.18-.38-.71.22-.57-.18.54-.25,1.32-.18,1.48-.28.39-.14.48-.33.56-.53.04-.1.08-.2.15-.29.04-.04.08-.08.12-.1.03-.02.03-.01.04-.02.01.04-.02-.11-.03-.12-.02-.04-.03-.09-.04-.14-.01-.1-.01-.21-.02-.24,0,.06,0,.13.01.21,0,.06.01.07,0,0-.01-.08-.02-.27,0-.29.05-.02-.1.04-.12.03.02.01.03.07.02.13-.28.47-.75.28-.65-.02.05-.1.09-.11.13-.1,0-.03,0-.06,0-.08-.01-.01-.07-.03.13.02.18.04.27.07-.25-.07-.07-.02.05.01.06.03-.12.05-.56.67-.61.41-.15.38.06.25.28.05-.53.43-.68.85-1.27,1.31.13-.04.31-.03.22.06-.86.69-.17.51-.67,1.08-.43.17-.19-.41-.63.22-.42.23-.29-.16-.22-.36-.34.64-1.04.76-1.36.98l.2-.31c-.12.19-.26.3-.39.42l.31.04c-.19.11-.32.23-.38.15-.06.26.39.19.19.64-.29.09-.58.66-.86.48.76-.49-.28-.18.27-.7-.09.12-.22.24-.41.34-.05,0-.02-.07.01-.12-.84.32-.07.53-.77,1.08-.02-.21-.37-.14-.46-.02.28-.22.32.13.14.44-.54.24-.43.46-.68.63l.31-.15c.01.21-.23.37-.52.65-.11-.09.24-.29.09-.26-.18.52-1,.34-1.38.87-.3.07-.22-.25-.47-.18-.43.59-.75.23-1.24.8.31.08.31,0,.01.49l.89-.82-.43.72c.3-.2.54-.56.74-.65-.19.37-.19.3.06.36-.61,0-.69.74-1.31.86l-.32-.5c-.86.26-1.1,1.1-2.13,1.55l.36-.1c0,.28-.57.39-.83.65-.07-.19-.3-.14-.49-.17.09.12-.71.38-.61.78h-.56c-.83.3-.65.97-1.47,1.25.15-.3-.26-.27.2-.64-.26.11-.5.18-.45.31-.19-.05-.62.54-.93.45-.08.12-.05.33-.36.41-.04-.03-.03-.09-.03-.09.03.1-.44.27-.11.4-.51-.17-1.07-.03-1.63.03-.55.07-1.11.01-1.29-.34-.46-.08-.9-.43-1.1-.88.07,0,.09-.04.11.05-.05-.65-.72-.19-.67-1.09.26-.47.23.42.31.13.31-.11.25-.33.18-.63-.04-.15-.08-.31-.09-.48-.01-.24.03-.52.14-.78l.03.23c.13-.4.1-.89.07-1.34-.03-.47-.08-.9-.02-1.46,0,0,.06-.03.11-.14-.34-.29-.47-.89-.52-1.42.17-.16.11.08.27-.41-.05-.21-.28.71-.34.21.09-.38.01-.89.01-1.18.15.13.2.26.25.39.05-.32-.02-.41-.16-.5-.07-.04-.19-.08-.29-.09-.11,0-.2.05-.26.05l.08-.17c-.64.31-.64.92-1.2,1.59l.03.15c-.36,1.21-.21-.1-.58,1-.03-.21-.07-.42-.11-.63-.13.31-.36.91-.57,1.49-.21.58-.42,1.1-.61,1.46.05-.58.56-1.82.92-2.84-.29.52-1,1.9-1.02,2.28.09-.21.18-.58.33-.7-.19.98-.49,1.69-.91,2.2-.26-.29-.57.04-.95.4-.37.36-.82.74-1.19.64-.36.45-.87.72-1.41.89-.55.16-1.13.23-1.77.33.54.54-.38.06-.25.66-.32.06-.45.05-.48.01-.17-.06-.33-.12-.49-.19-.14-.07-.18-.13-.24-.2-.03-.18.17-.12.17-.26-.17-.06,0-.26.07-.42-.12.21-.26.28-.25.19-.07.09-.12.18-.12.28-.27.1-.31-.02-.21-.12.08-.11.26-.2.18-.23-.02,0-.07-.02-.13-.03.11,0,.22,0,.33-.02-.11,0-.1-.06-.11-.11,0-.06-.04-.15-.13-.39.09.03.21.14.2.2-.03.04.35-.24.61-.46.28-.24.55-.5.82-.75.54-.51,1.03-1.02,1.55-1.3l.02.19c.17-.22.15-.53.49-.68.03.06.03.18.13.09.07-.15.3-.73.58-.99-.02.12-.03.25-.06.36.54-.54.76-1.15.84-1.72.08-.58.05-1.13.07-1.73.44.08.71-1,.75-1.65l.06.02c0-.92-.29-1.81-.83-2.52-.54-.71-1.31-1.18-2.12-1.46-.38-.46-1.27-.77-2.18-.86-.91-.1-1.85-.04-2.61-.08.24.06,0,.34-.25.42-.36-.05-.88.44-.9.03h.12c-.32-.36-1-.13-1.53-.03l.02.53c-1.52-.47-3.55,1.19-4.18.55-.03.05-.1.04-.08.11,0,.12,0,.25-.02.38-.02.13-.05.26-.04.31,0,.07-.03.14-.07.21-.05.07-.01.06-.05.08-.04.03-.01,0,.02,0,.04,0,0,.02.11.03.08.02.15.05.21.09.05.04.11.1.23.17l.15.11.07.05h0s-.02-.01-.02-.01c0-.02.01-.05.02-.07l.19.21c.2-.13.52-.31.79-.48.29-.18.61-.38,1.07-.68l-.09.29c.54-.29.28-1.1.78-1.4l.36.29c.96-.53,2.13-.73,2.93-1.59.01.06.04.19-.11.29.47-.23,1.94-.72,1.49-1.14.19.33,1.04-.53,1.5-1.03l.06.29c.14-.3.2-.48.31-.67.03-.05.07-.11.1-.16l.06-.09c.04-.06.08-.13.12-.2l.03-.06s.02-.04.04-.12c.04-.13.04-.31-.01-.45-.03-.13-.16-.27-.3-.36-.04-.02-.07-.04-.11-.06h-.05s-.1-.03-.1-.03c-.26-.03-.33.02-.46.04-.2,0-.24-.19.09-.16-.76-.02-.45.36-1.18.41l.2-.24c-.58.15-.5.23-.74.52-.31.22-1.06.26-1.21.04-.03.17-.27.46-.61.48-.07-.08.03-.17.08-.21-.48.04-.79.2-1.07.34-.17.07-.2.12-.31.14-.09.03-.19.02-.27-.04.02-.1,0-.14,0-.17.19-.02.31-.04.48-.07.22-.04.36-.07.33-.05-.07-.25-.63-.16-.27-.61-.29.17-.23.31-.38.46-.12.14-.35.24-.42.17,0-.03.02-.05.04-.1l.04-.03s-.08,0-.16.03c-.02-.06-.02-.11-.05-.15.25-.21.11-.25.15-.33-.38.12-.26-.07-.62.16.04-.03.03.02.03.11,0,.02,0,.04.03.05h-.03c0,.09.01.23.13.32-.27.09-.51-.03-.25-.3-.24.01-.44-.05-.53-.1.65-.45,1.08-.67,1.3-.57-.03-.02.13-.3.25-.49.13-.21.27-.42.4-.63.26-.42.48-.84.48-1.23.13-.24.32-.12.44-.13-.06.15-.19.27-.19.38.25-.48,1.03-1.15.87-1.5.59-.35-.03.5.58-.18v.17c1.67-.8,1.5-2.7,3.54-3.4-.14.05-.2.08-.27.05,1.96-1.17,3.56-3.12,5.75-3.89.6-.25.53-.48.77-.84l.28.19.4-.64c.7-.7,1.78-.17,2.61-1.13l-.23-.11c.4-.16,1.17-.7,1.21-.45.02-.05.04-.25.24-.22l.08.14c.28-.22.57-.44.86-.65.78-.15.12.6,1.15.32.17-.08.4-.23.48-.34,0-.01,0-.03,0-.04.02-.08.05-.18.05-.21.03-.1.1-.19.09-.19,0-.01.02-.02.02-.03h.01s0,0,0,0l-.23.16h0s0,0,0,0h0s0,0,0,0c.01,0,.02,0,.02-.02h0s0,0,0,0h0s.2-.14.2-.14h0s0,0,0,0c0,0,0,0-.01,0-.02.01-.03.03-.04.05-.02.02-.07.13-.06.11.02-.01-.03-.03-.04-.06-.05-.05-.12-.11-.13-.19.12-.03.25-.05.34-.03.07-.09.19-.15.32-.17.12-.04.21-.1.29-.17.05-.02.06-.1,0-.24-.03-.06-.07-.14-.14-.21-.04-.05-.1-.11-.18-.17-.3-.21-.65-.3-1.01-.33-.3.14-.55.3-.77.47l-.31-.14c.21-.07.42-.14.66-.2-.45-.11-.63.15-.83.35-.1-.09-.23-.14-.39-.13-.18.23-.36.45-.52.68-.15-.13.17-.46-.33-.36-.23.32.45.25,0,.59-.4-.06-.38-.25-.68.08-.1-.08-.06-.19.07-.31-.27.28-.85.47-.9.77-.44-.07-1.04.62-1.22.22-.05.15-.39.61-.67.79.26-.76-1.08.58-1.23.02-.14.63-1.27,1.02-1.79,1.67.02-.06.05-.17.12-.18-.39.21-.58.16-.87.24.17.36-.35.82-.52,1.23-.66,0,0-.57-.34-.77.2.25-.59.8-.29.91-.47.05-.36.12-.72-.02.23.44-.26.3-.36.74-.63.16-.4-.28-.84.24-.34.07.02-.42.02-.42Zm-7.67,12.71h0c-.17-.02-.31-.04-.4-.06.08.02.2.04.4.06Zm1.79-.13c-.23.04-.51.08-.8.11-.04-.1.05-.2.22-.22-.11.08.29.09.58.11Zm-.81-2.07c.06.02,0,.08-.07.14-.02-.02-.05-.04-.08-.08-.01,0-.03.01-.05.02.07-.03.13-.05.2-.07Z"/>
      <path class="cls-3" d="m222.26,87.55s-.02-.01-.02-.03c-.04.03-.07.06-.1.09.04,0,.08,0,.12-.01,0-.02,0-.03,0-.05Z"/>
      <path class="cls-3" d="m249.06,92.2l.02.02s-.02-.04-.02-.06c0,.02,0,.03,0,.04Z"/>
      <path class="cls-3" d="m219.57,95.01v-.07c-.05.03-.1.05-.15.08h.15Z"/>
      <path class="cls-3" d="m243.14,88.61s0-.06-.02-.1c0,.02,0,.06.02.1Z"/>
      <path class="cls-3" d="m242.11,86.4l.07-.44c-.05.19-.06.33-.07.44Z"/>
      <path class="cls-3" d="m242.08,84c-.05-.03-.09-.03-.12-.03h0s.13.03.13.03Z"/>
      <path class="cls-3" d="m255.15,101.21s-.05.04-.07.07c-.14.17-.04.07.07-.07Z"/>
      <path class="cls-3" d="m260.9,92.78c.09-.11.18-.21.32-.31-.25.09-.39.17-.32.31Z"/>
      <polygon class="cls-3" points="244.29 108.11 244.29 108.1 244.21 108.13 244.29 108.11"/>
      <path class="cls-3" d="m262.32,93.22s.03-.1.03-.2c0-.07,0-.16-.07-.29-.04-.11-.14-.22-.27-.29-.14-.08-.2-.08-.3-.09-.32,0-.39.07-.5.13.13-.02.2-.1.56-.06.07,0,.18.05.29.14.11.08.16.17.2.28.07.18.05.31.05.39Z"/>
      <path class="cls-3" d="m242.12,74.58l.06-.08s-.03-.02-.03-.03l-.03.11Z"/>
      <path class="cls-3" d="m242.15,74.46l.03-.11s-.05.08-.03.11Z"/>
      <path class="cls-3" d="m242.27,74.11l-.08.24c.05-.07.12-.15.08-.24Z"/>
      <path class="cls-3" d="m241.06,77.12l.1.04s-.05-.03-.1-.04Z"/>
      <path class="cls-3" d="m241.1,77.89c0-.2.18-.45.14-.7l-.08-.03c.13.13-.27.55-.06.73Z"/>
      <path class="cls-3" d="m240.58,81.97l-.05-.79c-.08.15-.2.36-.28,0-.16,1.03.21-.24.33.79Z"/>
      <path class="cls-3" d="m240.72,84.41c-.09-.41-.16.02-.22,0,.12.26.15.32.22,0Z"/>
      <path class="cls-3" d="m253.25,96.14l-.12.23c.39.07.03-.09.12-.23Z"/>
      <path class="cls-3" d="m256.6,94.74c-.11-.02-.22-.04-.32-.07l-.08.26c.14-.06.27-.12.4-.19Z"/>
      <polygon class="cls-3" points="259.19 95.61 259.07 95.72 259.54 95.36 259.19 95.61"/>
      <path class="cls-3" d="m240.54,106.3l.04.32c.19-.03.23-.39-.04-.32Z"/>
      <path class="cls-3" d="m237,98.14c-.03-.21-.25-.2-.43.32.2-.21.34-.14.43-.32Z"/>
      <polygon class="cls-3" points="222.43 91.75 222.67 91.59 222.19 91.79 222.43 91.75"/>
    </g>
  </g>
  <g>
    <path class="cls-3" d="m223.57,100.45c.03-.11-.12-.21-.27.01l.08.38.19-.39Z"/>
    <path class="cls-3" d="m221.94,101.17c-.09.36-.03.99.41,1.21-.13-.63.04-.54-.07-1.17.16-.21.41-.21.47-.07,0-.14.31-.24.27-.51-.4.04-.77.25-.89.79-.13-.02-.15-.18-.19-.26Z"/>
    <path class="cls-3" d="m200.24,113.63l.3.14c-.13-.1-.22-.14-.3-.14Z"/>
    <path class="cls-3" d="m186.47,120.61c.06-.12-.05-.37-.19-.59.01.21.03.4.19.59Z"/>
    <path class="cls-3" d="m182.52,119.41c.1.04.16.05.24.08-.2-.19-.33-.27-.24-.08Z"/>
    <path class="cls-3" d="m200.24,113.63l-.78-.38c.42.64.51.35.78.38Z"/>
    <path class="cls-3" d="m220.58,104.95c.03-.1.02-.22,0-.35-.02.09-.05.17-.08.24.03.04.05.07.07.11Z"/>
    <path class="cls-3" d="m205.04,108.76l.11-.06c-.1-.2-.23-.43-.39-.69l.28.75Z"/>
    <path class="cls-3" d="m209.44,106.02c-.14,0,.67,1.13,1,1.65-.29-.49-.39-.75-.36-.89-.16-.21-.36-.45-.64-.75Z"/>
    <path class="cls-3" d="m217.79,103.35l.05-.17s-.04.11-.05.17Z"/>
    <path class="cls-3" d="m201.54,110.25c-.17-.22-.33-.4-.43-.51.14.19.29.36.43.51Z"/>
    <path class="cls-3" d="m77.71,186.87c-.02-.06-.03-.09-.05-.14,0,.08,0,.13.05.14Z"/>
    <path class="cls-3" d="m70.71,184.95l.08-.04s0-.09-.02-.13l-.05.17Z"/>
    <path class="cls-3" d="m176.86,119.44s.03.02.04.03c-.05-.3-.08-.22-.04-.03Z"/>
    <path class="cls-3" d="m143.64,148.8c.81.43-.15,1.41.91,1.77-.22-.26-.15-1.69-.91-1.77Z"/>
    <path class="cls-3" d="m220.44,104.99c-.04.06-.08.13-.13.18.08-.06.12-.12.13-.18Z"/>
    <path class="cls-3" d="m144.55,150.57h0s.11.04.11.04c-.05-.02-.07-.03-.11-.04Z"/>
    <path class="cls-3" d="m168.89,127.18c.23.32.42.55.61.76-.13-.19-.3-.42-.61-.76Z"/>
    <path class="cls-3" d="m177.26,125.13l-.34-.15c.18.14.28.16.34.15Z"/>
    <path class="cls-3" d="m167.14,132.36c-.18-.08-.36-.31-.33.03.07.09.12.14.18.2-.11-.28-.12-.44.16-.22Z"/>
    <path class="cls-3" d="m163.52,134.93c.1.12.19.2.28.3.02-.05.04-.12.06-.17l-.34-.13Z"/>
    <path class="cls-3" d="m91.79,185.19c-.27-.42-.51-.89-.74-1.36.49,1.09-.04,1.6.74,1.36Z"/>
    <path class="cls-3" d="m220.33,104.64c.1.16.13.26.11.35.03-.05.05-.1.07-.15-.06-.09-.12-.17-.18-.2Z"/>
    <path class="cls-3" d="m175.91,146.83l-.83.04c.29.09.59.07.83-.04Z"/>
    <path class="cls-3" d="m121.28,171.26l-.06.27c.06-.01.09-.09.06-.27Z"/>
    <path class="cls-3" d="m173.28,148.05c-.5-.57-.85-.87-1.12-1.05.06.15.1.28.2.49l.92.56Z"/>
    <path class="cls-3" d="m91.04,183.82v.02s0-.02,0-.02Z"/>
    <path class="cls-3" d="m87.47,187.96c.74,0-.3-1.78-.52-2.83.64-.65.87,1.28,1.5,2.19.36-.53.12-2.32.53-2.32.15.31.26.41.32.82-.03-1.63,1.61-.33,1.47-2.48.11.17.2.34.27.49-.49-1-.89-2.02-1.15-2.77.28-.12.05-1.46.67-.15-.2.01,0,.56.07,1l.09-.67c1.02,1.87-.17.79.37,2.21.39-.75.46-2.6,1.13-2.19.85,1.93-.83.97.45,2.52l-1.01-.56c1.72,2.89-.53-.12,1.22,3,1.21.39.72-1.2,1.92-.85-.21-1.16-.71-1.62-.92-2.78.54-2.42,3.07,4.81,3.01,1.84-.28-1.44-1.23-4.1.02-2.93l.7,2.44c1.03-.02-.85-3.58.76-2.27.21,1-.4,1.02-.15,1.26,1.39,1.71-.11-1.49.37-1.65l.97,2.11c.85-.62,1.27-2.54,2.17-3.32.21.68.32,1.43.85,2.02.9-1.54,2.96-.78,4.82.06l-.35-2.14c.12-.03.59.79.63,1.22.81.53-.51-1.24-.6-2.1.22-.26.85.96.93,1.62.16-2.02.9-4.63,2.69-3.02l.08.66c1.03.41-.95-4.29.47-2.85l.03.4c1.84.02,2.69-2.55,4.95-.68-.47-1.31,0-1.26.4-1.35.4-.08.72-.29,0-1.95,1.54,1.06,1.59,1.81,3.13,1.93.34-.11-.46-2.24-.24-2.8l.73,1.52-.26-1.96,1.1,1.56.15-.65c-.17.03-.59-.42-.77-.86.22-1.03,1.75,0,2.08.65.21-.74.44-1.45.67-2.14.22.53.1.88.11,1.35,0-1.86.76,1.22.76-.49-.21-.21-.31-.77-.42-1.03.65.49,1.3-.13,1.65-.84l.28.85c.96-.63,1.66-2.05,2.68-2.85-.51,0-.98-1.19-.72-1.5l.6.87c-.1-.73-.5-.13-.45-1.14.45-.16.79.87.73,1.36l.3-.68c.17.25.13.48.28.86-.09-.7,1.24.24,1.04-.92l.16.24c1.02-.8,1.36-1.41,2.2-2.03-.32-.67.1-.74.09-1.43.75-.19,1.72-.15,2.48-.67.4-.62-.1-.61-.04-1.11.33.53,1.1.03.89.65.92-.61,1.18-.77,2.18-1.84-.25-.16-.46-.18-.48-.4.18-.21.63-.03.74.25l-.03.09c.48-.76,1.5-.75,2.49-.72.99.02,1.95.09,2.19-.78l-.03.09c.28-.39.55-.78.82-1.18.61-.12-.07.62.55.84.36-.79.89-.97,1.43-1.06.54-.1,1.09-.11,1.41-.71,1.02.93,1.79.7,2.52.32.74-.36,1.42-.91,2.51-.21l-.42-.61c-.04-.7.58.26.89.36-.31-.49-.66-.49-.66-.88,1.08-.76,2.53-.94,4.15-.85,1.62.09,3.44.48,5.04.55,1.15,0-2.15-4.79.32-3.04l.66,1.82c.38-1.32,1.36-1.66,2.38-1.94,1.01-.28,2.04-.53,2.34-1.92.16.5.51,1.08.32,1.15,1.23,1.25,1.47-.52.76-1.71.36,0,.7,1.03,1.24,1.55.91.69-.16-2.28.91-.93.18.22.18.52.18.67-.18-.82,1.26-.35,0-1.94,1.16.5.8-1.38,1.95-.62-.85-2.12,1.72.39.12-2.44,1.72,2.89,2.61,1.77,2.17.19.41.95.93.74,1.53,2.05.46-.26.56-1.02-.47-2.5,3.12,3.14-.07-3.8,3.32.57.4-2.33.95-4.16,1.72-5.59,1.96,3.15-1.17,1.07.96,4.29.4-1.89-.66-4.97.98-4.87.58.26.72,1.47.96,2.07.33-1.95,2.47-.96,2.35-3.33.19.3.3.7.35,1.01.13-.23.78.19-.2-1.26l.07.52c-1.7-1.92-2.12-4.94-2.83-6.09,2.43,4.42,1.68.42,4.64,6.08-.05-.36-.34-1.16-1.02-2.12.38.16.82.7,1.36,1.94.18-1.25-1.1-2.66-.44-3.04.47.71.52,1.07,1.01,1.95-.59-1.6-1.19-3.2-.26-2.95.25.45.69.97.52,1.06.78-.83-.9-4.74.99-4.08,1.77,3.27,1.02.78,2.86,3.39v-1.17s-1.08-1.13-1.08-1.13c.5-.28-.39-2.49.59-1.91l.39,1.33.53-1.12-1.17-.64c-.45-1.68-2.3-3.28-1.19-2.98.05.35.49-.28,1.77,1.07,0,0,0,0,0,0-.34-.99-.7-2.02.08-1.63.65.76,1.88,2.9,2.31,3.4-1.25-2.31.65-1.41-.63-3.88.27.6,1.18,1.93,1.4,2.18l-1-1.86c.59.39.8.63,1.5,1.71.84-.17-2.41-3.04-.71-2.23.04.18.24.41.3.77,1.24.13.71-2.17,1.97-1.87,1.91,2.28-.18,1.07,1.5,2.96.65-1.27,0-4.52,1.34-4.7l-.36-.12c-2.2-3.38,1.87,1.07,1.24-.87.05.33,1.13,1.92.9,1.53,1-.03.72-1.92,1-3.67l.45.89c.88.38,1.27-.45,1.92-.45-.43-.86-.11-.93-1.05-1.91,2.18,1.61,2.32.48,2.43-.63.1-1.13.18-2.24,1.9-1.13-.12.12.13.87.23.77l.45-1.45c-.9-1.04-.62-.56-1.46-1.26-.37-.76-.48-1.47-.24-1.66.11,1.07,1.32,1.76,1.94,2.19-.28-.3-.49-.72-.76-1.05,1.91,1.48-1.53-2.22.1-1.49l.38.58c.04-.49-.26-1.39.13-1.45.99,1.07.14.76.86,1.75.3-.42-.91-2.82.3-1.96.08.45-.15.65-.07,1.1,1.38,1.02,1.16.62,1.58.58h-.05c.35,0,.7-.01,1.04-.03l-.41-.19c-.86-1.63-.7-1.95-.45-2.18.26-.23.61-.38.28-1.48.62,2.13.62,1.02,1.43,2.18.39.16.88.26,1.05.64-.4-1.17.96.16.38-1.5.27.31.32-.28.89.6.14-.66-.52-.47-.81-.92-.16-.85.44-.83.99-.95.56-.11,1.06-.37.94-1.44.26-1.26-.26-2.2.14-3.15.26.08.37.32.43.55.05.23.05.44.05.44.63,0,.82-.37.97-.92.07.24.26.32.54.44.21-.34-.39-.88.18-.96.1.26.29.67.34,1.02.14-.54.17-1.19.37-1.66.3.18.15.62.21.95.22-.55.64-1.32.47-1.78l-.34.1c.12-.15.33.25.3.43-.03.65-.54.35-.69.2l.15-.33c-.47-.32-.71-.1-.86.3-.15.39-.2.98-.46,1.18l-.45-1c0,.36.02.73.05,1.13-.28-.13-.76-.57-.61-.89-.73-.16-.07.57-.8.3-.1-.06-.12-.11-.12-.17l-.15.55c-.09-.26-.62-.65-.27-.66-.57-.06-.71.29-.8.61-.09.32-.12.6-.59.26v-.1c-.33.49-.18.73.06,1.01.24.29.55.61.63,1.41l-2.19-1.86.62.97c-.12.03-.37.09-.63-.3.14.88.38.36.65,1.12-1.15-.56-.91,1.37-2.3-.21.45.92.92.3.86,1.21-1.55-1.72-.32.72-1.4.17-.64-1.08.19-.81-.93-1.42,1.03,1.85-1.15.15-1.29.68,1.07,1.43-.35,1.1-.58,1.99-.35-.53-1.79-.1-2.83-.36l-.19-.29c1.14,1.73.32,1.81.17,2.44-.76-1.05-.99-1.51-1.1-2.11l-.41.25c.32.62.41.99.3,1.35l-.88-1.39c-.52.36.07,2.23-1.32,1.72.94,1.36,3.22,3.26,3.18,4.67-.55-.69-1.48-1.9-1.51-2.32,0,.13.22.74-.13.52l-.6-1.4c-.7-.33.58,1.11.25,1.17-.75-1.03-.73-.61-1.3-1.46,0-.14.53.29.33-.17-.42,0-1.22-.41-1.92-1.14.46.58,1.04,1.41.93,1.68-.48.41-1.12-1.16-1.84-1.53.41.82-.51.24.66,1.87-.16.09-.75-.65-1.13-1.06.24.89-1.17.98.44,2.57l.16.07s0,.05,0,.1h0s0,0,0,0c.15,1.13-.48,1.22-1.21,1.15-.73-.06-1.56-.26-1.73.41l-.42-.6c-.04,1.04-.92,1.15-.36,2.73-.16.1-1.17-.89-1.63-1.67-.09.72.37,1.46-.96.79-.36-1.36-.83-.89-.14-1.07-.92-.21-1.77-1.17-1.12.92-.95-1.75-1.86-1.83-1.78-1.19l1.21.96c-.12.41-.48.42-.83.44l-1.39-2.27c-1.49-1.02-1.21.39-1.03,1.6.17,1.2.24,2.19-1.77.13.8,1.77,1.37.75,2.38,2.76-.71.02-3.49-2.93-3.65-2.85-1.57-.87,1.66,3.76.34,3.34.66.77,2.25,2.92,2.24,4.05-.71.02-2.99-3.1-3.13-3.97.07-.14.31.08.5.37-.04-.4-.07-.89-.88-1.67l.5.87c-.83-.7-1.46-.18-2.23-1.66.16,1.03.77,1.47,1.34,1.73-1.47-.82-1.03.59-2.25.19.42.4,1.18,1.33,1.07,1.39-1.67-.43.65,1.88.25,2.67-1.24-1.05-1.93-3.17-1.86-1.66-.99-.62-1.59-2.2-1.89-2.99.5,2.02-1.83-.35-2.36-.43l-.15-.89c.09.53-.07.62-.23.72l1.31,1.58c-.38-.17-.54-.08-1-.79.55,1.24,2.02,2.74,2.66,4.51-.81-.7-.13,1.43-1.7-.77,1.27.24-1.58-2.21-1.18-3.02.06.36-.1.45-.48.27-.19-.23-.28-.49-.32-.65-2.05-1.51,1.35,2.79.57,3.26-.74-1.34-1.75-2.29-1.69-1.93.31-.19,1.53,2.02,1.89,3.18-1.13-.65-.04,1.11-.37,1.17l.59.26c.73,1.34.38,1.34.3,1.97-.67-.96-.13-.89-.54-1.24,1.06,2.47-2.34-1.71-1.89.14-.79-.68-1.55-2.34-2.13-2.77.48,2.04-1.72-1.25-1.45.54,1.24,1.54,1.02,1.11,1.63,3.05l.24-1.9.93,2.89c.32-.19-.04-1.51.33-1.35.58,1.59.34,1.15,1.38,2.44-2.04-2.22.1,2.03-1.48.67l-2.63-4.13c-1.87-1.29.08,3.03-1.5,2.69l.74.48c.89,1.7-.43.64-.32,1.51-.82-1.36-1.32-1.71-1.97-2.44.64.98-.72.42.86,3.13l-1.51-1.43c-1.18-.14,1.49,4.37.46,4.42-.66-1.56-1.55-2.24-1.7-3.6-.24.17-.61.09-.06.98-.64-.7.4,2.21-.58,1.15.25.63,1.04,1.99.7,2.07-.19-.24-.39-.63-.39-.63.39.63.09,1.15,1.21,2.39-1.61-1.73-2.09-1.29-2.53-.8-.43.49-.83,1.03-2.16-.38-.28.78-.69,1.62-1.13,2.04-.19-.38-.36-.6-.19-.54-1.34-.64,1.66,3.71.13,2.99-1.54-1.64-.21-1.31-.89-1.87-2.44-3.8-.6,1.18-2.44-.68v-.32c-1.15-.98-.08,2.15-.88,2.33,0,0-.16-.35-.33-.56.68,2.19.19,3.35-.15,4.26-.61-1.49-.14-.92-1.08-2.22-.16.39,1.4,2.18,1.06,2.92-.62-.62-1.4-.98-2.28-2.37l.46-.47c-1.36-1.67-.61.58-1.07.46l-.43-.82c-.59.9.53,2.85-.41,3.33l.42.5c.6,2.18-.99-.76-.67.93l-1.19-1.72c-.03.69-.06,2.54-.45,3.22-.39-1.46-.15-2.62-.23-3.74-.3.23-.9.98-.57,1.94.03-.26-.07-.8.2-.63.42,1.66.28,2.63-.36,3.01-.84-1.61-1.33-1.49-1.84-1.24-.51.25-1.05.62-1.87-.28-.21.96-.8,1.26-1.44,1.5-.64.24-1.34.44-1.9,1.01,1.42,1.45-.33.34.75,2.08-.23.32-.37.36-.45.27-.5-.15-.98-.28-1.46-.4-.47-.33.07-.58-.17-.94-.69.37-.65-.51-1.29-.6.4.52.25,1.02-.23,1.08l.91.35c-.43,1.5-1.48-.73-1.92.76l.02-.69c-.29.64-1.68,1.27-1.55,2.68-.17-.11-.49-.42-.33-.65-1.21.6-1.96,2.72-3.23,2.57l-.08-.37c-.17.22-.07.81-.52.64-.05-.14-.08-.37-.19-.33-.06.17-.3.88-.69.84l.07-.49c-1.39.19-1.35,1.78-2.23,2.49-.5-.97-1.61-.87-2.19-.86l-.06-.15c-1.53.37-2.06,1.69-3.17,2.65-.75-.52-1.56-.47-2.41-.35-.85.12-1.73.32-2.68-.01.36.24.55,1.21.39,1.44-.49-.25-.35,1.37-1.04-.16h.13c-.97-1.42-1.49-.94-2.06-.89l.95,2.15c-1.44-1.38-2.27-1.02-2.93-.47-.67.52-1.19,1.18-2.39-.48-.03.72-.45.79-.46,1.56l-.68-1.48c-1.12-.22-1.69-.36-2.67.25l-.3-1.19c-.71-.01,1.35,4.85.83,5.17l-1.32-2.45c-1.07.37-3.23-1.66-3.21,1.07-.16-.4-.48-1.18-.35-1.34-.54.08-2.78-1.25-.93,2.46-1.1-2.45-1.2.14-1.28,1.48l-.72-1.87c.55,2.53.82,3.18.44,4.12-.26-.17-.78-1.42-.37-1.03-.94-.74.35,1.92-.7,1.22l-.27-1.28c-.59.09-.28.71.02,2.21-.02.89-1.21,0-2-1.63.36,1.05.65,2.54.13,2.2-.31-.61-.36-1.05-.38-1.26-1.41-.83-.42,2.75-1.78,1.23-.26-.6-.43-.88-.56-1.04.72-.27,1.32-.46,1.33-.29-.71-1.69-1.39-1.7-1.93-4.25.1,1.51.47,4.61-.41,4.08-.09-.15-.19-.29-.31-.54l-.02-.21c-.19-.11-.24.1-.23.43-.29-.19-.48-.34-.66-.28-.63-1.33-.94-.42-1.24-.34.76,1.78.27,1.67,1.22,2.98-.1-.11-.03-.24.12-.4.02-.07.06-.12.04-.24.01.05.03.11.05.17.16-.14.39-.29.65-.45.16,1.02.24,1.9-.49,1.04.33,1.22.65,2.48.78,3.07-1.42-2.33-2.69-3.3-3.41-4.76-.45,1.41-1.71,1.71-.99,5.16-.09.52-.64-.78-.93-1.23.02-.39.2-.42.1-.92-.16,1.06-1.3,1.06-.58,3.28-1-.67-.43-2.16-1.13-1.38l-.14-.71c-1.47-1.25-1.6.48-1.86,1.99-.24,1.54-.64,2.82-2.29,1.31.22.17.32.25.47.56-1.38-.35-2.3.63-3.3,1.41-.99.8-2.06,1.4-3.43.95-.72-.08-.48.84-.64,1.63l-.48-.99c-.07.52-.14,1.02-.22,1.49-.31.61-.91.16-1.46-.07-.56-.25-1.08-.29-1.43.64l.31.44c-.43.12-1.19.88-1.29.35-.01.1,0,.51-.22.37l-.11-.31c-.26.37-.54.7-.83,1.01-.42.09-.45-.15-.54-.36-.08-.21-.2-.38-.72.03-.18.2-.42.54-.6.8-.18.27-.3.44-.21.44.17-.09.45-.14.51.01-.12.08-.25.16-.37.23.02.2-.02.4.06.56.09.15.32.32.94.57.23-.07.46-.16.67-.28l.35.33-.65-.05c.46.31.63.12.83-.06.12.18.27.33.45.42.19-.2.36-.45.52-.73.2.35-.14.63.44.88.23-.38-.58-.78-.09-1.05.49.41.51.8.81.4.14.26.11.43-.03.53.29-.29.99-.08.99-.69.6.67,1.21-.24,1.58,1,.03-.28.35-.99.67-1.08-.1,1.66,1.33.03,1.8,1.93-.06-1.6,1.51-.68,1.99-1.76,0,.15.02.46-.09.37.52.11.85.67,1.29,1.03-.49-1.6.09-2.07.09-3.19,1.14,1.56.36,2.04,1.08,3.57-.5-1.35.51-1.46-.1-2.62.8.98.55.45,1.3,1.9-.72-2.25.27-.41.13-1.87,1.03,1.04.95,2.16,1.38,1.36.6.7.27,1.58.27,1.58Zm13.99-8.51s.01.03.02.04c-.11.09-.21.16-.27.21.05-.05.13-.12.25-.25Zm1.26-.49c-.18-.01-.38.05-.58.13-.31-.62-.53-1.28-.39-1.3.11.45.56.7.97,1.16Zm-7.82-11.52c.08-.35.29-.02.46.33-.07.07-.15.19-.23.37.02.07.05.16.07.23-.12-.35-.24-.68-.3-.94Z"/>
    <path class="cls-3" d="m95.54,169.96c-.01.05,0,.13-.02.17.1.14.19.26.28.35-.06-.2-.11-.41-.16-.59-.03.03-.06.05-.09.08Z"/>
    <path class="cls-3" d="m200.59,113.79l-.05-.02c.06.05.13.1.21.2-.07-.07-.11-.12-.16-.17Z"/>
    <polygon class="cls-3" points="120.41 172.93 120.24 172.58 120.3 172.97 120.41 172.93"/>
    <path class="cls-3" d="m210.12,114.39c.1.11.21.21.32.27-.07-.08-.19-.17-.32-.27Z"/>
    <path class="cls-3" d="m212.65,112.45l.64.09c-.32-.09-.5-.1-.64-.09Z"/>
    <path class="cls-3" d="m214.8,111.23c-.12-.21-.22-.35-.31-.48,0,0,0,0,0,0l.32.49Z"/>
    <path class="cls-3" d="m186.15,138.45s-.03.07-.02.14c.06.5.09.27.02-.14Z"/>
    <path class="cls-3" d="m192.69,127.3c.14.43.28.85.33,1.15.27.03.42-.03-.33-1.15Z"/>
    <path class="cls-3" d="m176,146.83s0-.01-.02-.03c-.02.02-.05.02-.07.03h.09Z"/>
    <path class="cls-3" d="m192.56,128.73c.43.27.52.09.46-.28-.22-.03-.53-.12-.46.28Z"/>
    <path class="cls-3" d="m221.94,103.17l.08-.08s-.04-.05-.04-.08l-.04.16Z"/>
    <path class="cls-3" d="m221.98,103.01l.04-.16c-.04.05-.07.1-.04.16Z"/>
    <path class="cls-3" d="m222.12,102.54l-.09.32c.06-.08.14-.17.09-.32Z"/>
    <path class="cls-3" d="m219.74,105.58l.16.26c-.03-.06-.08-.15-.16-.26Z"/>
    <path class="cls-3" d="m219.16,106.44c.2-.12.78.04.86-.39l-.13-.21c.19.48-.91.02-.74.59Z"/>
    <path class="cls-3" d="m213.2,105.47l.91-.16c-.39-.26-.92-.64-.65-.9-1.73-.55.79.66-.26,1.06Z"/>
    <path class="cls-3" d="m210.56,106.18c.24-.4-.46-.59-.62-.84.04.5.05.64.62.84Z"/>
    <path class="cls-3" d="m194.8,115.46l-1.1-1.63c-.13.4.44.63,1.1,1.63Z"/>
    <polygon class="cls-3" points="197.91 126 198.9 126.83 197.95 125.2 197.91 126"/>
    <polygon class="cls-3" points="187.74 114.97 187.7 114.65 187.65 115.56 187.74 114.97"/>
    <path class="cls-3" d="m163.22,132.92l1.29,1.91c-.03-.48-1.35-2.74-1.29-1.91Z"/>
    <path class="cls-3" d="m153.77,142.8c-.56-.67-1.11-.9-.87-.02.29-.09.86.31.87.02Z"/>
    <polygon class="cls-3" points="118.08 159.86 118.14 159.38 117.81 159.82 118.08 159.86"/>
  </g>
  <path class="cls-2" d="m743.68,254.57c97.33-62.77,203.47-82.15,317.59-69.61,35.45,3.08,71.74,7.27,106.26-3.03,28.28-8.38,54.57-24.5,74.56-46.31,12.33-13.35,22.43-28.43,31.64-44.18-9.53,22.71-22.18,44.16-39.55,61.87-17.58,17.85-39.44,31.47-63.08,39.78-23.72,8.36-49.52,9.97-74.36,8.98-48.8-2.54-96.36-8.51-144.95-4.84-72.53,4.18-142.86,25.72-208.12,57.33h0Z"/>
  <g>
    <path class="cls-6" d="m758.98,216.13c1-11,15-15,18-23,2-6-12-5-19-7-2-1-2-5-1-6,9-6,23-3,29-12,7-10-8-14-16-18,5.48-10.96,16.58-17.69,28.5-21.49,0,0,0,0,0,0,.25-9.7,11.78-13.34,10.24-19.07-1.58-5.86-11.47-4.75-29.52,5.88s-35.62,5.63-33.48,11.12c2.17,5.54,28.35-.9,29,2,.87,3.88-45.96,15.23-45,22.5.78,5.92,32.46,3.02,34,10,2.55,11.57-80.35,38.14-79,42.5,1.21,3.92,68.66-15.91,71-9.5,1.26,3.46-17.31,12.11-48,30.5-30.52,18.29-52.63,33.06-52.63,33.06,0,0,29.26-4.62,67.13-20.74,17.74-7.55,29.68-6.51,51.99-9.82,12.96-1.92,20.82,4.61,30.5-1,2.43-1.41,4.68-3.32,6.66-5.56-2.26-1.12-4.43-2.29-6.4-3.37-14-8-30-1-46-1Z"/>
    <g>
      <path class="cls-13" d="m758.98,216.13c-.46,0-.2.01,1.06-.03l.89-.03-1.95.06Z"/>
      <path class="cls-13" d="m767.42,215.59c1.47-.17,3.16-.42,2.21-.31-1.45.21-1.8.25-3.37.43-1.25.14-2.19.19-1.98.18-.44.03-1.95.15-2.63.18,1.64-.08,3.71-.23,5.86-.49.46-.04.02,0-.09.02Z"/>
      <path class="cls-13" d="m736.84,231.84l.78-.16c-.21.04-.48.09-.78.16Z"/>
      <path class="cls-13" d="m664.44,255.23c.56-.13.79-.21.82-.24-.52.13-.95.25-.82.24Z"/>
      <path class="cls-13" d="m658.35,256.44c-.24.15-.44.27-.65.4.26-.14.51-.29.65-.4Z"/>
      <path class="cls-13" d="m736.84,231.84l-2,.41c-.12.09,1.03-.2,2-.41Z"/>
      <path class="cls-13" d="m784.24,213.39c-.42.04-.78.07-1.1.1.35-.03.69-.06,1.04-.09.02,0,.04,0,.07-.01Z"/>
      <path class="cls-13" d="m770.14,227.3l.61-.08c.18-.05.34-.09.5-.13l-1.11.21Z"/>
      <path class="cls-13" d="m795.8,228.11c-.58-.02-.78.07-1,.11.33-.03.76-.03,1.26-.03,0-.02-.07-.03-.26-.07Z"/>
      <path class="cls-13" d="m790.02,213.37h-.72c.19,0,.51,0,.72,0Z"/>
      <path class="cls-13" d="m751.8,229.31s-.14-.03-.24-.03c0,.02.1.03.24.03Z"/>
      <path class="cls-13" d="m777.18,193.21s0,0,0,0c-.06.14-.08.18,0,0Z"/>
      <path class="cls-13" d="m758.98,216.13l.07-.41s.01-.06.01-.09l-.08.5Z"/>
      <path class="cls-13" d="m678.55,243.86s-.05.03-.09.05c-.52.36-.22.16.09-.05Z"/>
      <path class="cls-13" d="m733.6,182.4c-2.37.78,3.56-1.94.03-.67.36-.04-2.93,1.78-.03.67Z"/>
      <path class="cls-13" d="m784.91,213.34c.35-.03.7-.07,1.06-.07-.48.01-.8.06-1.06.07Z"/>
      <path class="cls-13" d="m733.63,181.73h0s-.36.13-.36.13c.15-.05.24-.08.36-.13Z"/>
      <path class="cls-13" d="m725.43,215.47c-.12.02-.33.09-.54.18.03.01.16-.02.54-.18Z"/>
      <path class="cls-13" d="m690.16,236.07l.88-.5c-.35.19-.63.36-.88.5Z"/>
      <path class="cls-13" d="m743.68,204.61c.49-.26.67-.32,1.3-.74-.07.02-.13.05-.21.09-.22.17-.52.37-1.08.65Z"/>
      <path class="cls-13" d="m750.34,192.01c.12.01.28.03.42.05.22,0,.49-.02.72-.02-.38-.02-.76-.02-1.14-.03Z"/>
      <path class="cls-13" d="m788.24,162.23c.02.53.02.86-.04,1.11.04-.19.08.6.01.9-.02.15-.01.18.03-.09.03-.13.06-.34.06-.66.03-.31,0-.73-.07-1.26Z"/>
      <path class="cls-13" d="m784.26,213.41c.13-.02.32-.04.65-.07-.25.02-.5.04-.73.06-.06.01-.08.02.08,0Z"/>
      <path class="cls-13" d="m743.39,202.35l3.01-1.76c-.84.49-1.94,1.13-3.01,1.76Z"/>
      <path class="cls-13" d="m752.25,129.85h-.83c.32.01.62.02.83,0Z"/>
      <path class="cls-13" d="m754.24,194.72c.1.04.28-.18.17-.32-.04-.01-.09-.02-.13,0,.14.1.03.32-.04.33Z"/>
      <path class="cls-13" d="m788.19,163.35s0,0,0,0c0,0,0,0,0,0Z"/>
      <path class="cls-13" d="m770.4,176.28c3.29-.64,1.52-.43,2.2-.64,1.96-.44,2.41-.53,2.55-.53.14,0-.04.11.64-.03,2.43-.7,4.24-1.47,5.89-2.44.14-.05.47-.21.1.02.3-.16.6-.4.93-.64.33-.25.71-.49,1.06-.79.34-.32.7-.66,1.06-1,.39-.33.65-.78.99-1.17.67-.79,1.2-1.7,1.64-2.6.41-.91.63-1.86.67-2.67.02-.24.04-.36.06-.43-.1.53-.19.59-.24.48.14-1.57-.48-2.8-.66-3.34.22.42.3.66.39.84.08.18.14.3.2.51-.14-.53-.37-1.03-.63-1.5-.3-.67.01-.22.34.46.31.69.49,1.62.53,1.61-.13-.81-.44-1.61-.88-2.33-.44-.72-1.01-1.34-1.58-1.9-1.18-1.09-2.44-1.91-3.44-2.54-.17-.2,1.03.5,1.89,1.13.85.63,1.42,1.11.21.04.97.77,1.9,1.64,2.61,2.69-.79-1.23-.45-.77-.07-.28.35.5.72,1.05.05-.15-1.6-2-2.85-2.68-3.99-3.43-1.17-.71-2.36-1.37-4.52-2.42-1.02-.38.26.28-.75-.1-3.13-1.33-4.31-1.94-5.27-2.5-.43-.24-.81-.46-1.32-.75-.05-.03-.12-.05-.05-.13l.02-.06c.05-.1.11-.21.16-.31.12-.23.24-.48.38-.76.59-1.11.55-1.75,2.83-4.42-.21.34-.4.7-.58,1.06,1.41-1.77,1.82-2.28,2.24-2.82.42-.53.86-1.1,2.69-2.65-.3.31-.93.94-1.44,1.42-.51.48-.84.88-.6.63,2.34-2.02,1.48-1.61,3.31-3.15.17-.05.33-.11.5-.16,3.81-3,8.47-5.75,13.51-7.76-.25.17-1.09.58.11.17.79-.32,1.6-.62,2.42-.93.42-.14.83-.28,1.25-.42l.91-.31.27-.09c.08-.03.21-.04.18-.15l.03-.51.03-.51v-.25s.04-.16.04-.16l.09-.63c.09-.42.17-.84.31-1.24.25-.82.59-1.61,1.01-2.37,1.71-3.06,4.5-5.3,6.82-7.83.52-.71,1.03-1.47,1.41-2.32.31-.57.59-1.1.34-.4.32-.67.4-1.08.42-1.26.03-.18,0-.16-.04-.08-.08.15-.22.48-.12-.24.11-.86,0-1.43,0-1.65-.01-.22.08-.11.2.45-.12-.69-.35-1.38-.76-2.07-.42-.69-1.05-1.32-1.82-1.74-1.55-.86-3.38-.95-5.07-.82-3.41.31-6.59,1.45-8.91,2.19l.87-.39c-3.59,1.28-3.79,2-7.03,3.32l.59-.33c-1.85.87-3.71,1.84-5.54,2.85-1.84,1.01-3.61,2.11-5.37,3.02-3.53,1.84-7.1,3.08-10.09,3.72-.51.33-2.44.79-4.32,1.15-1.87.36-3.68.63-3.9.9-2.3.21-3.13.22-4.19.27-.53.03-1.12.07-1.99.12-.87.07-2,.13-3.7.4-.91.17-1.6.4-2.36.87-.19.12-.39.29-.58.45-.2.23-.42.43-.54.75-.3.59-.25,1.43,0,2.01l-.22.16c.29.68.85,1.18,1.37,1.49.53.31,1.07.48,1.59.6.51.28,1.04.5,1.57.69.72.1,1.42.15,2.12.17-.83-.07-1.77-.3-1.63-.36,3.28.34,7.86.28,7.95.44,2.51-.22,5-.52,7.47-.81-.16.12-1.4.27-2.38.42,3.96-.62.75.22,4.36-.34-.49-.02.25-.18.33-.24.91.02,2.4-.06,3.98-.06.19,0,.39,0,.58,0h.14c.09.01.19.02.29.05.09.02.22.09.18.19-.02.09-.09.16-.16.22-.04-.05-.1-.09-.19-.12-.04.03-.07.05-.11.07l-.23.13c-.58.32-1.21.62-1.85.91-1.29.59-2.64,1.15-4.03,1.71-2.77,1.11-5.67,2.19-8.59,3.25,2.13-.67,1.76-.18.06.47l-.79-.03c-1.05.57,1.83-.54-.37.49-2.2.76-1.59.21-.36-.33l-2.63,1.06c-.19-.03.42-.3.54-.47-1.03.57-4.7,1.39-6.16,2.3l-.18-.03c-2.92,1.11-5.03,1.98-6.99,2.85-1.96.87-3.77,1.71-6.07,2.95.04.28-1.79,1.19-2.95,2.33-.8.58-1.63,1.19-2.32,2.19-.33.5-.65,1.18-.6,2,.08.79.51,1.56,1.02,1.98,1.01.91,2.11,1.3,3.2,1.68,1.09.36,2.2.59,3.34.8,3.19.39.96-.07,2.41,0,.2.29,4.69.82,2.34.71,2.7.3,4.41.46,6.3.64,1.88.19,3.95.33,7.28.79-.7-.23-1.51-.39-1.07-.41,1.22.14,2.72.59,2.52.68l-.32-.04c1.84.28,3.87.73,5.52,1.68.81.47,1.44,1.12,1.51,1.74.1.61-.28,1.4-.85,2.11-1.17,1.44-2.83,2.62-4.33,3.69-1.53,1.06-2.98,2-4.21,2.88l.28-.19c-1.74,1.14-3.52,2.23-5.33,3.29-2.58,1.3,1.45-.97-.52-.12-5.83,3.48-9.64,4.66-14.62,7.21-4.25,1.1-14.1,6.16-19.71,7.95l.38.03c-1.33.74-1.73.61-2.78,1,.2.07,1.58-.48.75-.03-5.88,2.57-12.04,5.01-18.2,7.64-1.54.66-3.08,1.34-4.62,2.07l-1.15.56-.57.29-.99.55c-1.36.76-2.55,1.69-2.84,2.49-.18.41-.24.77-.08,1.34.29.49.44.77.84,1.01.72.5,2.27.59,3.86.48l.6-.04.48-.04.64-.06,1.26-.15c.84-.11,1.67-.23,2.49-.35,4.8-.81,2.55-1.36,8.6-2.14l-1.63.66c9.47-2.32,19.44-4.17,28.68-6.36-.54.18-.54.28-1.44.47,2.01-.18,7.27-1.42,7.27-1.6,1.46-.25.37.11,1.28.04,1.99-.23,4.91-1.15,5.99-1.06.18.01-.54.16-.9.23,1.27-.35,5.99-.78,4.73-.89,1.76-.14,3.42-.3,4.97-.34.77-.01,1.52,0,2.19.09.33.05.64.12.9.21.12.05.19.1.23.18.17.03.23.26.11.44l-.04.06c-.03.05-.06.1-.11.16l-.28.33c-.22.22-.44.44-.69.64-.97.83-1.95,1.51-2.06,1.84-.02-.25-1.31.57-2.88,1.56-1.57.99-3.4,2.18-4.32,2.84.58-.5-1.75.88-1.08.28-2.21,1.31-4.21,2.55-3.71,2.52-4.36,1.93-8.07,5.09-10.71,5.86-6.53,4-12.58,7.7-18.45,11.3,0-.48,6.53-3.92,6.06-4.13-5.55,3.46-8.6,5.7-14.19,8.97-1.46.82.73-.64,1.17-.99-5.5,3.52-10.79,6.54-15.61,9.8,0-.04.51-.4.99-.74-.97.62-2.29,1.36-2.09,1.44l.92-.63c1.68-.75-3.58,2.85-3.68,3.08,1.38-1.46-4.93,2.94-2.65.77-.62.43-1.37,1-1.17,1.01-.96.57-1.3.7-.41-.02-3.42,2.27-2.09,1.65-5.22,3.63-.03-.08.58-.51.85-.79-1.5,1.14-3.01,2.3-5.69,3.93.13-.14-.21,0,.58-.5-4.52,2.94-7.5,5.33-12.52,8.45,1.27-1.25-1.74,1.01-2.16.94l-.73.52-3.2,2.26,3.77-.79,2.26-.47-1.29.09c2.76-.49,5.12-1.22,7.48-1.64l-2,.56c1.7-.37,3.4-.79,5.09-1.2l-2.91.55c2.72-.77-.37-.28,3.26-1.04-.73.2,2.71-.63,4.16-.84h0c1.31-.44,2.67-.85,4.67-1.33.54-.06-.34.41.02.37.63-.29,2.2-.73,3.81-1.2,1.61-.48,3.26-.98,4.05-1.34-.54.21-.52.36-.34.33l1.04-.49c1.25-.32,1.44-.35,1.27-.18,3.72-1.11-1.28.04,3.17-1.18-.34.12-.17.09-.88.34,4.45-1.3,8.48-2.84,12.52-4.17,1.27-.17-3.49,1.28-2.06,1.01,5.8-2.02,11.84-4.61,17.37-6.76-.34.13-.69.27-1.04.39.64-.61,4.15-1.53,6.86-2.83-.67.3-.82.54-.65.43,3.76-1.51,7.6-3.26,13.52-4.93l-.71.28c2.31-.57,6.11-1.45,8.66-1.81.74-.22,2.2-.42,1.3-.39,7.91-.81,15.06-1.96,22.12-2.53-.84.1-2,.29-1.33.21,1.99-.25,3.98-.54,5.97-.82-.49-.03-.79.04-2.06.12.75-.15,2.43-.43,3.9-.64-2.67.45.05.16,1.21.05-.2,0,.19-.09.09-.11,1.57-.11,1.69-.16,1.96-.25.27-.09.68-.24,2.82-.25l-.23.06c1.6-.08,3.08-.07,4.81.09.71.16-1.71-.07-1.82.01,2.42.1,4.79.28,6.96.71-1.03-.13-2.5-.35-3.53-.44,2.36.43,2.63.46,4.4.74l-.17-.03c1.36.22,2.72.45,4.09.59-.35-.04-.7-.08-1.05-.14,1.53.05,3.09.18,4.78.09.85,0,1.72-.16,2.63-.29.9-.23,1.85-.45,2.78-.89-.46.19-.82.35-1.09.45-.28.09-.47.14-.59.18-.24.08-.21.08-.06.05.3-.05,1.03-.24.9-.16.5-.18,1.13-.4,1.59-.55.44-.18.7-.32.5-.2,1.73-.93,2.94-1.5,5.01-3.35.13-.04,1.55-1.4,1.28-1.05,1.79-1.81-.46.4-.34.2.35-.34.71-.7,1.08-1.09.18-.19.37-.39.55-.59l.34-.37.19-.21.1-.11s-.06-.05-.09-.07c-1.04-.56-2.15-1.15-3.31-1.77-1.1-.58-2.26-1.19-3.44-1.81-1.21-.59-2.43-1.26-3.78-1.67-.57-.2-1.07-.41-1.56-.54-.48-.12-.92-.23-1.32-.33-.4-.1-.78-.19-1.14-.28-.36-.07-.71-.11-1.05-.16-.69-.09-1.36-.23-2.14-.3-.79-.05-1.68-.15-2.8-.19-.75-.03-.44-.04.05-.04.5,0,1.18.06,1.18.06-2.43-.21-4.27-.14-6.57-.02.46-.03-.02-.03-.71.02-1.84.17-1.23.11-3.65.37.41-.05.94-.16,1.83-.25-2.16.22-4.29.52-6.51.84-.59.06,1.34-.21,2.12-.33-2.51.34-6.48.94-7.25,1.06l1.61-.22c-.91.13-.47.05.2-.05,2.14-.32,3.09-.43,3.22-.44l-1.58.23c1.63-.18,6.37-.92,9.59-1.14l-1.33.17c1.1-.09,2.19-.24,3.29-.28.7,0,1.18.01-.4.08,2.31-.04,2.04-.13,4.03-.04.22.01.12.01-.08.01.75,0,1.5.01,2.25.09-.44-.02.37.08-1.01-.04,4.04.26,6.46.89,7.91,1.33l-.33-.08c.68.16,1.18.35,1.56.49.38.14.64.23.82.3.36.13.38.12.37.11-.01-.02-.07-.05.13,0,.2.05.66.19,1.6.66.82.48,1.64.95,2.44,1.45l.53.19c.51.27,1.52.81,1.32.74,1.94.96-.31-.2.82.34.62.33,1.34.73,2.1,1.14l.55.29.13.07s.12.04.06.08l-.2.22c-.27.3-.58.63-.86.92-1.15,1.18-2.24,2.05-2.53,2.19-.73.69,2.09-1.65-.18.27-.38.2-1.06.73-1.95,1.32-.45.3-.95.61-1.5.88-.55.27-1.1.61-1.72.78.36-.15,1.06-.52,1.4-.71.34-.18.3-.17-.84.37-.68.34-1.83.81-3.12,1.05-.63.16-1.31.18-1.94.27-.64.05-1.25.04-1.78.08-.02.04-.33.05-.82.04-.5,0-1.19-.02-1.98-.11-1.6-.14-3.61-.47-5.4-.73.12,0-1.56-.31-3.69-.58-2.13-.28-4.75-.43-6.44-.34l.1-.03c-.66.1-4.12.49-6.6.89.08-.11.53-.21,1.87-.44l-2.35.32c-.55.13-1.28.25-2.8.46l.58-.2c-3.12.41-6.29.89-10.33,1.23-.21.15,3.25,0-1.01.55-.17-.05-.34-.15.78-.3-.36.05-1.3.2-2.04.24l1.69-.3c-1.84.14-.95.2-2.42.34.02-.1-1.1.05-.89-.06.37-.05,1.29-.1,1.85-.19-1.66.16-3.67.31-4.34.31.15.04.02.14-1.2.29-3.14.38-1.09,0-2.93.18-.75.16-2.76.37-2.79.54-.92.13-1.1.08-1.46.09-1.61.29-7.52,1.44-5.67,1.25l.41-.07c-.08.02-.17.04-.26.06h.01s-.01,0-.01,0c-5.2,1.28-10.8,2.8-15.69,4.95l-.02-.06c-2.91,1.25-6.47,2.78-8.56,3.68-.87.34-2.1.69-1.76.48-2.25.91-2.46,1.12-5.78,2.2,2.25-.94-.82.19,2.31-.93-2.97,1.03-3.68,1.17-6.79,2.49,1.03-.53-2.31.56-3.71,1.1l2.12-.6c-1.58.57-2.98,1.03-4.39,1.5l.69-.48c-6.19,1.74-10.9,4.02-15.76,4.87-1.59.63,3.39-.85,1.98-.24-2.85.8-5.92,1.26-6.82,1.5-3.95.89-3.56,1.32-7.71,2.22.55-.04,1.11.08-1.96.89-2.9.62-3.64.43-1.83-.06.69-.16,1.03-.21,1.01-.17.93-.24,2.14-.57.98-.39l-.35.17c-1.45.24-5.43,1.11-4.52.75-2.17.54-.9.34.73.05-2.82.5-4.7.91-7.1,1.31l.53,1.35c.66-.43,1.37-.89,2.18-1.4-.55.3-1.09.52-.57.18,4.87-3.05,2.02-1.54,5.25-3.69,1.94-1.08-.48.72,2.75-1.51,2.06-1.21.56-.06-.19.52,2.9-2.09,5.68-3.49,7.42-4.55l-1.54,1.07c.92-.64,1.7-1.13,2.49-1.63l-1.01.41c.95-.56,1.74-1.06,1.77-.98.89-.72-.91.19.9-1.17,1.3-.7,3.73-2.48,4.3-2.53-3.97,2.39.57-.05-2.72,2.07.62-.43,1.4-.92,2.36-1.48.16-.06-.1.13-.35.3,3.88-2.14,1.56-1.34,5.46-3.76-.41.44,1.06-.32,1.67-.74-1.57.97-.88.25.49-.74,2.56-1.45,2.67-1.76,3.99-2.55l-1.53.88c.43-.44,1.69-1.2,3.41-2.32.21,0-1.54,1.05-.89.71,1.8-1.42,4.53-2.45,7.15-4.26,1.31-.67.27.18,1.42-.43,2.94-2.02,3.41-1.81,6.53-3.88-1.03.37-1.17.51.98-1.02l-5.19,3.3,3.22-2.3c-1.59.95-3.29,2.13-4.26,2.68,1.52-1.12,1.38-.98.53-.67,2.34-1.04,4.22-2.76,6.85-4.08l.2.5c3.91-2.05,6.6-4.23,11.63-6.99l-1.64.84c.56-.57,3.04-1.8,4.61-2.8-.06.24.98-.28,1.72-.57-.15-.07,3.65-2.07,3.92-2.65l2.34-1.06c4.07-2.2,4.33-3.06,8.23-5.22-1.06.84.76-.05-1.76,1.56,1.29-.73,2.47-1.37,2.43-1.5.81-.33,3.45-2.28,4.71-2.83.5-.39.58-.66,2.02-1.51.18-.06.04.08.04.08-.04-.08,2.17-1.48.81-.89,1.05-.48,2.26-1.15,3.51-1.95,1.25-.81,2.56-1.73,3.73-2.86.29-.28.57-.6.83-.93.26-.39.55-.87.56-1.35.05-.48-.14-.98-.51-1.28-.34-.31-.83-.53-1.2-.64-1.48-.42-2.76-.42-3.79-.56-3.32.12-7.19.74-10.11,1.2.18-.09,0-.1.55-.16-4.05.47-2.38.93-6.97,1.55-2.38.12,2.39-.61.92-.46-.75-.52-5.48,1.11-8.6,1.38l.73-.19c-2.38.26-5.64,1.4-9.45,2.17,0,0,.17-.09,0-.1-2.53.87-7.42,2.04-11.06,2.9,1.08-.49,1.63-.48.89-.59-1.63.38.57.3-2.69,1.06-1.09.09-3.48.45-3.84.25l3.08-.65c-1.65-.02-3.99.83-5.63,1.09l.18-.19c-2.36.49-3.54.81-4.77,1.13-1.23.3-2.51.64-5.06.93l.54.06c-.73.18-1.07.25-1.41.28-.33.02-.55,0-.74-.03-.19-.03-.36-.07-.63-.1-.14-.01-.3-.03-.51-.07-.18-.03-.55-.13-.56-.41.39-.29.85-.47,1.23-.6.13-.16.35-.37.69-.62.17-.13.36-.26.59-.41.29-.18.71-.44,1.09-.65,1.57-.91,3.36-1.83,4.87-2.55-.81.52-2.08,1.23-3.4,1.97-.66.37-1.33.76-1.95,1.14-.15.09-.3.18-.44.27l-.2.15c-.12.1-.23.18-.31.26.09-.05.19-.11.3-.18.15-.08.31-.18.49-.27.6-.32,1.27-.67,1.9-1.01,1.29-.67,2.49-1.28,2.89-1.57-.66.34-1.47.83-2.16,1.09,1.91-1.26,4.58-2.62,7.98-4.07-.31.94,8.95-3.57,11.66-4.04,5.93-2.78,12.04-4.86,19.03-7.95-2.72.54,2.04-.91,1.36-1.28,1.61-.75,2.23-1.02,2.39-1.05l5.06-1.9c1.24-.37-1.48.83-1.28.88,3.56-1.59,1.6-.45,4-1.4-.57.03,1.1-.86,3.14-1.76l-2.95,1.11c4.77-2.67,4.48-1.57,9.23-4.43l-1.45.99c1.23-.71,3.54-1.94,5.77-3.34,2.23-1.38,4.36-2.99,5.31-4.08.44-.27,1.08-.58.11.27,1.36-1.1,2.81-2.32,3.84-4.25.24-.49.45-1.04.53-1.67.09-.62,0-1.32-.28-1.92-.55-1.22-1.53-1.87-2.39-2.36-1.78-.9-3.53-1.29-5.15-1.65-1.61-.31-3.1-.6-4.4-.85l.53-.07c-1.26-.14-2.22-.03-3.77-.36.09-.05.52-.09-.06-.16-.67-.03-3.35-.12-4.99-.37h1.43c-3.25-.45-5.73-.62-8.07-.85-1.16-.12-2.3-.25-3.44-.47-1.11-.24-2.35-.53-3.28-1.2.03-.04.02-.12-.03-.22-.06-.1-.15-.23-.18-.37-.1-.3-.13-.47.13-.91.25-.43.83-.97,1.43-1.42.61-.46,1.25-.86,1.78-1.17l-.04.1c3.11-1.88,6.07-3.22,8.9-4.55,2.86-1.31,5.7-2.54,8.97-3.85,2.13-.56,5.63-1.78,9.44-3.15,3.81-1.4,7.92-2.89,11.25-4.44-.52.23-.51.13-.23-.09.14-.11.34-.26.59-.42.16-.1.33-.22.5-.33.2-.14.4-.28.6-.42.54-.36,1.07-.86,1.29-1.4.11-.27.15-.57.09-.89-.11-.31-.3-.54-.52-.69-.87-.61-2.04-.58-1.72-.76.32.04.61.1.89.18-.36-.21-1.07-.38-2.04-.45-.58-.05-1.22-.06-1.91-.05-1.37.04-2.89.18-4.22.29l-.4.5c-3.49-.04-8,.52-12.07.58-2.02.03-3.98-.07-5.42-.56-.71-.23-1.24-.6-1.43-.95-.05-.09-.08-.17-.11-.25-.02-.1-.04-.2-.05-.3.02-.15.03-.23.08-.27,0-.1.07-.2.35-.39.29-.16.66-.32,1.08-.43.82-.24,1.73-.4,2.53-.57l-.06.25c4.55-.54,6.95-.61,12.64-1.84l-1.13.4c3.23-.67,3.91-1.54,6.78-2.43.32.01.65.04.97.04,2.71-.93,5.4-2,7.97-3.33,1.29-.68,2.52-1.4,3.71-2.11,1.2-.71,2.4-1.42,3.59-2.13-.06.09-.16.24-.95.69,1.16-.63,3.44-1.77,5.33-2.66,1.89-.9,3.39-1.56,2.86-1.58.09.12,1.41-.45,3.09-1.09,1.68-.64,3.73-1.32,5.19-1.59-.14.09-.28.18-.42.28,1.2-.35,1.83-.47,2.59-.57.74-.04,1.68-.18,3.26.38.36.16.47.3.41.29-.06,0-.31-.12-.78-.32,1.18.5,1.51.87,1.91,1.25.19.2.38.44.56.83.17.39.39.93.34,1.7-.03-.38-.12-.75-.27-1.1.3,1.24.05,1.82-.04,2.26-.14.44-.2.76-.57,1.45-.89,1.55-3.66,4.05-4.06,4.28-.19.37-1.22,1.61-2.31,2.97-.19.15.16-.39.35-.64-1.62,1.9-2.45,3.65-2.91,5.26-.23.81-.36,1.59-.45,2.38-.03.2-.02.3-.04.45l-.02.21s0,.08-.02.1l-.09.03c-.32.09-.64.19-.98.28-.09-.03-.3.01-.57.08.43-.15.86-.29,1.27-.43l.15-.05c.05-.01.11-.02.09-.11,0-.14.02-.27.03-.4.08-.76.23-1.61.42-2.2.36-1.24.71-1.89.65-1.75-.08-.04-.44.7-.65,1.16-.18.46-.35.6,0-.7-.21.64-.41,1.42-.52,2.27-.04.21-.05.43-.07.65-.02.2-.05.51-.04.55v.32c-.02.06-.09.07-.14.1-1.65.64-3.35,1.31-4.77,1.86-.14.04-.28.08-.4.11l.29-.14c-.66.26-1.25.51-1.78.8-.91.39-1.49.62-2.33,1.05-.39.04-3.27,1.6-4.59,2.48.2.07-1.58,1.13.15.24-.22.12.24-.17,1.13-.73.2-.12.44-.27.58-.35-.02.02-.05.04-.09.07.45-.25.97-.55,1.55-.87.59-.3,1.23-.63,1.91-.97-.54.32-1.09.64-1.7.97-.6.35-1.27.72-2.05,1.1-.64.51-1.34,1.06-1.73,1.37-.96.49-2.32,1.29-3.45,2.09-1.15.77-2.07,1.53-2.35,1.65-1.78,1.64-3.75,3.73-5.28,5.86-.79,1.05-1.42,2.15-1.98,3.11-.25.52-.49,1-.71,1.45-.14.29-.27.56-.4.83l-.04.09s.06.03.08.05l.2.08c.13.05.25.1.37.15.35.17.63.3.86.41.2.1.34.18.47.25.24.15.4.24.62.38-.36-.15-.76-.32-1.11-.48-.44-.2-.83-.37-1.08-.48.22.1.46.22.71.33.17.08.35.16.54.24.37.16.77.34,1.18.52.82.35,1.69.72,2.49,1.06,1.61.68,2.98,1.26,3.31,1.32,3.02,1.57-1.77-.72,2.4,1.36l-.58-.25c1.99,1.12,3.76,2.21,5.15,3.54,1.39,1.31,2.38,2.98,2.3,4.84-.06,1.85-1.01,3.68-2.32,5.3-1.28,1.65-3.14,3.05-5.48,4,.66-.24.95-.45,1.09-.48-2.57,1.32-5.46,2.04-8.36,2.65-2.91.62-5.88,1.13-8.78,1.98-.72.2-1.44.43-2.15.7-.35.13-.71.25-1.06.4l-1.02.47c-.7.29-1.33.7-1.98,1.08l-.49.29c-.18.16-.28.32-.37.51-.16.36-.27.73-.32,1.11-.11.75-.08,1.52.08,2.26.16.73.46,1.47,1.03,2.01.13.14.3.25.47.35.21.12.37.12.56.18.35.1.71.18,1.07.26.71.15,1.43.28,2.14.4,3.25.48,3.61.42,5.6.63l.69.16c1.13.12,2.26.25,3.38.45,1.19.22,2.29.49,3.31.92.99.42,2,1.04,2.37,2.08.18.51.14,1.09-.03,1.64-.19.54-.49,1.08-.75,1.64-.67,1.07-1.46,2.18-2.54,3.27l.57-.55c-1.45,1.66-5.17,4.67-4.9,4.42-.17.15-.54.48-1.21,1.02l-.06.03c-1.38,1.16-2.74,2.36-4,3.64-1.46,1.51-1.3,1.43-1.37,1.48-.03.03-.09.1-.39.47-.32.35-.81,1.04-1.6,2.36-.24.52-.57,1.13-.83,1.78-.2.67-.48,1.34-.58,1.94-.2,1.21-.33,2.04-.26,1.62.14-.91.38-2.32.47-2.37-.05.17-.11.33-.16.5l-.09.51-.17,1.03c-.04.19-.1.68-.08.49,0-.1.06-.36.15-.91.05-.28.11-.63.19-1.06.12-.43.31-.93.5-1.53.43-1.1.98-2.16,1.66-3.13.21-.32.43-.63.68-.92-.33.37-.59.8-.87,1.22-.28.41-.56.82-.76,1.28.81-1.49,1.49-2.34,2.25-3.26.17-.23.53-.58,1.02-1.09.39-.43.8-.84,1.23-1.23.42-.4.84-.8,1.29-1.18.33-.26-1.17,1.04.62-.48,1.23-1.07-1.22.98.84-.77,1.33-1.07.96-.74,2.49-2.02.23-.17-.1.11-.71.61,1.38-1.13,3.62-3.03,4.21-3.75.33-.31.75-.73,1.16-1.24.21-.25.43-.5.63-.77.19-.28.37-.56.55-.82.39-.51.59-1.06.78-1.42.18-.37.29-.58.29-.53.06-.27.36-1.11.03-2.08-.37-.96-1.34-1.6-2.08-1.95,1.36.73.04-.22-1.73-.71-1.76-.52-3.83-.81-3.43-.82-1.12-.14-3.09-.38-5.28-.65-2.19-.27-4.58-.6-6.45-1.09.21.05.63.14.96.22-.26-.06-.51-.12-.72-.18-.11-.03-.21-.06-.31-.09-.05,0-.1-.06-.18-.11-.29-.18-.46-.42-.62-.64-.28-.47-.43-.93-.54-1.58-.06-.11-.28-1-.1-2.06.1-.51.24-1.11.71-1.3.49-.31.96-.6,1.35-.84,1.24-.51.88-.3.32-.01-.55.31-1.26.79-.88.62-.04,0,.18-.15.53-.37.35-.22.86-.43,1.33-.67.94-.48,1.88-.75,1.43-.66.97-.32,1.4-.44,1.71-.5.31-.07.5-.11,1.02-.2.3-.26,1.84-.51,3.49-.94,2.94-.51.78.01,4-.68,1.55-.25-1.31.37-1.31.37Zm23.61-45.55h0c-.62.26-1.14.48-1.48.62.31-.13.73-.31,1.48-.62Zm5.1-3.64c-.03.19-.06.39-.09.6-.03.22-.04.58-.06.89v.24c-.02.08,0,.18-.11.19-.17.06-.35.11-.52.17-.28.09-.56.19-.85.28-.21,0-.08-.11.66-.35-.11.05-.07.04.08,0,.07-.02.18-.05.3-.08.06-.02.13-.04.2-.06.05-.03.19-.01.17-.11.03-.3.06-.65.09-1,.04-.31.1-.54.14-.78Zm-12.25,5.65c.91-.54,1.25-.64,1.39-.68-.44.22-.96.49-1.61.88-.02.02-.07.06-.1.08.07-.08.16-.16.32-.28Z"/>
      <path class="cls-13" d="m785.32,133.85c-.13.08-.2.13-.36.24.19-.1.37-.2.55-.29.1-.08.21-.16.3-.23-.16.1-.34.19-.49.28Z"/>
      <path class="cls-13" d="m737.76,231.66l-.14.02c.11-.02.22-.03.29-.04-.09,0-.09,0-.15.01Z"/>
      <path class="cls-13" d="m744.7,126.91l.05-.03c-.08-.26-.21-.46-.24-.78.01.33.12.54.19.81Z"/>
      <path class="cls-13" d="m773.67,227.38c.07,0,.21,0,.47-.04-.02,0-.23.01-.47.04Z"/>
      <path class="cls-13" d="m789.13,227.94c.73.12,1.45.25,2.19.35-.95-.14-1.63-.27-2.19-.35Z"/>
      <path class="cls-13" d="m801.13,227.9c.15-.05.18-.09.21-.11h-.02c-.06.05-.13.08-.19.11Z"/>
      <path class="cls-13" d="m688.61,235.12c.14-.09.27-.18.39-.25.9-.61.28-.21-.39.25Z"/>
      <path class="cls-13" d="m671.27,254.44c-.57.19-1.14.37-1.75.54.99-.22,1.75-.42,1.75-.54Z"/>
      <path class="cls-13" d="m743.06,202.54s0,0,0,0c.12-.07.22-.13.33-.2l-.33.19Z"/>
      <path class="cls-13" d="m666.94,255.6c.99-.2,1.82-.4,2.57-.62-.81.18-1.77.39-2.57.62Z"/>
      <path class="cls-13" d="m773.62,214.71l-.57.08s-.02,0-.07.01l.64-.09Z"/>
      <path class="cls-13" d="m772.98,214.81l-.64.09c.29-.04.54-.08.64-.09Z"/>
      <path class="cls-13" d="m771,215.1l1.34-.2c-.46.07-1.02.15-1.34.2Z"/>
      <path class="cls-13" d="m789.44,213.19h.18c-.1-.01-.16,0-.18,0Z"/>
      <path class="cls-13" d="m794.27,213.47c-1.15-.1-2.89-.34-4.5-.31h-.15c.38.02,1.27,0,2.2.09.93.08,1.9.17,2.45.22Z"/>
      <path class="cls-13" d="m810.22,221.55l.69-.72.25-.27c0-.08-.18-.12-.26-.18l-1.75-.94c.61.36,1.42.83-.21-.03,1.12.61,1.62.89,1.82,1,.12.06.08.03,0-.03-.1-.07-.19-.13.03-.03.04.02.1.05.17.08.04.02.07.04.12.06.02.03.15.04.07.09-.09.1-.19.21-.32.35-.17.18-.37.38-.59.62Z"/>
      <path class="cls-13" d="m799.66,227.79c2.08-.53-.04-.05.07-.09-.65.19-1.08.2-1.13.23-.05,0,.27.01,1.06-.14Z"/>
      <path class="cls-13" d="m711.02,240.96l.14-.23c-1.55.63,0,.07-.14.23Z"/>
      <path class="cls-13" d="m695.01,247.66l1.58-.42.68-.41c-.75.28-1.51.56-2.27.82Z"/>
      <path class="cls-13" d="m684.86,249.51l.69-.24c-.88.29-1.77.58-2.66.85l1.97-.62Z"/>
      <path class="cls-13" d="m754.53,192.1c.16.15.33.29.53.5.39.14.67.32.87.43.17.14.29.21.3.16,0-.03-.03-.22-.31-.45-.14-.11-.31-.26-.57-.37-.13-.06-.27-.12-.42-.18-.14-.05-.25-.07-.39-.1Z"/>
      <path class="cls-13" d="m689.49,203.13c-.18-.02-.43-.03-.72-.02-.17-.01-.3-.02-.45-.02-.3,0-.6.02-1,.08.33.04.66.06,1,.06.18,0,.31,0,.5-.01.26-.02.49-.05.67-.08Z"/>
      <polygon class="cls-13" points="762.3 127.33 763.61 127.12 761.14 127.42 762.3 127.33"/>
    </g>
  </g>
  <g>
    <path class="cls-10" d="m818.98,197.63c-1.74-11.46-11.6-12.39-13-24.5-1.19-10.35,5.69-12.53,4-22.5-1.94-11.43-11.73-13-11.5-21.99-11.92,3.8-23.02,10.53-28.5,21.49,8,4,23,8,16,18-6,9-20,6-29,12-1,1-1,5,1,6,7,2,21,1,19,7-3,8-17,12-18,23,16,0,32-7,46,1,1.97,1.08,4.14,2.25,6.4,3.37,5.47-6.2,8.8-14.95,7.6-22.87Z"/>
    <g>
      <path class="cls-1" d="m819.64,197.53c-.11-.15-.28-.03-.2.42l.37.29-.17-.71Z"/>
      <path class="cls-1" d="m819.28,200.66c.15.53.42,1.16.73.82-.32-.55-.15-.68-.57-1.24-.06-.45.07-.8.19-.73-.08-.16.03-.72-.22-.95-.17.62-.17,1.36.08,2.14-.08.17-.16,0-.22-.03Z"/>
      <path class="cls-1" d="m790.48,212.87l.29.04c-.08-.02-.18-.04-.29-.04Z"/>
      <path class="cls-1" d="m763.19,215.32c.21-.02.29-.06.3-.09-.19.03-.35.07-.3.09Z"/>
      <path class="cls-1" d="m760.21,214.93s-.03.08-.04.12c.04-.07.07-.12.04-.12Z"/>
      <path class="cls-1" d="m790.48,212.87l-.74-.12c-.05.11.38.09.74.12Z"/>
      <path class="cls-1" d="m819.38,206.89c.02-.16.01-.29,0-.42l-.04.38s.03.02.05.04Z"/>
      <path class="cls-1" d="m802.5,215.08c.07.03.14.05.21.09.07,0,.15-.02.22-.04-.14-.02-.28-.05-.43-.05Z"/>
      <path class="cls-1" d="m810.7,219.25c-.08-.05-.26.17-.4.23.18-.04.27-.05.39-.01.02-.05.02-.12.01-.22Z"/>
      <path class="cls-1" d="m817.73,208.62l.04-.26c-.01.07-.03.18-.04.26Z"/>
      <path class="cls-1" d="m796.01,213.11s-.04-.09-.07-.11c0,.03.02.07.07.11Z"/>
      <path class="cls-1" d="m815.49,187.19s-.02.02-.04.03c.06.03.08.03.04-.03Z"/>
      <path class="cls-1" d="m818.91,197.64l-.04-.14c-.06,0-.11-.01-.16,0l.21.15Z"/>
      <path class="cls-1" d="m763.63,208.93s-.02.01-.03.02c-.11.18-.04.09.03-.02Z"/>
      <path class="cls-1" d="m784.59,171.44c-.86.46.91-1.29-.32-.53.18-.02-.66,1.22.32.53Z"/>
      <path class="cls-1" d="m819.28,207.12l-.1.38c.05-.17.08-.29.1-.38Z"/>
      <path class="cls-1" d="m784.27,170.92h0s-.12.08-.12.08c.05-.03.08-.05.12-.08Z"/>
      <path class="cls-1" d="m777.54,194.76c-.06.02-.14.08-.21.15.03,0,.08-.02.21-.15Z"/>
      <path class="cls-1" d="m766.63,205.08l.3-.21c-.12.07-.22.14-.3.21Z"/>
      <path class="cls-1" d="m773.72,187.97c-.19-.08-.25-.14-.53-.18.02.02.04.04.07.05.11,0,.25.01.46.12Z"/>
      <path class="cls-1" d="m765.77,186.61s.09.05.14.07c.08,0,.17.01.25.02l-.39-.09Z"/>
      <path class="cls-1" d="m807.51,166.86c-.12.14-.22.22-.32.28.22-.06.07,1.01.32-.28Z"/>
      <path class="cls-1" d="m819.22,206.86c.06.06.07.14.06.26.02-.09.04-.18.05-.27-.04-.03-.07-.05-.11,0Z"/>
      <path class="cls-1" d="m772.8,190.01c-.37-.12-.75-.23-1.13-.32.32.09.73.21,1.13.32Z"/>
      <path class="cls-1" d="m784.28,133.73l.24-.18c-.1.05-.19.12-.24.18Z"/>
      <path class="cls-1" d="m768.08,189.13c-.21-.13-.43-.22-.67-.28-.05.02-.12.03-.15.05l.82.23Z"/>
      <path class="cls-1" d="m807.19,167.14h0s0,0,0,0Z"/>
      <path class="cls-1" d="m807.88,174.83c-.17-1.1-.44-.45-.69-.65-.33-1.33.17-.66.28-1.14-.16-.81-.57-1.44-.56-2.08.06-.05.09-.17.16-.03-.3-.9.08-2.61,0-3.69.05-.07.09-.1.12-.11-.21.12-.4.11-.53.05.08-.52.02-1.01.3-1.13-.1.31,0,.36.02.52l.05-.55c.47-.37-.09.75.16.81.16-1.03.29-2.32.72-3.05.36-.03-.58,1.83.08.92-.17.38-.38.75-.53,1.14.78-.74-.24.7.54.05.62-1.49.45-1.76,1.21-3.27-.02-.43-.31,0-.33-.42.34-1.19.72-1.55,1.06-1.87.34-.3.64-.56.73-1.54-.07-.54-.42-.83.09-2.08.1.17.21.36.29.53.34-1.77-.31-1.08.08-2.89.13.33.02,1.4.09,1.14.38-1.18-.12-.87-.12-1.78l.34-.19c-.04-1.92-.66-3.9-1.32-5.83.13.08.35.38.29-.11-.91-2.45-2.26-5.13-3.69-7.19-.27-.2-.55-.36-.83-.54-.14-.17-.16-.39.04-.25-.54-.8-.17.08-.56-.19-.37-.4-.34-.64-.05-.45-1.3-1.08-3.57-3.09-4.15-4.65l.24.21c-.28-.56-.62-.76-.87-1.01-.25-.25-.56-.49-.62-1.08l.12.19c-.09-.32-.19-.65-.3-.97-.12-.32-.13-.67-.21-1l-.05-.25c-.04-.18-.05-.32-.06-.47l-.05-.85-.05-.85-.02-.42v-.21s-.02-.1-.02-.1v-.05s-.05.02-.05.02c-1.02.34-2,.66-2.95.94-.2.06-.39.11-.58.17-.16.04-.31.08-.46.12-.3.08-.6.14-.88.19-.26.52-2.8.93-2.74,1.54-1.65.45-1.28.09-3.51.99-.58.27-.69.74-1.35,1.18l-.16-.26-.78.8-.68-.04-.6.45c.26-.14.61-.21.61-.11-.92.72-2.52,1.29-2.62,1.2-.71.59-1.43,1.16-2.1,1.8-.03-.14.32-.45.57-.73-.99,1.14-.41-.1-1.32.94.19-.05.03.2.05.27-.65.25-1.84,1.24-2.63,2.06l.02-.31c-1.58,1.34-3.05,3.12-4.51,4.92.61-.58.77-.2.37.34l-.42.02c-.1.47.51-.49.18.38-.54.66-.64.24-.43-.22l-.53.91c-.12,0-.01-.24-.07-.36-.11.45-1.32,1.32-1.35,2.05h-.11c-.15.25-.3.48-.43.69-.14.27-.28.53-.4.77-.38.74-.72,1.4-1.05,2.04l-.23.46c-.09.09.03.12.11.16l.24.11c.32.15.64.3.97.45.58.26,1.18.54,1.86.85.15-.24.78.11,1.37.13,1.19.63,2.47,1.41,3.93,2.05,1.08.34.4-.08.93-.02-.03.26,1.41.93.59.74,1.72.81,2.2,1,4.31,2.07-.16-.23-.38-.42-.21-.41.4.19.75.63.64.69l-.11-.04c1.2.57,2.28,1.72,2.91,2.87.3.58.51,1.15.64,1.67.12.52.22.99.32,1.42l-.02-.1c.11.6.03,1.25-.08,1.91-.4.84.03-.57-.38,0-.17,1.05-.7,1.85-1.23,2.5-.27.32-.54.63-.79.96-.24.35-.58.6-.85.99-.19.05-.39.15-.6.27-.21.12-.46.23-.7.38-.24.15-.49.32-.74.5-.26.17-.56.32-.85.49-.56.36-1.19.66-1.8.89-.59.27-1.21.39-1.71.44l.16.13c-.44.32-.62.11-1.01.17.1.13.59-.01.31.18-4.25,1.46-9.24,1.5-14.02,2.82-.87.25-1.04.58-1.27.85-.23.29-.54.49-1.66.79l.46-.58c-.8.49-1.65.87-2.44,1.41l-.61.37c-.14.11-.61.28-.81.61-.13.15-.23.32-.33.49-.11.16-.18.36-.23.5-.11.3-.17.57-.23.85-.19,1.09-.14,2.14.15,3.19.32,1.03.87,2.15,2.28,2.76-.32-.09-.42-.02-.87-.35.07.12.25.24.42.38.09.07.19.13.29.21.12.04.24.07.36.11.32.1.63.16.93.2.61.09,1.13.07,1.15-.02.54.12.09.2.41.35.72.27,1.89,0,2.24.28.06.05-.21.05-.35.05.49-.04,2.2.32,1.78-.01,1.27.29,2.46.17,3.44.46.7-.23,2.12.44,2.39.05-.15.42,2.09.72,2.86.74-.28.06.59.32.26.42.82.22,1.49.45,1.47.18.57.54,1.1.81,1.41,1.12.32.27.38.73,0,.97,0,.1-.03.21-.03.32,0,.11-.09.26-.13.39-.1.28-.2.55-.3.82-.24.54-.55,1.06-.86,1.57-.68,1-1.46,1.93-2.31,2.79-.22-.37,1.84-1.9,1.38-2.16-1.33,1.75-2.11,2.92-3.93,4.32-.5.34.14-.37.24-.56-1.66,1.63-3.53,2.84-4.95,4.45-.02-.03.11-.23.25-.4-.3.29-.76.62-.59.73l.26-.32c.69-.23-.79,1.59-.72,1.75.08-.93-1.55,1.42-1.31.09-.17.23-.33.55-.19.6-.31.27-.46.32-.29-.09-.91,1.25-.39.97-1.24,2.06-.08-.07.05-.32.05-.5-.16.32-.25.7-.43,1.07-.16.39-.44.76-.73,1.28-.02-.09-.15,0,0-.32-.43.94-.77,1.74-.9,2.64-.05.22-.1.44-.14.66-.04.22-.13.43-.16.75-.08.6-.19,1.2-.36,1.93-.17-.26-.25,0-.36.43-.03.11-.05.23-.08.34.06.04.19.03.26.05.17.03.29.08.25.17l1.91-.16-.64-.16c.37,0,.74-.03,1.08-.06.32-.03.49-.06.74-.1.46-.05.89-.14,1.33-.1l-.74.21,1.88-.2-1.08-.07c1-.26-.14-.46,1.2-.45-.27.06,1-.06,1.54.09h0c.48-.17.98-.34,1.72-.33.21.1-.11.43.02.49.46-.35,2.33-.37,2.9-.77-.19.1-.18.3-.11.33l.38-.3c.47.02.54.05.49.22,1.39-.15-.5-.41,1.17-.43-.13.04-.06.07-.32.14,1.66-.12,3.16-.6,4.69-.69.5.31-1.31.28-.75.52,2.17-.38,4.45-1.05,6.57-1.18h-.4c.24-.57,1.6.11,2.64-.22-.26.06-.32.32-.25.26.72-.02,1.46-.11,2.28-.19.83-.09,1.75-.25,2.84-.29l-.27.13c.85.14,2.23.09,3.13.27.28-.11.8-.04.5-.27.69.24,1.36.38,2.02.52.66.13,1.32.16,1.97.24,1.27.23,2.58.35,3.62,1.15-.28-.1-.7-.14-.48-.05l2.02.63c-.06-.27-.2-.23-.56-.55.31-.04.92.08,1.39.34-.93-.3-.14.34.17.64-.03-.09.13-.1.13-.18.81.87.38-.33,1.62.6l-.13.07c.54.21,1.09.32,1.63.64.1.36-.6-.18-.75,0,.79.4,1.77.36,2.35.96-.36-.11-.84-.36-1.2-.46.62.68.74.66,1.29,1l-.05-.04,1.25.82-.3-.25c.65-.05,1.12.16,1.78.5.16.08.32.17.48.25l.25.13c.06-.05.12-.14.18-.21.23-.31.47-.67.64-1.05-.35.75-.41.93-.3.86.1-.05.34-.28.38-.1.19-.17.44-.37.61-.53.15-.12.24-.17.23-.08.23-.72.9-.83,1.17-1.87.11.02.44-.62.55-.36.45-.82-.26.09-.32-.04.5-1.35,2.14-2.65,2.58-4.74.53-1.7.34-2.12.69-3.69.31-.47.2.54.2.54.41-.8.58-1.45.67-2.29.04.18.15.03.32-.19.14-.66-.25-.52.07-1.35.08.17.21.39.25.74.03-.4.05-.8.06-1.21-.01-.41-.02-.81,0-1.23.2-.2.19.52.25.83.09-.93.11-2.42-.14-2.72l-.14.58c.01-.33.24-.16.27.1.15.81-.2,1.13-.3,1.16.01-.19.01-.39,0-.59-.61.53-.22,2.31-.52,3.47-.09-.19-.2-.38-.31-.57.04.41.04.82.06,1.24-.17.22-.44.32-.35-.24-.41.74-.03.75-.47,1.36-.06.06-.07.02-.06-.05l-.12.81c-.04-.18-.32.03-.11-.42-.67,1.28-.5,2.29-1.01,2.67l.02-.12c-.68,1.89.23.3-.11,1.83-.38.2-.74.39-1.13.57l.17.32c-.11.18-.33.52-.4.4-.19.78.18-.05.13.44-.72.73-1.35,2.42-1.89,2.32-.01.43.69-.68.22.29-.58-.05-.67,1.07-1.4,1.61-.05-.35.58-.97-.15-.39.05.3-.23.59-.49.79l-.19.14c-.07,0-.15-.11-.22-.15-.14-.11-.25-.19-.37-.23-.03.09-.11.1-.25.07-.16-.05-.39-.16-.65-.29-.51-.26-1.15-.62-1.75-.87.12-.07-2.05-1.31-3.07-1.98l.06-.04c-.39.21-1.48-.41-2.33-.75.12-.18.3-.19.8-.05l-.78-.39c-.23.02-.52,0-1.06-.17l.31-.18c-1.1-.4-2.28-.55-3.69-1.06-.14.23.94.99-.59.76-.02-.15-.02-.39.38-.34-.13-.02-.49,0-.73-.14l.66-.07c-.63-.27-.39.1-.9-.06.05-.2-.36-.22-.25-.36.14,0,.44.19.66.16-.57-.22-1.29-.4-1.5-.61.03.12-.05.26-.49.21-1.14-.18-.35-.3-1.01-.51-.29.07-1.01-.11-1.06.18-.34-.03-.38-.17-.51-.26-.3.04-1-.01-1.54-.03-.54.02-.92.07-.59.23l.15.02s-.06,0-.1.01h0s0,0,0,0c-1.94.22-4.03-.19-5.94.07v-.1c-1.14.2-2.54.26-3.33.58-.34.04-.81-.09-.68-.22-.86.17-.95.28-2.22.29.85-.28-.32-.11.88-.24-1.14.06-1.41-.06-2.59.36.38-.31-.89-.2-1.41-.05l.81.07c-.59.12-1.12.17-1.66.22l.24-.37c-2.35-.08-4.04,1.27-5.87.8-.58.31,1.26,0,.76.34-1.06.09-2.21-.24-2.54-.22-1.45-.04-1.29.64-2.81.64.2.1.41.41-.71.6-1.07.03-1.33-.41-.67-.55.25-.03.38,0,.37.04.34-.07.78-.15.35-.25l-.13.13c-.53-.08-1.97.03-1.65-.19-.79.14-.33.22.26.24-.34-.01-.64-.02-.92-.03-.14,0-.28,0-.41,0h-.21c-.11.01-.22.02-.34.02-.06,0-.12,0-.18,0-.04-.02-.17.03-.1-.08-.03.04-.05.08-.07.12,0,.02-.01.05-.03.07-.02.04-.06.08-.12.08.1-.51.1-.61.01-.67-.06-.08-.21-.05-.09-.6.41-.67.33.37.6-.93.36-.72.35-.04.34.28.04-.6.34-1.09.62-1.49.27-.41.55-.73.77-.99-.08.19-.19.37-.24.57.11-.35.31-.59.47-.86l-.4.17c.24-.29.41-.55.49-.49.08-.41-.49.03-.24-.74.39-.34.87-1.3,1.21-1.24-1.08,1.17.35.07-.44,1.13.13-.22.33-.46.6-.73.06-.02.02.08-.03.17,1.16-.96.19-.75,1.26-1.92-.01.27.49-.03.66-.23-.47.44-.43,0-.09-.51.85-.6.74-.85,1.17-1.19-.17.12-.35.24-.51.36.03-.28.45-.6.96-1.12.14.06-.44.51-.2.38.4-.77,1.6-.94,2.34-1.83.49-.24.25.22.66,0,.84-.99,1.23-.69,2.15-1.73-.46.07-.47.16.11-.63l-1.6,1.57.87-1.19c-.51.44-.99,1.03-1.32,1.25.4-.58.38-.49,0-.44.93-.31,1.26-1.32,2.21-1.85l.37.46c.69-.45,1.18-.98,1.67-1.63.51-.61.98-1.34,1.72-2.13l-.52.47c0-.19.21-.44.45-.74.22-.32.49-.67.64-.99.12.15.46-.15.69-.4-.16-.05.77-1.48.4-1.89.19-.33.32-.7.39-1.12.01-.57-.17-1.04-.39-1.35-.21-.33-.47-.53-.71-.69-.5-.33-.99-.49-1.73-.91.28.02.26-.09.31-.15.05-.06.17-.1.74.17-.53-.35-1.01-.59-1.07-.48-.28-.28-1.58-.33-2.01-.63-.25.03-.37.2-.97.05-.06-.05.02-.09.02-.09-.03.09-.96-.08-.49.25-1.52-.97-4.58-.68-5.92-1.38-1.17-.07-2.56-.18-3.6-.31.07-.05.02-.1.21-.05-1.4-.4-.97.44-2.56-.05-.76-.47.89,0,.4-.22-.05-.34-.54-.41-1.12-.48-.28-.03-.65-.09-.88-.15-.17-.04-.28-.19-.35-.38l.15.08c-.12-.23-.36-.46-.62-.87-.25-.4-.47-.97-.47-1.59,0,0,.06.06.1,0-.17-.4-.27-1.07-.13-1.68.06-.27.15-.55.44-.7.3-.21.59-.41.86-.6-.23.43-.44.42-.1.52.49-.33-.36-.27.63-.93.42-.04,1.24-.28,1.45-.07l-.99.47c.67.1,1.26-.62,1.84-.76v.17c.77-.31,1.13-.56,1.52-.81.4-.22.82-.44,1.71-.68l-.21-.06c.87-.65.87,0,1.78-.52l.39.31c.62-.24,2.2-.87,3.38-1.17-.62.41-1.96.85-2.77,1.2.65-.13,2.19-.49,2.5-.75-.26.09-.57.25-.84.24.74-.47,1.76-.82,3.07-1.08-.08.81,3.44-.51,4.54-.24,2.22-.93,4.69-1.32,7.13-3.08-1.19.11.69-.51.17-.89.5-.43.66-.63.74-.63.57-.37,1.18-.74,1.67-1.23.44-.27-.3.6-.16.64.98-1.16.59-.33,1.36-1.05-.15.02-.13-.13,0-.37.11-.25.32-.58.59-.92-.3.29-.59.59-.9.86.46-.95.78-1.27,1.11-1.63.17-.18.34-.36.48-.65.15-.29.31-.66.38-1.25,0,.25,0,.51-.03.76.14-.58.49-1.65.42-2.82-.03-1.17-.5-2.26-.95-2.68-.03-.21,0-.54.27-.08-.55-1.37-1.68-2.49-2.77-3.32-1.1-.84-2.19-1.46-2.94-2.1l.24-.03c-.42-.22-.84-.18-1.27-.6.06-.04.24-.04.05-.15-.24-.08-1.21-.36-1.71-.71l.54.09c-2.07-1.28-3.49-1.22-5.34-1.93.18-.4-1.46-1.27-2.27-1.71l.05-.04c-.31-.14-.6-.27-.89-.4-.13-.05-.11-.03-.18-.04l-.19-.02s-.02-.08-.02-.13c0-.06-.02-.1,0-.21.1-.26.2-.52.33-.77.25-.5.51-1.02.81-1.57.66-.48,1.4-1.52,2.35-2.56.23-.27.46-.54.7-.81.25-.26.51-.51.76-.76.49-.51,1-.97,1.5-1.33-.33.2-.19-.29.1-.62.47-.34,1-1.29,1.2-.93l-.16.13c.6.03,1.41-.83,2.17-1.36l-.2-.51c.6-.22,1.21-.58,1.83-.96.62-.4,1.22-.86,1.83-1.26,1.19-.85,2.33-1.54,3.07-1.57.46-.39,1.12-.71,1.58-1.09l.1.27c1.5-.64,2.25-.96,4.1-1.78l-.3.34c1.05-.42,1.03-1.3,2.03-1.68l.44.29.35-.13c.12-.04.25-.09.27-.09l.27-.05c.16-.01.34-.07.41-.03-.01.15-.02.26,0,.36l.02.04s0-.03,0-.02l.03.1.11.41c.08.27.16.54.28.8-.08-.02-.2-.05-.29-.41.03.27.13.65.26,1.07.13.41.25.89.46,1.26.37.78.77,1.3.93.98-.16.11.14.59.58,1.15.47.51,1.06,1.11,1.5,1.47l-.33.05c.89.5.98.45,1.92,1.35.18.25.01.35-.21,0,.57.86.73.41,1.43,1.43l-.44-.22c.67.79.68.67,1.21.97.5.43,1.17,1.58,1.03,1.85.2.02.68.37.96.91-.03.12-.21-.03-.29-.11.38.76.73,1.27,1.07,1.73.29.48.55.92.67,1.5-.07.05-.1.14-.09.24-.49-1.23-.97-2.19-.93-2.11-.21.12.23,1.07-.47.5.29.32.63.78,1,1.28.35.5.58,1.09.7,1.6,0,.05-.02.11-.04.16l-.06-.09c.06.23.14.43.22.62.03.33.05.55.11.86-.09.08-.05.38.02.73.05.35.11.75.14,1.01.27-.08.32.62.46-.05,0,.09-.05-.1-.1-.45-.02-.08-.03-.17-.06-.22l.03.03c-.03-.35-.17-.8-.28-1.31.21.38.49.8.38,1.42.21.25.44.53.54.7-.13.4-.26.95-.39,1.42-.11.47-.23.86-.37.95.14,1.61-.49,3.69-.38,4.85-.1.47-.34.46-.48.59.05-.27.19-.57.16-.74-.19.93-1.04,2.63-.8,3-.65,1.07-.04-.77-.66.81v-.26c-.96,1.43-1.21,2.89-1.32,4.34-.14,1.47-.05,2.92-.37,4.82.03-.26.04-.39.1-.45-.09,2.16.37,4.38,1.15,6.46.78,2.09,1.97,3.96,3.08,5.78.67,1,.95.95,1.55,1.38l-.06.39,1.08.69c1.35,1.14,1.46,2.7,3.1,4.13v-.35c.21.33.59.82.87,1.23.25.43.43.78.29.78.07.05.31.12.37.43l-.13.09c.37.51.68,1.06,1.03,1.61.35,1.43-.65,0-.05,2,.21.73.9,2.1.94,1.79-.06-.32-.07-.83.08-.88l.23.71c.48.05,1.08.6,1.01-1.37-.18-.42-.35-.84-.6-1.24l.08-.48c.11.36.26.72.34,1.09.05-.68-.29-1.03-.54-1.42.08-.14.1-.35.06-.63-.29-.37-.63-.71-.94-1.05.1-.23.57.4.3-.47-.44-.48-.12.72-.67-.15-.13-.65.11-.58-.42-1.15.05-.15.2-.05.39.18-.44-.54-1-1.49-1.4-1.63-.15-.72-1.42-1.72-1.03-1.96-.22-.09-1.02-.65-1.42-1.09,1.12.46-1.46-1.67-.83-1.83-.89-.27-2.01-1.96-2.99-2.9.08.04.23.11.28.22-.44-.62-.39-.91-.59-1.35-.19.06-.47-.13-.75-.41-.26-.29-.55-.65-.8-.88-.09-.98.67.29.86-.13-.13.09-.39-.22-.61-.51-.2-.3-.38-.59-.45-.39-.04-.74-.12-.61.06-1.04-.53.05-.26-.59-.71-1.06-.01-1.05.32-.34,0-1.41.06-.54.39.38.39.38Zm2.15-27.11h0c.09.24.16.44.21.57-.04-.12-.1-.28-.21-.57Zm-.89-2.28c.12.27.27.61.43.97-.06.11-.19.07-.28-.16.11.1-.07-.45-.14-.82Zm-.37,5.27c-.12-.34-.09-.46-.04-.52.05.16.1.35.17.6.01,0,.03.02.04.04-.06-.02-.12-.05-.17-.11Z"/>
      <path class="cls-1" d="m809.22,151.28c.01.05.03.08.04.14.02-.08.03-.15.04-.22-.04-.04-.07-.08-.1-.11,0,.06.02.13.03.19Z"/>
      <path class="cls-1" d="m790.81,212.92h-.05s.08.02.1.03c-.03-.01-.03-.02-.05-.03Z"/>
      <polygon class="cls-1" points="786.54 132.27 786.57 132.33 786.73 132.18 786.54 132.27"/>
      <path class="cls-1" d="m803.1,216.79s.04.08.12.14c0-.02-.05-.08-.12-.14Z"/>
      <path class="cls-1" d="m808.03,219.42l.66.46c-.28-.21-.49-.35-.66-.46Z"/>
      <path class="cls-1" d="m812.33,220.53c.02-.1.01-.15,0-.2h0s0,.2,0,.2Z"/>
      <path class="cls-1" d="m765.16,203.87s.09-.08.12-.12c.26-.3.07-.11-.12.12Z"/>
      <path class="cls-1" d="m765.72,216.19c-.21.07-.42.14-.64.2.37-.02.65-.04.64-.2Z"/>
      <path class="cls-1" d="m772.92,190.05h0s-.08-.03-.12-.04l.12.04Z"/>
      <path class="cls-1" d="m764.12,216.45c.37.03.67,0,.95-.06-.3,0-.66,0-.95.06Z"/>
      <path class="cls-1" d="m820.01,202.97l.03-.21s-.03-.01-.04-.03v.24Z"/>
      <path class="cls-1" d="m819.99,202.73v-.24c-.02.11-.03.2,0,.24Z"/>
      <path class="cls-1" d="m819.94,201.99c.02.17.03.34.04.5.02-.17.04-.39-.04-.5Z"/>
      <path class="cls-1" d="m818.78,208.71l.08.09s-.03-.07-.08-.09Z"/>
      <path class="cls-1" d="m818.25,210.41c.18-.38.55-.94.67-1.53l-.06-.08c.05.31-.61,1.18-.61,1.6Z"/>
      <path class="cls-1" d="m813.9,216.36l.82-1.18c-.22.16-.52.37-.21-.2-1.21,1.37.41-.19-.61,1.38Z"/>
      <path class="cls-1" d="m811.37,219.51c.3-.44-.07-.16-.07-.26-.07.15-.12.3-.12.29,0,.06.05.08.19-.03Z"/>
      <path class="cls-1" d="m780.57,213.22l.05-.26c-.6.1,0,.1-.05.26Z"/>
      <polygon class="cls-1" points="774.56 215.34 775.17 215.42 775.41 215.15 774.56 215.34"/>
      <polygon class="cls-1" points="770.67 214.04 770.93 213.97 769.95 214.19 770.67 214.04"/>
      <path class="cls-1" d="m767.21,186.53l.14.34c.41,0,.54-.35-.14-.34Z"/>
      <path class="cls-1" d="m764.24,177.81c.28.07.94.02,1.29-.23-.51.1-1.05.11-1.29.23Z"/>
      <path class="cls-1" d="m782.54,137.71l-.31.36c.21-.2.43-.39.66-.58l-.35.21Z"/>
    </g>
  </g>
</svg>