<?xml version="1.0" encoding="UTF-8"?>
<svg id="Capa_1" data-name="Capa 1" xmlns="http://www.w3.org/2000/svg" viewBox="0 0 884.09 510.82">
  <defs>
    <style>
      .cls-1 {
        fill: #fff;
      }

      .cls-2 {
        fill: #543192;
      }

      .cls-3 {
        fill: #c1272d;
      }

      .cls-4 {
        fill: #4d4d4d;
      }

      .cls-5 {
        fill: #f15a24;
      }

      .cls-6 {
        fill: #29637e;
      }

      .cls-7 {
        fill: #29b1ff;
      }

      .cls-8 {
        fill: #333;
      }

      .cls-9 {
        fill: #e6e6e6;
      }

      .cls-10 {
        fill: #2e3192;
      }

      .cls-11 {
        fill: #2e1b61;
      }

      .cls-12 {
        fill: #00577e;
      }

      .cls-13 {
        fill: #0e0e0e;
      }

      .cls-14 {
        fill: #1b1464;
      }

      .cls-15 {
        fill: none;
      }

      .cls-16 {
        fill: #999;
      }

      .cls-17 {
        fill: #ccc;
      }

      .cls-18 {
        fill: #b3b3b3;
      }

      .cls-19 {
        fill: #1a1a1a;
      }

      .cls-20 {
        fill: #00d0bc;
      }

      .cls-21 {
        fill: #00a99d;
      }

      .cls-22 {
        fill: #29abe2;
      }

      .cls-23 {
        fill: #9e272d;
      }

      .cls-24 {
        fill: #fbb03b;
      }

      .cls-25 {
        fill: #666;
      }
    </style>
  </defs>
  <path d="m666.59,288c0,24.75,4.18,48.9,4.69,73.38h25.86c-8.28-18.68-18.12-35.67-26.55-53.38-3-6-2-13-4-20Z"/>
  <path class="cls-23" d="m869.78,111.27c-.74.39-1.47.8-2.2,1.25-16.49,10.29-30.92,24.69-50.51,25.72,0,2.06-1.03,3.09-2.06,3.09-11.34,0-21.65,0-31.95,6.17-3.09,1.03-6.18,0-9.28,0,3.09-4.11,8.25-7.2,12.37-11.32,2.06-1.03,5.15,0,7.22-1.03,3.09-3.09,6.18-6.17,9.28-7.2,16.49-9.26,30.92-18.52,43.29-32.92,1.03-1.03,4.12,1.03,5.15,0,2.58-1.52,5.05-3.3,7.45-5.25-30.43-49.37-85.06-82.29-147.4-82.29h-109.4c-12.95,6.66-23.49,16.32-27.92,33.02h-4.12c-3.09,8.23-10.31,14.4-18.55,17.49,4.76-18.99,20.92-30.98,26.63-50.5H220.17c-3.99,0-7.94.15-11.85.41,13.78,8.73,23.95,23.33,37.72,33.63,5.15,4.11,10.31,9.26,17.52,11.32-14.43,3.09-23.71-4.11-35.05-14.4-8.25-6.17-22.68,1.03-32.98-6.17-3.09-2.06-7.22,0-10.31-4.11-1.03-1.03-6.18,1.03-6.18,0-2.06-4.11-6.18-4.11-8.25-5.14-5.88-2.51-12.44-.93-18.02-1.93-48.66,20.57-85.92,62.74-99.73,114.46,4.11.68,8.31.93,12.61.62,0,0,0,3.09,1.03,3.09,3.09,1.03,6.18-1.03,8.25,0,9.28,10.29,21.65,15.43,35.05,18.52,7.22,1.03,7.22,11.32,10.31,17.49.5,1.5,1.74,2.76,3.47,3.53,2.26.54,4.55.77,6.84.58-2.65.53-5.02.24-6.84-.58-9.97-2.37-19.42-10.66-26.14-14.85-11.34-8.23-30.92-2.06-47.42-3.09-.56,0-1.13-.92-1.69-1.76-.84,6.88-1.27,13.88-1.27,20.99h0c0,95.32,77.43,172.6,172.95,172.6h456.85c-1.33-20.67-4.25-41.23-4.25-62.21,2.06,7.2,1.03,14.4,4.12,20.57,6.65,13.94,14.15,27.45,21.14,41.63h13.11c25.1,0,48.94-5.34,70.46-14.94l-20.71-27.7-34.02-71.33,73.3,89.36c50.27-30.19,83.91-85.17,83.91-147.99h0c0-24.47-5.11-47.74-14.31-68.82Z"/>
  <path d="m140.59,180c-2.22.19-4.44-.04-6.64-.57,1.77.8,4.07,1.08,6.64.57Z"/>
  <path d="m869.67,109.85c-4.79.83-9.52,2.3-14.08,5.15-16,10-30,24-49,25,0,2-1,3-2,3-11,0-21,0-31,6-3,1-6,0-9,0,3-4,8-7,12-11,2-1,5,0,7-1,3-3,6-6,9-7,16-9,30-18,42-32,1-1,4,1,5,0,6-3.53,11.38-8.56,16.71-13.62C824.29,33.68,767.79,0,703.4,0h-69.85c-26.04,8.17-54.91,14.58-62.96,45h-4c-3,8-10,14-18,17,5-20,23-32,27-54,.24-2.61,1.44-5.28,2.99-8H227.91c-17.22,0-33.87,2.41-49.65,6.91,9.13,1.53,21.54-.5,29.32,2.09,18,7,29,25,45,37,5,4,10,9,17,11-14,3-23-4-34-14-8-6-22,1-32-6-3-2-7,0-10-4-1-1-6,1-6,0-2-4-6-4-8-5-7-3-15,0-21-3-3.62-1.81-7.86-3.62-11.97-5.71-45.5,22.96-79.96,64.59-93.33,114.82,7.73,2.9,15.83,4.5,24.3,3.89,0,0,0,3,1,3,3,1,6-1,8,0,9,10,21,15,34,18,7,1,7,11,10,17,.49,1.46,1.69,2.68,3.36,3.43,2.2.52,4.42.75,6.64.57-2.57.51-4.87.23-6.64-.57-9.67-2.3-18.84-10.36-25.36-14.43-11-8-30-2-46-3-1,0-2-3-3-3-3.72.23-7.41.24-11.08.08-.84,7.09-1.29,14.3-1.29,21.61h0c0,99.79,80.9,180.69,180.69,180.69h443.37c-.51-24.48-4.69-48.63-4.69-73.38,2,7,1,14,4,20,8.43,17.7,18.27,34.7,26.55,53.38h6.26c27.37,0,53.31-6.1,76.56-16.99l-27.87-37.37-33-69.34,79.22,96.77c51.48-31.84,85.78-88.79,85.78-153.77h0c0-25.14-5.14-49.08-14.42-70.83Z"/>
  <path class="cls-3" d="m666.59,288c0,20.39,2.84,40.38,4.13,60.47h20.38c-6.77-13.79-14.05-26.92-20.51-40.47-3-6-2-13-4-20Z"/>
  <path class="cls-3" d="m140.59,180c-2.22.19-4.44-.04-6.64-.57,1.77.8,4.07,1.08,6.64.57Z"/>
  <path class="cls-3" d="m857.72,113.78c-.71.38-1.42.77-2.13,1.22-16,10-30,24-49,25,0,2-1,3-2,3-11,0-21,0-31,6-3,1-6,0-9,0,3-4,8-7,12-11,2-1,5,0,7-1,3-3,6-6,9-7,16-9,30-18,42-32,1-1,4,1,5,0,2.51-1.47,4.9-3.21,7.23-5.1-29.52-47.99-82.52-79.99-143-79.99h-106.14c-12.56,6.47-22.79,15.86-27.09,32.1h-4c-3,8-10,14-18,17,4.62-18.46,20.3-30.11,25.83-49.1H227.5c-3.87,0-7.7.14-11.5.4,13.36,8.49,23.24,22.68,36.59,32.7,5,4,10,9,17,11-14,3-23-4-34-14-8-6-22,1-32-6-3-2-7,0-10-4-1-1-6,1-6,0-2-4-6-4-8-5-5.7-2.44-12.07-.91-17.48-1.88-47.21,20-83.36,60.99-96.75,111.27,3.99.66,8.07.9,12.23.61,0,0,0,3,1,3,3,1,6-1,8,0,9,10,21,15,34,18,7,1,7,11,10,17,.49,1.46,1.69,2.68,3.36,3.43,2.2.52,4.42.75,6.64.57-2.57.51-4.87.23-6.64-.57-9.67-2.3-18.84-10.36-25.36-14.43-11-8-30-2-46-3-.55,0-1.1-.9-1.64-1.71-.81,6.69-1.23,13.49-1.23,20.4h0c0,92.67,75.12,167.78,167.78,167.78h443.22c-1.29-20.1-4.13-40.08-4.13-60.47,2,7,1,14,4,20,6.45,13.55,13.73,26.68,20.51,40.47h12.72c24.35,0,47.48-5.19,68.36-14.52l-20.09-26.93-33-69.34,71.11,86.87c48.77-29.35,81.4-82.79,81.4-143.86h0c0-23.78-4.96-46.41-13.88-66.9Z"/>
  <g>
    <path d="m627.93,216.85l-7.43,26.07,7.43,23.54,7.25,39.43,10.9,27.97,9.6,11.51h14.5l2.5-27.99s13-12.72,11-21.21-21.5-35.49-21.5-36.99-12-18.38-12-21.69-7.5-21.81-9.5-22.81-12.75,2.19-12.75,2.19Z"/>
    <path d="m460.22,249.16l-29.6-10.22-28.04,4.85-46.49,2.95-33.5,7.83-14.26,8.32-1.34,14.44,32.29,5.52s13.58,14.32,23.63,13.25,43.23-17.57,44.98-17.41,22.47-9.96,26.31-9.6,26.04-5.11,27.38-6.99-1.36-12.93-1.36-12.93Z"/>
    <g>
      <g>
        <path class="cls-6" d="m321.18,273.01l6.86,29.23,73.26-19.26c8.29-2.18,13.47-10.77,11.5-19.17-.66-2.79-2.03-5.19-3.85-7.08-8.69-.25-17.34-.64-25.92-.87l-61.84,17.15Z"/>
        <path class="cls-8" d="m327.25,301.63c.68.34,1.46.43,2.37.19,4.55-1.2,6.7-8.74,4.8-16.84-.39-1.65-.92-3.18-1.55-4.59-8.17,2.99-7.36,12.91-5.63,21.24h0Z"/>
        <path class="cls-19" d="m322.77,272.57c-4.51,1.25-2.73,7.72-.84,15.78,1.51,6.44,2.63,11.92,5.33,13.27-1.73-8.33-2.56-18.25,5.63-21.24-2.46-5.49-6.51-8.82-10.11-7.82h0Z"/>
        <path class="cls-14" d="m36.27,351.65h0c34.6-12.76,47.57,8.44,51.99,16.17l4.05,7.09-36.83,10.73-19.2-34h0Z"/>
        <path class="cls-14" d="m337.94,264.76l10.99,19.07c13.86-3.35,27.27-7.68,39.82-14.32,4.62-2.49,6.99-7.75,9.77-13.14-9.52-.34-18.98-.71-28.34-.71-10.28-.69-21.03,5.67-32.25,9.1Z"/>
        <path class="cls-12" d="m461.39,271.23c-2.46-4.14-5.82-9.63-10.27-15.53-17.63,1.86-35.22,1.31-52.6.68-2.78,5.39-5.15,10.65-9.77,13.14-12.56,6.65-25.97,10.98-39.82,14.32l24.03,41.69,100.32-34.29-11.89-20.01Z"/>
        <path class="cls-6" d="m450.04,416.47l-92.37,18.35-9.73-41.48,91.96-20.1c12.1-2.64,24.29,4.96,27.12,17.03h0c2.83,12.05-4.82,23.81-16.97,26.22h0Z"/>
        <path class="cls-19" d="m355.9,397.07c-2.62-2.84-5.51-4.27-8.17-3.69-5.76,1.26-3.28,10.46-.6,21.88s4.54,20.75,10.33,19.6c.96-.19,1.83-.64,2.6-1.29-5.2-11.37-6.21-24.13-4.16-36.49h0Z"/>
        <path class="cls-8" d="m363.13,411.92c-1.46-6.22-4.15-11.51-7.23-14.85-2.04,12.36-1.04,25.12,4.16,36.49,3.91-3.3,5.32-12.04,3.07-21.65h0Z"/>
        <path class="cls-25" d="m73.23,376.05c-21.27-.9-39.84,7.82-58.7,13.53l8.13,34.67,12.46,1.66c6.61-6.67,11.81-15.91,16.76-24.65,5.54-10.05,14.87-15.59,21.35-25.21Z"/>
        <path class="cls-4" d="m9.55,309.77c-.09-.4-.11-.77-.09-1.12-.29-.28-.58-.56-.88-.85-3.13-2.96-11.78,6.23-7.35,25.1l13.3,56.68c2.71-.82,5.41-1.71,8.13-2.62,5.38-24.12-14.09-50.62-13.11-77.21h0Z"/>
        <path class="cls-8" d="m107.98,443.56l22.71-4.44c3.65-2.73,6.53-10.33,9.66-15.87-19.6,4.57-39.32,9.17-59.17,13.82l26.81,6.49h0Z"/>
        <path class="cls-19" d="m73.23,376.05c-6.46,9.62-15.8,15.16-21.35,25.21-4.96,8.73-10.15,17.97-16.76,24.65l46.06,11.16c19.84-4.64,39.57-9.24,59.17-13.82,1.05-1.86,2.12-3.5,3.26-4.63,1.17-1.09,7.72-9.97,8.73-11.85,18.62-27.8,38.99-53.32,63.6-75.39-53.98,15.52-109.75,27.72-164.26,46.75,6.95-1.52,14.09-2.4,21.57-2.08h-.01Z"/>
        <path class="cls-13" d="m228.7,320.91l-174.82,48.59s-14.01-31.69-44.4-60.85c-.03.36,0,.72.09,1.12-.98,26.59,18.49,53.09,13.11,77.21,9.5-3.18,19.04-6.67,29-8.84,54.52-19.04,110.29-31.24,164.26-46.75,3.35-3.01,6.79-5.96,10.3-8.84.77-.73,1.61-1.23,2.46-1.65h0Z"/>
        <path class="cls-9" d="m413.8,269.47h0s-185.11,51.44-185.11,51.44c-.85.41-1.68.93-2.46,1.65-3.52,2.88-6.94,5.82-10.3,8.84,3.54-1.02,7.07-2.04,10.58-3.09,94.19-27.83,185.54-50.03,274.74-68.85,36.33-7.13,70.63-24.98,108.27-18.47,3.71.62,7.36,1.26,10.98,1.94,2.28-3.3,4.73-10.96,7.43-13.9-55.64-5.92-124.3,18.33-214.13,40.43Z"/>
        <path class="cls-16" d="m130.69,439.13l136.26-35.68c6.66-4.7,13.54-9.2,20.61-13.69.64-.35,1.26-.72,1.9-1.07-48.9,11.28-98.6,22.81-149.1,34.58-3.12,5.54-6.01,13.14-9.66,15.87h0Z"/>
        <path class="cls-7" d="m628.01,229.04s-.05,0-.07,0h-.01c-2.68,2.92-5.15,10.59-7.43,13.89,4.96.93,9.84,1.92,14.68,3.01-.42-2.34-.99-4.73-2-7.26-1.12-1.86-2.97-8.14-5.17-9.62Z"/>
        <path class="cls-14" d="m60.04,470.29h0c44.65-3.65,44.57-38.8,44.19-51.44l-.35-11.6-45.67,7.77,1.82,55.27h0Z"/>
        <path class="cls-19" d="m17.68,389.41c-.51-.31-1.08-.45-1.68-.33-3.61.69-.73,8.35,1.08,17.95,1.81,9.59,1.87,17.46,5.48,16.82.23-.04.44-.1.63-.21-5.48-10.6-7.26-22.79-5.5-34.24h0Z"/>
        <path class="cls-22" d="m650.18,276.67c-2-1-2-4-4-3-1-3-1-6-3-7-6.73-7.48-6.75-13.83-8-20.74-4.84-1.08-9.73-2.08-14.69-3.01-.46.67-.91,1.35-1.36,2.03-1.33,2.06-2.57,4.2-3.7,6.42-1.97,3.37-3.58,6.93-5.03,10.6-1.16,2.93-2.24,5.93-3.32,8.94-.82,2.26-1.64,4.52-2.53,6.78-.59,1.5-1.21,3-1.87,4.47-.66,1.48-1.36,2.95-2.11,4.4-2.3,4.64-5.32,8.46-8.83,11.62-1.05.95-2.16,1.84-3.3,2.67-.89.65-1.8,1.26-2.74,1.85-.66.42-1.34.83-2.02,1.21-1.23.7-2.5,1.35-3.79,1.96-.43.2-.86.4-1.3.59-3.21,1.42-13.23,3.96-16.65,4.93l3.4,14.49c12.14-2.7,30.88-6.76,42.92-9.42,17.07-4.03,34.27-6.54,51.46-8.5-.99-4.21-2.5-8.35-4.55-12.31-3-6,0-14-5-19Z"/>
        <path class="cls-8" d="m17.68,389.41c-1.76,11.45.02,23.64,5.5,34.24,2.88-1.45,1.88-9.18.18-18.19-1.51-8.01-3.1-14.48-5.69-16.05h0Z"/>
        <path class="cls-9" d="m648.96,275.59c-4.49,3.63-8.65,5.68-10.39,6.49h0c4.98,2.04,10,4.09,15.03,6.14-.28-4.21-.31-8.45-3.41-11.55-.52-.26-.9-.65-1.22-1.08Z"/>
        <path class="cls-17" d="m609.52,240.98c-37.63-6.52-71.93,11.34-108.27,18.47-89.2,18.83-180.54,41.02-274.74,68.85-3.52,1.05-7.05,2.08-10.58,3.09-24.6,22.06-44.97,47.59-63.6,75.39-1.01,1.88-7.55,10.76-8.73,11.85-1.14,1.14-2.22,2.77-3.26,4.63,50.52-11.78,100.21-23.3,149.1-34.58,12.47-7.1,24.32-14.67,37.95-18.67,24.82-8.29,50.55-15.04,77.02-21.28v.02s.03,0,.03,0c4.82-1.13,9.66-2.26,14.53-3.36,2.43-.55,4.88-1.1,7.32-1.65,14.66-3.3,29.55-6.52,44.63-9.85,9.7-2.14,36.53-8.26,46.37-10.53l-7.94-33.85c-1.15-4.9,1.89-9.8,6.79-10.95l27.2-6.63c4.9-1.15,9.8,1.89,10.95,6.79l7.68,32.73c3.43-.98,13.44-3.51,16.65-4.93.44-.19.87-.39,1.3-.59,1.29-.61,2.56-1.26,3.79-1.96.68-.39,1.36-.79,2.02-1.21.93-.59,1.84-1.2,2.74-1.85,1.14-.83,2.23-1.73,3.3-2.67,3.51-3.17,6.53-6.99,8.83-11.62.76-1.45,1.45-2.92,2.11-4.4.66-1.48,1.28-2.97,1.87-4.47.89-2.25,1.72-4.51,2.53-6.78,1.09-3.01,2.15-6.01,3.32-8.94,1.45-3.67,3.06-7.23,5.03-10.6,1.13-2.23,2.38-4.36,3.7-6.42.44-.69.9-1.37,1.36-2.03-3.62-.68-7.27-1.32-10.98-1.94Z"/>
        <g>
          <path class="cls-21" d="m97.93,388.3c.53.09,1.07.1,1.61-.04,2.37-.59,3.77-3.32,3.12-6.09l-.03-.11c-1.05,2.21-2.77,4.27-4.7,6.24h0Z"/>
          <path class="cls-21" d="m138.17,378.85c.61.1,1.24.11,1.86-.05,2.75-.69,4.37-3.81,3.62-6.97,0-.04-.03-.08-.04-.12-1.23,2.53-3.22,4.88-5.44,7.14Z"/>
          <path class="cls-21" d="m178.41,369.4c.68.12,1.41.12,2.11-.05,3.12-.77,4.96-4.29,4.13-7.85-.01-.05-.03-.09-.04-.13-1.4,2.84-3.66,5.49-6.2,8.04h0Z"/>
          <path class="cls-21" d="m218.65,359.95c.77.13,1.57.12,2.37-.07,3.48-.87,5.56-4.78,4.63-8.72-.01-.05-.03-.1-.05-.15-1.57,3.16-4.1,6.11-6.94,8.94h0Z"/>
          <path class="cls-21" d="m258.9,350.51c.85.14,1.74.14,2.61-.08,3.85-.96,6.15-5.25,5.13-9.6-.01-.06-.03-.1-.06-.16-1.74,3.48-4.54,6.73-7.69,9.85h0Z"/>
          <path class="cls-21" d="m299.13,341.06c.93.15,1.9.15,2.87-.09,4.22-1.05,6.75-5.74,5.64-10.47-.01-.06-.05-.11-.06-.18-1.9,3.8-4.98,7.34-8.44,10.74Z"/>
          <path class="cls-21" d="m339.37,331.61c1.01.16,2.06.16,3.12-.11,4.59-1.14,7.34-6.22,6.14-11.35-.02-.07-.05-.13-.07-.19-2.08,4.11-5.43,7.95-9.18,11.65h0Z"/>
          <path class="cls-21" d="m379.61,322.16c1.1.18,2.23.18,3.36-.11,4.96-1.24,7.94-6.71,6.64-12.23-.02-.08-.05-.14-.07-.21-2.25,4.43-5.88,8.57-9.94,12.55Z"/>
          <path class="cls-21" d="m419.85,312.71c1.18.2,2.39.18,3.62-.12,5.33-1.32,8.53-7.19,7.14-13.11-.02-.08-.06-.15-.07-.23-2.42,4.75-6.32,9.19-10.68,13.44h0Z"/>
          <path class="cls-21" d="m460.09,303.26c1.26.21,2.56.19,3.86-.13,5.7-1.41,9.13-7.68,7.65-13.98-.02-.09-.06-.16-.08-.24-2.59,5.07-6.76,9.8-11.43,14.35h0Z"/>
        </g>
        <g>
          <path class="cls-20" d="m102.63,382.07c-.69-2.71-3.1-4.42-5.44-3.82-2.36.61-3.75,3.32-3.1,6.09.5,2.13,2.07,3.65,3.84,3.97,1.93-1.97,3.65-4.03,4.7-6.24Z"/>
          <path class="cls-20" d="m143.61,371.72c-.79-3.09-3.57-5.04-6.27-4.35-2.73.69-4.34,3.81-3.6,6.97.57,2.43,2.37,4.17,4.43,4.53,2.23-2.26,4.22-4.62,5.44-7.14Z"/>
          <path class="cls-20" d="m184.6,361.37c-.89-3.48-4.03-5.66-7.1-4.88-3.1.79-4.94,4.29-4.11,7.85.64,2.74,2.69,4.68,5.01,5.08,2.54-2.55,4.8-5.19,6.2-8.04h0Z"/>
          <path class="cls-20" d="m225.59,351.01c-.99-3.86-4.5-6.28-7.94-5.41-3.47.88-5.53,4.78-4.61,8.71.71,3.04,3,5.19,5.6,5.64,2.84-2.83,5.37-5.78,6.94-8.94h0Z"/>
          <path class="cls-20" d="m266.58,340.67c-1.08-4.25-4.97-6.9-8.76-5.95-3.84.97-6.13,5.26-5.11,9.59.78,3.34,3.3,5.71,6.18,6.19,3.15-3.12,5.95-6.37,7.69-9.85h0Z"/>
          <path class="cls-20" d="m307.57,330.31c-1.18-4.62-5.43-7.52-9.59-6.47-4.21,1.06-6.72,5.75-5.62,10.47.85,3.64,3.62,6.23,6.77,6.74,3.45-3.41,6.54-6.95,8.44-10.74h0Z"/>
          <path class="cls-20" d="m348.56,319.97c-1.28-5.01-5.89-8.14-10.43-7-4.58,1.15-7.32,6.23-6.12,11.35.93,3.94,3.92,6.74,7.35,7.3,3.76-3.7,7.11-7.53,9.18-11.65h0Z"/>
          <path class="cls-20" d="m389.55,309.61c-1.38-5.4-6.37-8.76-11.26-7.53-4.95,1.24-7.91,6.71-6.61,12.22,1,4.24,4.24,7.25,7.93,7.86,4.06-3.98,7.69-8.12,9.94-12.55Z"/>
          <path class="cls-20" d="m430.54,299.26c-1.48-5.78-6.83-9.38-12.09-8.06-5.32,1.33-8.5,7.19-7.12,13.09,1.07,4.55,4.54,7.77,8.53,8.41,4.37-4.26,8.26-8.7,10.68-13.44Z"/>
          <path class="cls-20" d="m471.53,288.91c-1.57-6.16-7.3-10-12.91-8.6-5.68,1.43-9.1,7.68-7.62,13.97,1.14,4.85,4.86,8.29,9.11,8.97,4.67-4.55,8.84-9.29,11.43-14.35h0Z"/>
        </g>
        <path class="cls-15" d="m588.46,300.87c-.89.65-1.8,1.26-2.74,1.85.93-.59,1.84-1.2,2.74-1.85Z"/>
        <path class="cls-15" d="m591.76,298.2c3.51-3.17,6.53-6.99,8.83-11.62.76-1.45,1.45-2.92,2.11-4.4-.66,1.48-1.36,2.95-2.11,4.4-2.3,4.64-5.32,8.46-8.83,11.62Z"/>
        <path class="cls-15" d="m607.09,270.92c-.82,2.26-1.64,4.52-2.53,6.78.89-2.25,1.72-4.51,2.53-6.78Z"/>
        <path class="cls-15" d="m610.41,261.99c-1.16,2.93-2.24,5.93-3.31,8.94,1.09-3.01,2.15-6.01,3.31-8.94Z"/>
        <path class="cls-15" d="m619.14,244.96c-1.33,2.06-2.57,4.2-3.7,6.42,1.13-2.23,2.38-4.36,3.7-6.42Z"/>
        <path class="cls-15" d="m591.76,298.2c-1.05.95-2.16,1.84-3.3,2.67,1.14-.83,2.23-1.73,3.3-2.67Z"/>
        <path class="cls-15" d="m604.56,277.7c-.59,1.5-1.21,3-1.87,4.47.66-1.48,1.28-2.97,1.87-4.47Z"/>
        <path class="cls-22" d="m517.3,323.33c-9.85,2.27-36.67,8.39-46.37,10.53-15.08,3.33-29.95,6.55-44.63,9.85-2.45.55-4.89,1.11-7.32,1.65-4.86,1.11-9.71,2.23-14.53,3.36h-.02c-26.48,6.25-52.2,13-77.02,21.29-13.63,4-25.48,11.58-37.95,18.67h0c72.95-16.83,161.21-37.03,230.81-52.68l-2.97-12.67h0Z"/>
        <path class="cls-22" d="m470.92,333.86c-15.08,3.33-29.95,6.55-44.63,9.85,14.66-3.3,29.55-6.52,44.63-9.85Z"/>
        <path class="cls-22" d="m585.72,302.72c-.66.42-1.34.83-2.02,1.21.68-.39,1.36-.79,2.02-1.21Z"/>
        <path class="cls-22" d="m583.71,303.93c-1.23.7-2.5,1.35-3.79,1.96,1.29-.61,2.56-1.26,3.79-1.96Z"/>
        <path class="cls-22" d="m327.4,370c24.82-8.29,50.55-15.04,77.02-21.28-26.48,6.24-52.2,13-77.02,21.28-13.63,4-25.48,11.58-37.95,18.67h0c12.47-7.1,24.32-14.67,37.95-18.67Z"/>
        <path class="cls-22" d="m561.97,311.42c3.43-.98,13.44-3.51,16.65-4.93-3.21,1.42-13.23,3.96-16.65,4.93h0Z"/>
        <path class="cls-22" d="m404.46,348.72c4.82-1.13,9.66-2.26,14.53-3.36-4.86,1.11-9.71,2.23-14.53,3.36Z"/>
        <path class="cls-22" d="m470.92,333.86c9.7-2.14,36.53-8.26,46.37-10.53h0c-9.85,2.27-36.67,8.39-46.37,10.53Z"/>
        <path class="cls-10" d="m289.45,388.67c-.63.35-1.26.72-1.89,1.07-7.08,4.49-13.94,8.99-20.61,13.69l256.96-51.91-3.64-15.53c-69.59,15.66-157.86,35.86-230.81,52.68h0Z"/>
        <path class="cls-10" d="m659.74,307.98c-17.19,1.95-34.38,4.46-51.46,8.49-12.04,2.66-30.78,6.72-42.92,9.42h.01s4.01,17.1,4.01,17.1l89.24-9.14c.46-5.52,2.41-20.37,1.12-25.87Z"/>
        <path class="cls-18" d="m556.85,312.74c1.71-.4,3.43-.85,5.12-1.33l-7.68-32.73c-1.15-4.9-6.05-7.94-10.95-6.79l-27.2,6.63c-4.9,1.15-7.94,6.05-6.79,10.95l7.94,33.85c20.78-4.78,18.18-4.63,39.56-10.58h0Z"/>
        <path class="cls-10" d="m517.3,323.33l2.97,12.67c23.11-5.2,22.34-5.02,45.1-10.09l-3.4-14.49c-1.7.48-3.4.92-5.12,1.33-21.37,5.96-18.77,5.8-39.56,10.58h0Z"/>
        <path class="cls-20" d="m556.85,312.74c-21.37,5.96-18.77,5.8-39.56,10.58h0c20.78-4.78,18.18-4.63,39.56-10.58,1.71-.4,3.43-.85,5.12-1.33h0c-1.7.48-3.4.92-5.12,1.33Z"/>
        <path class="cls-11" d="m520.27,335.99l3.64,15.53,45.47-8.52-4.01-17.1c-22.76,5.06-21.99,4.88-45.1,10.09Z"/>
        <path class="cls-12" d="m416.5,383.47c4.34-17.88,11.79-39.26,26.47-52.28-4.46.87-9.07,1.88-13.82,3.06-22.06,5.48-39.03,12.61-50.18,18.02l-8.16,151.65c3.14-3.18,6.09-6.58,8.8-10.25,25.15-33.72,27.43-72.13,36.87-110.2h.01Z"/>
        <path class="cls-14" d="m442.97,331.19c-14.68,13.02-22.14,34.39-26.47,52.28-9.44,38.07-11.72,76.49-36.87,110.2-2.72,3.67-5.66,7.07-8.8,10.25l-.37,6.9h0c105.35-8.78,114.63-112.14,117.17-149.86l2.35-34.84c-11.54.25-27.86,1.35-46.99,5.07h0Z"/>
      </g>
      <path class="cls-24" d="m131.76,364.78l-35.87-65.74v51.9l-44.98-36.33s-.86,39.79,0,53.63,18.16,55.36,22.49,57.95c4.32,2.59,76.12,5.19,76.12,5.19l97.74-97.74-13.9-96.88-2.6-53.63s-12.92,23.35-12.92,26.81-28.71,48.55-28.71,48.55l-23.53-75.36s-10.17,89.96-10.1,95.15,1.71,68.33,1.32,69.2-28.22-115.91-28.22-115.91l3.15,133.21Z"/>
      <path class="cls-5" d="m134.04,357.13l-31.1-57v45l-39-31.5s-.75,34.5,0,46.5,15.75,48,19.5,50.25,66,4.5,66,4.5l84.75-84.75-12.05-84-2.25-46.5s-11.2,20.25-11.2,23.25-24.89,42.09-24.89,42.09l-20.41-65.34s-8.82,78-8.76,82.5,1.48,59.25,1.15,60-24.47-100.5-24.47-100.5l2.73,115.5Z"/>
      <path class="cls-3" d="m139.01,357.42l-20.7-37.93v29.95l-25.95-20.96s-.5,22.96,0,30.95,10.48,31.94,12.98,33.44,43.92,2.99,43.92,2.99l56.4-56.4-8.02-55.9-1.5-30.95s-7.45,13.48-7.45,15.47-16.57,28.01-16.57,28.01l-13.58-43.49s-5.87,51.91-5.83,54.9.99,39.43.76,39.93-16.28-66.88-16.28-66.88l1.82,76.87Z"/>
      <path class="cls-2" d="m142.14,362.65l-14.14-25.92v20.46l-17.73-14.32s-.34,15.69,0,21.15,7.16,21.83,8.87,22.85,30.01,2.05,30.01,2.05l38.54-38.54-5.48-38.2-1.02-21.15s-5.09,9.21-5.09,10.57-11.32,19.14-11.32,19.14l-9.28-29.71s-4.01,35.47-3.98,37.52.68,26.94.52,27.28-11.13-45.7-11.13-45.7l1.24,52.52Z"/>
    </g>
  </g>
  <g>
    <path d="m283.58,115.99l5.87,17.21-22.25,7.59,17.75,52.03-18.79,6.41-17.75-52.03-22.25,7.59-5.87-17.21,63.3-21.6Z"/>
    <path d="m292.78,112.85l18.79-6.41,23.62,69.24-18.79,6.41-23.62-69.24Z"/>
    <path d="m384.77,81.47l15.63-5.33,23.62,69.24-18.79,6.41-13.16-38.58-9.61,29.45-1.48.51-25.47-17.37,13.13,38.48-18.79,6.41-23.62-69.24,15.53-5.3,31.35,21.33,11.68-36.01Z"/>
    <path d="m451.74,116.93l38.58-13.16,5.8,17.01-57.37,19.57-23.62-69.24,56.68-19.33,5.8,17.01-37.88,12.92,3.27,9.59,24.04-8.2,5.4,15.83-24.04,8.2,3.34,9.79Z"/>
  </g>
  <g>
    <path class="cls-1" d="m275.3,106.71l5.87,17.21-22.25,7.59,17.75,52.03-18.79,6.41-17.75-52.03-22.25,7.59-5.87-17.21,63.3-21.6Z"/>
    <path class="cls-1" d="m284.5,103.57l18.79-6.41,23.62,69.24-18.79,6.41-23.62-69.24Z"/>
    <path class="cls-1" d="m376.49,72.19l15.63-5.33,23.62,69.24-18.79,6.41-13.16-38.58-9.61,29.45-1.48.51-25.47-17.37,13.13,38.48-18.79,6.41-23.62-69.24,15.53-5.3,31.35,21.33,11.68-36.01Z"/>
    <path class="cls-1" d="m443.47,107.65l38.58-13.16,5.8,17.01-57.37,19.57-23.62-69.24,56.68-19.33,5.8,17.01-37.88,12.92,3.27,9.59,24.04-8.2,5.4,15.83-24.04,8.2,3.34,9.79Z"/>
  </g>
  <g>
    <path d="m494.14,206.49c-4.45,9.29-12.28,15.84-23.49,19.66s-21.43,3.43-30.66-1.19c-9.23-4.62-15.58-12-19.04-22.16-3.46-10.15-2.95-19.88,1.53-29.18,4.48-9.3,12.33-15.86,23.54-19.68,11.21-3.82,21.42-3.42,30.61,1.21,9.2,4.63,15.53,12.02,18.99,22.17,3.46,10.16,2.97,19.88-1.48,29.16Zm-44.62,1.42c4.48,2.34,9.52,2.55,15.12.64,5.6-1.91,9.45-5.16,11.53-9.73,2.08-4.57,2.2-9.57.36-14.97-1.84-5.41-5.01-9.29-9.5-11.67-4.49-2.37-9.5-2.61-15.04-.72-5.61,1.91-9.46,5.18-11.56,9.8-2.11,4.62-2.24,9.63-.39,15.04,1.84,5.41,5,9.28,9.48,11.62Z"/>
    <path d="m535.92,202.23l-50.52-59.07-.3-.89,20.38-6.95,33.04,41.18.99-52.79,20.38-6.95.3.89-3.89,77.63-20.38,6.95Z"/>
    <path d="m604.8,159.75l38.58-13.16,5.8,17.01-57.37,19.57-23.62-69.24,56.68-19.33,5.8,17.01-37.88,12.92,3.27,9.59,24.04-8.2,5.4,15.83-24.04,8.2,3.34,9.79Z"/>
    <path d="m702.07,117.95l24.35,18.3.3.89-19.78,6.75-21.86-16.83-13.26,4.52,7.42,21.76-18.79,6.41-23.62-69.24,37.29-12.72c7.25-2.47,13.99-2.31,20.21.5,6.22,2.81,10.53,7.71,12.91,14.7,1.6,4.68,1.93,9.21.99,13.58-.94,4.37-3,8.16-6.17,11.38Zm-40.84-17.43l5.26,15.43,16.02-5.47c2.64-.9,4.51-2.31,5.62-4.24,1.11-1.92,1.26-4.07.45-6.45-.81-2.37-2.24-3.98-4.3-4.83-2.05-.84-4.4-.82-7.04.08l-16.02,5.47Z"/>
  </g>
  <g>
    <path class="cls-1" d="m485.97,198.04c-4.45,9.29-12.28,15.84-23.49,19.66s-21.43,3.43-30.66-1.19c-9.23-4.62-15.58-12-19.04-22.16-3.46-10.15-2.95-19.88,1.53-29.18,4.48-9.3,12.33-15.86,23.54-19.68,11.21-3.82,21.42-3.42,30.61,1.21,9.2,4.63,15.53,12.02,18.99,22.18,3.46,10.16,2.97,19.88-1.48,29.16Zm-44.62,1.42c4.48,2.34,9.52,2.55,15.12.64,5.6-1.91,9.45-5.16,11.53-9.73,2.08-4.57,2.2-9.57.36-14.97-1.84-5.41-5.01-9.29-9.5-11.67-4.49-2.37-9.5-2.61-15.04-.72-5.61,1.91-9.46,5.18-11.56,9.8-2.11,4.62-2.24,9.63-.39,15.04,1.84,5.41,5,9.28,9.48,11.62Z"/>
    <path class="cls-1" d="m527.75,193.78l-50.52-59.07-.3-.89,20.38-6.95,33.04,41.18.99-52.79,20.38-6.95.3.89-3.89,77.63-20.38,6.95Z"/>
    <path class="cls-1" d="m596.62,151.29l38.58-13.16,5.8,17.01-57.37,19.57-23.62-69.24,56.68-19.33,5.8,17.01-37.88,12.92,3.27,9.59,24.04-8.2,5.4,15.83-24.04,8.2,3.34,9.79Z"/>
    <path class="cls-1" d="m693.89,109.5l24.35,18.3.3.89-19.78,6.75-21.86-16.83-13.26,4.52,7.42,21.76-18.79,6.41-23.62-69.24,37.29-12.72c7.25-2.47,13.99-2.31,20.21.5,6.22,2.81,10.53,7.71,12.91,14.7,1.6,4.68,1.93,9.21.99,13.58-.94,4.37-3,8.16-6.17,11.38Zm-40.84-17.43l5.26,15.43,16.02-5.47c2.64-.9,4.51-2.31,5.62-4.24,1.11-1.92,1.26-4.07.45-6.45-.81-2.37-2.24-3.98-4.3-4.83-2.05-.84-4.4-.82-7.04.08l-16.02,5.47Z"/>
  </g>
</svg>